#VRML V2.0 utf8
Shape {
 appearance Appearance { material Material { diffuseColor 0.1 0.1 0.1 specularColor 0.2 0.2 0.2 shininess 0.3 } }
 geometry IndexedFaceSet {
  solid FALSE
  coord Coordinate { point [
   -1.50000 3.50000 1.00000,
   -1.50000 -3.50000 1.00000,
   1.85039 -3.50000 1.00000,
   1.85039 3.50000 1.00000,
   -1.42126 -3.50000 0.16667,
   -1.50000 -3.50000 0.00000,
   1.85039 -3.50000 0.00000,
   -1.50000 -3.50000 0.16667,
   -1.42126 -3.50000 0.83333,
   -1.50000 -3.50000 0.83333,
   1.85039 -3.23622 0.73622,
   1.85039 -2.76378 0.73622,
   1.85039 -3.23622 0.26378,
   1.85039 -2.76378 0.26378,
   1.85039 -2.23622 0.73622,
   1.85039 -2.23622 0.26378,
   1.85039 -1.76378 0.73622,
   1.85039 -1.76378 0.26378,
   1.85039 -1.23622 0.73622,
   1.85039 -0.76378 0.73622,
   1.85039 -1.23622 0.26378,
   1.85039 -0.23622 0.73622,
   1.85039 -0.76378 0.26378,
   1.85039 -0.23622 0.26378,
   1.85039 0.23622 0.26378,
   1.85039 0.76378 0.73622,
   1.85039 0.23622 0.73622,
   1.85039 0.76378 0.26378,
   1.85039 1.23622 0.26378,
   1.85039 1.76378 0.26378,
   1.85039 1.23622 0.73622,
   1.85039 1.76378 0.73622,
   1.85039 2.23622 0.26378,
   1.85039 2.76378 0.26378,
   1.85039 2.23622 0.73622,
   1.85039 2.76378 0.73622,
   1.85039 3.23622 0.73622,
   1.85039 3.50000 0.00000,
   1.85039 3.23622 0.26378,
   -1.42126 3.50000 0.83333,
   -1.50000 3.50000 0.83333,
   -1.42126 3.50000 0.16667,
   -1.50000 3.50000 0.00000,
   -1.50000 3.50000 0.16667,
   -1.42126 -3.11811 0.53937,
   -1.42126 -3.17717 0.53937,
   -1.42126 -3.17717 0.46063,
   -1.42126 -3.11811 0.46063,
   -1.42126 -2.88189 0.53937,
   -1.42126 -2.82283 0.53937,
   -1.42126 -2.88189 0.46063,
   -1.42126 -2.82283 0.46063,
   -1.42126 -2.17717 0.53937,
   -1.42126 -2.11811 0.53937,
   -1.42126 -2.17717 0.46063,
   -1.42126 -2.11811 0.46063,
   -1.42126 -1.88189 0.53937,
   -1.42126 -1.82283 0.53937,
   -1.42126 -1.17717 0.53937,
   -1.42126 -1.11811 0.53937,
   -1.42126 -1.17717 0.46063,
   -1.42126 -1.82283 0.46063,
   -1.42126 -0.88189 0.53937,
   -1.42126 -0.82283 0.53937,
   -1.42126 -0.17717 0.53937,
   -1.42126 -0.82283 0.46063,
   -1.42126 -0.11811 0.53937,
   -1.42126 -0.17717 0.46063,
   -1.42126 0.82283 0.53937,
   -1.42126 0.17717 0.46063,
   -1.42126 0.17717 0.53937,
   -1.42126 0.82283 0.46063,
   -1.42126 1.82283 0.46063,
   -1.42126 1.17717 0.46063,
   -1.42126 1.17717 0.53937,
   -1.42126 1.82283 0.53937,
   -1.42126 2.82283 0.53937,
   -1.42126 2.17717 0.46063,
   -1.42126 2.17717 0.53937,
   -1.42126 2.82283 0.46063,
   -1.42126 0.11811 0.53937,
   -1.42126 1.11811 0.53937,
   -1.42126 0.88189 0.53937,
   -1.42126 2.11811 0.53937,
   -1.42126 1.88189 0.53937,
   -1.42126 3.17717 0.53937,
   -1.42126 3.11811 0.53937,
   -1.42126 2.88189 0.53937,
   -1.42126 2.11811 0.46063,
   -1.42126 2.88189 0.46063,
   -1.42126 3.11811 0.46063,
   -1.42126 3.17717 0.46063,
   -1.42126 -1.88189 0.46063,
   -1.42126 -1.11811 0.46063,
   -1.42126 -0.88189 0.46063,
   -1.42126 -0.11811 0.46063,
   -1.42126 0.11811 0.46063,
   -1.42126 0.88189 0.46063,
   -1.42126 1.11811 0.46063,
   -1.42126 1.88189 0.46063,
   1.73228 -3.11811 0.61811,
   1.73228 -2.88189 0.61811,
   1.73228 -3.11811 0.38189,
   1.73228 -2.88189 0.38189,
   1.73228 -2.11811 0.61811,
   1.73228 -1.88189 0.61811,
   1.73228 -2.11811 0.38189,
   1.73228 -1.88189 0.38189,
   1.73228 -1.11811 0.61811,
   1.73228 -0.88189 0.61811,
   1.73228 -1.11811 0.38189,
   1.73228 -0.88189 0.38189,
   1.73228 -0.11811 0.61811,
   1.73228 0.11811 0.61811,
   1.73228 -0.11811 0.38189,
   1.73228 0.11811 0.38189,
   1.73228 0.88189 0.61811,
   1.73228 1.11811 0.61811,
   1.73228 0.88189 0.38189,
   1.73228 1.11811 0.38189,
   1.73228 1.88189 0.61811,
   1.73228 2.11811 0.61811,
   1.73228 1.88189 0.38189,
   1.73228 2.11811 0.38189,
   1.73228 2.88189 0.61811,
   1.73228 3.11811 0.61811,
   1.73228 2.88189 0.38189,
   1.73228 3.11811 0.38189,
   -1.50000 -3.11811 0.46063,
   -1.50000 -2.88189 0.46063,
   -1.50000 -3.11811 0.53937,
   -1.50000 -2.88189 0.53937,
   -1.50000 -2.11811 0.46063,
   -1.50000 -1.88189 0.46063,
   -1.50000 -2.11811 0.53937,
   -1.50000 -1.88189 0.53937,
   -1.50000 -1.11811 0.46063,
   -1.50000 -0.88189 0.46063,
   -1.50000 -1.11811 0.53937,
   -1.50000 -0.88189 0.53937,
   -1.50000 -0.11811 0.46063,
   -1.50000 0.11811 0.46063,
   -1.50000 -0.11811 0.53937,
   -1.50000 0.11811 0.53937,
   -1.50000 0.88189 0.46063,
   -1.50000 1.11811 0.46063,
   -1.50000 0.88189 0.53937,
   -1.50000 1.11811 0.53937,
   -1.50000 1.88189 0.46063,
   -1.50000 2.11811 0.46063,
   -1.50000 1.88189 0.53937,
   -1.50000 2.11811 0.53937,
   -1.50000 2.88189 0.46063,
   -1.50000 3.11811 0.46063,
   -1.50000 2.88189 0.53937,
   -1.50000 3.11811 0.53937,
   -1.14567 -3.11811 0.61811,
   -1.14567 -2.88189 0.61811,
   1.41732 -3.11811 0.46063,
   -1.14567 -3.11811 0.38189,
   -1.14567 -3.11811 0.46063,
   1.41732 -3.11811 0.53937,
   -1.14567 -3.11811 0.53937,
   -1.14567 -2.88189 0.38189,
   1.41732 -2.88189 0.53937,
   -1.14567 -2.88189 0.53937,
   1.41732 -2.88189 0.46063,
   -1.14567 -2.88189 0.46063,
   -1.14567 -2.11811 0.61811,
   -1.14567 -1.88189 0.61811,
   1.41732 -2.11811 0.46063,
   -1.14567 -2.11811 0.38189,
   -1.14567 -2.11811 0.46063,
   1.41732 -2.11811 0.53937,
   -1.14567 -2.11811 0.53937,
   -1.14567 -1.88189 0.38189,
   1.41732 -1.88189 0.53937,
   -1.14567 -1.88189 0.53937,
   1.41732 -1.88189 0.46063,
   -1.14567 -1.88189 0.46063,
   -1.14567 -1.11811 0.61811,
   -1.14567 -0.88189 0.61811,
   1.41732 -1.11811 0.46063,
   -1.14567 -1.11811 0.38189,
   -1.14567 -1.11811 0.46063,
   1.41732 -1.11811 0.53937,
   -1.14567 -1.11811 0.53937,
   -1.14567 -0.88189 0.38189,
   1.41732 -0.88189 0.53937,
   -1.14567 -0.88189 0.53937,
   1.41732 -0.88189 0.46063,
   -1.14567 -0.88189 0.46063,
   -1.14567 -0.11811 0.61811,
   -1.14567 0.11811 0.61811,
   1.41732 -0.11811 0.46063,
   -1.14567 -0.11811 0.38189,
   -1.14567 -0.11811 0.46063,
   1.41732 -0.11811 0.53937,
   -1.14567 -0.11811 0.53937,
   -1.14567 0.11811 0.38189,
   1.41732 0.11811 0.53937,
   -1.14567 0.11811 0.53937,
   1.41732 0.11811 0.46063,
   -1.14567 0.11811 0.46063,
   -1.14567 0.88189 0.61811,
   -1.14567 1.11811 0.61811,
   1.41732 0.88189 0.46063,
   -1.14567 0.88189 0.38189,
   -1.14567 0.88189 0.46063,
   1.41732 0.88189 0.53937,
   -1.14567 0.88189 0.53937,
   -1.14567 1.11811 0.38189,
   1.41732 1.11811 0.53937,
   -1.14567 1.11811 0.53937,
   1.41732 1.11811 0.46063,
   -1.14567 1.11811 0.46063,
   -1.14567 1.88189 0.61811,
   -1.14567 2.11811 0.61811,
   1.41732 1.88189 0.46063,
   -1.14567 1.88189 0.38189,
   -1.14567 1.88189 0.46063,
   1.41732 1.88189 0.53937,
   -1.14567 1.88189 0.53937,
   -1.14567 2.11811 0.38189,
   1.41732 2.11811 0.53937,
   -1.14567 2.11811 0.53937,
   1.41732 2.11811 0.46063,
   -1.14567 2.11811 0.46063,
   -1.14567 2.88189 0.61811,
   -1.14567 3.11811 0.61811,
   1.41732 2.88189 0.46063,
   -1.14567 2.88189 0.38189,
   -1.14567 2.88189 0.46063,
   1.41732 2.88189 0.53937,
   -1.14567 2.88189 0.53937,
   -1.14567 3.11811 0.38189,
   1.41732 3.11811 0.53937,
   -1.14567 3.11811 0.53937,
   1.41732 3.11811 0.46063,
   -1.14567 3.11811 0.46063,
   -1.00787 -2.90157 0.46063,
   -1.00787 -3.09843 0.46063,
   1.39764 -3.09843 0.46063,
   1.39764 -2.90157 0.46063,
   1.39764 -3.09843 0.53937,
   -1.00787 -2.90157 0.53937,
   -1.00787 -3.09843 0.53937,
   1.39764 -2.90157 0.53937,
   -1.00787 -2.09843 0.46063,
   -1.00787 -1.90157 0.46063,
   1.39764 -2.09843 0.46063,
   1.39764 -1.90157 0.46063,
   1.39764 -2.09843 0.53937,
   -1.00787 -2.09843 0.53937,
   -1.00787 -1.90157 0.53937,
   1.39764 -1.90157 0.53937,
   -1.00787 -0.90157 0.46063,
   -1.00787 -1.09843 0.46063,
   1.39764 -1.09843 0.46063,
   1.39764 -0.90157 0.46063,
   1.39764 -1.09843 0.53937,
   -1.00787 -0.90157 0.53937,
   -1.00787 -1.09843 0.53937,
   1.39764 -0.90157 0.53937,
   -1.00787 0.09843 0.46063,
   -1.00787 -0.09843 0.46063,
   1.39764 -0.09843 0.46063,
   1.39764 0.09843 0.46063,
   1.39764 -0.09843 0.53937,
   -1.00787 0.09843 0.53937,
   -1.00787 -0.09843 0.53937,
   1.39764 0.09843 0.53937,
   -1.00787 1.09843 0.46063,
   -1.00787 0.90157 0.46063,
   1.39764 0.90157 0.46063,
   1.39764 1.09843 0.46063,
   1.39764 0.90157 0.53937,
   -1.00787 1.09843 0.53937,
   -1.00787 0.90157 0.53937,
   1.39764 1.09843 0.53937,
   -1.00787 2.09843 0.46063,
   -1.00787 1.90157 0.46063,
   1.39764 1.90157 0.46063,
   1.39764 2.09843 0.46063,
   1.39764 1.90157 0.53937,
   -1.00787 2.09843 0.53937,
   -1.00787 1.90157 0.53937,
   1.39764 2.09843 0.53937,
   -1.00787 3.09843 0.46063,
   -1.00787 2.90157 0.46063,
   1.39764 2.90157 0.46063,
   1.39764 3.09843 0.46063,
   1.39764 2.90157 0.53937,
   -1.00787 3.09843 0.53937,
   -1.00787 2.90157 0.53937,
   1.39764 3.09843 0.53937
  ] }
  coordIndex [
   0,1,2,-1,
   0,2,3,-1,
   4,5,6,-1,
   7,5,4,-1,
   8,6,2,-1,
   8,4,6,-1,
   1,9,8,-1,
   1,8,2,-1,
   10,11,2,-1,
   6,12,2,-1,
   2,12,10,-1,
   6,13,12,-1,
   11,14,2,-1,
   13,15,11,-1,
   11,15,14,-1,
   6,15,13,-1,
   14,16,2,-1,
   17,18,16,-1,
   16,18,2,-1,
   18,19,2,-1,
   17,20,18,-1,
   19,21,2,-1,
   22,23,19,-1,
   19,23,21,-1,
   24,25,26,-1,
   24,27,25,-1,
   28,29,30,-1,
   30,29,31,-1,
   32,33,34,-1,
   34,33,35,-1,
   26,3,21,-1,
   30,3,25,-1,
   34,3,31,-1,
   36,3,35,-1,
   25,3,26,-1,
   21,3,2,-1,
   31,3,30,-1,
   35,3,34,-1,
   33,37,38,-1,
   38,37,36,-1,
   36,37,3,-1,
   32,37,33,-1,
   6,37,15,-1,
   15,37,17,-1,
   17,37,20,-1,
   20,37,22,-1,
   22,37,23,-1,
   23,37,24,-1,
   24,37,27,-1,
   27,37,28,-1,
   28,37,29,-1,
   29,37,32,-1,
   39,0,3,-1,
   40,0,39,-1,
   41,3,37,-1,
   41,39,3,-1,
   42,43,41,-1,
   42,41,37,-1,
   0,9,1,-1,
   40,9,0,-1,
   43,5,7,-1,
   42,5,43,-1,
   5,42,37,-1,
   5,37,6,-1,
   9,39,8,-1,
   9,40,39,-1,
   44,45,8,-1,
   46,4,8,-1,
   46,8,45,-1,
   47,4,46,-1,
   48,44,8,-1,
   49,48,8,-1,
   50,4,47,-1,
   51,4,50,-1,
   52,49,8,-1,
   53,52,8,-1,
   54,51,49,-1,
   54,49,52,-1,
   54,4,51,-1,
   55,4,54,-1,
   56,53,8,-1,
   57,56,8,-1,
   58,57,8,-1,
   59,58,8,-1,
   60,61,57,-1,
   60,57,58,-1,
   62,59,8,-1,
   63,62,8,-1,
   64,63,8,-1,
   64,65,63,-1,
   66,64,8,-1,
   67,65,64,-1,
   68,69,70,-1,
   71,69,68,-1,
   72,73,74,-1,
   72,74,75,-1,
   76,77,78,-1,
   79,77,76,-1,
   39,66,8,-1,
   39,68,70,-1,
   39,70,80,-1,
   39,80,66,-1,
   39,74,81,-1,
   39,81,82,-1,
   39,82,68,-1,
   39,75,74,-1,
   39,78,83,-1,
   39,83,84,-1,
   39,84,75,-1,
   39,85,86,-1,
   39,86,87,-1,
   39,87,76,-1,
   39,76,78,-1,
   41,85,39,-1,
   41,88,77,-1,
   41,79,89,-1,
   41,89,90,-1,
   41,90,91,-1,
   41,91,85,-1,
   41,77,79,-1,
   41,4,55,-1,
   41,55,92,-1,
   41,92,61,-1,
   41,61,60,-1,
   41,60,93,-1,
   41,93,94,-1,
   41,94,65,-1,
   41,65,67,-1,
   41,67,95,-1,
   41,95,96,-1,
   41,96,69,-1,
   41,69,71,-1,
   41,71,97,-1,
   41,97,98,-1,
   41,98,73,-1,
   41,73,72,-1,
   41,72,99,-1,
   41,99,88,-1,
   43,4,41,-1,
   43,7,4,-1,
   100,11,10,-1,
   100,101,11,-1,
   102,100,12,-1,
   12,100,10,-1,
   103,102,13,-1,
   13,102,12,-1,
   101,103,11,-1,
   11,103,13,-1,
   104,16,14,-1,
   104,105,16,-1,
   106,104,15,-1,
   15,104,14,-1,
   107,106,17,-1,
   17,106,15,-1,
   105,107,16,-1,
   16,107,17,-1,
   108,109,18,-1,
   18,109,19,-1,
   110,108,20,-1,
   20,108,18,-1,
   111,110,22,-1,
   22,110,20,-1,
   109,111,19,-1,
   19,111,22,-1,
   112,26,21,-1,
   112,113,26,-1,
   114,112,23,-1,
   23,112,21,-1,
   115,114,24,-1,
   24,114,23,-1,
   113,115,26,-1,
   26,115,24,-1,
   116,117,25,-1,
   25,117,30,-1,
   118,116,27,-1,
   27,116,25,-1,
   119,118,28,-1,
   28,118,27,-1,
   117,119,30,-1,
   30,119,28,-1,
   120,121,31,-1,
   31,121,34,-1,
   122,120,29,-1,
   29,120,31,-1,
   123,122,32,-1,
   32,122,29,-1,
   121,123,34,-1,
   34,123,32,-1,
   124,125,35,-1,
   35,125,36,-1,
   126,124,33,-1,
   33,124,35,-1,
   127,126,38,-1,
   38,126,33,-1,
   125,127,36,-1,
   36,127,38,-1,
   47,46,44,-1,
   44,46,45,-1,
   128,50,47,-1,
   129,50,128,-1,
   51,50,49,-1,
   49,50,48,-1,
   48,130,44,-1,
   48,131,130,-1,
   55,54,53,-1,
   53,54,52,-1,
   132,92,55,-1,
   133,92,132,-1,
   61,92,57,-1,
   57,92,56,-1,
   56,134,53,-1,
   56,135,134,-1,
   93,60,59,-1,
   59,60,58,-1,
   136,94,93,-1,
   137,94,136,-1,
   65,94,63,-1,
   63,94,62,-1,
   62,138,59,-1,
   62,139,138,-1,
   95,67,66,-1,
   66,67,64,-1,
   140,96,95,-1,
   141,96,140,-1,
   69,96,70,-1,
   70,96,80,-1,
   80,142,66,-1,
   80,143,142,-1,
   97,71,82,-1,
   82,71,68,-1,
   144,98,97,-1,
   145,98,144,-1,
   73,98,74,-1,
   74,98,81,-1,
   81,146,82,-1,
   81,147,146,-1,
   99,72,84,-1,
   84,72,75,-1,
   148,88,99,-1,
   149,88,148,-1,
   77,88,78,-1,
   78,88,83,-1,
   83,150,84,-1,
   83,151,150,-1,
   89,79,87,-1,
   87,79,76,-1,
   152,90,89,-1,
   153,90,152,-1,
   91,90,85,-1,
   85,90,86,-1,
   86,154,87,-1,
   86,155,154,-1,
   101,100,156,-1,
   101,156,157,-1,
   158,159,160,-1,
   161,162,156,-1,
   100,158,161,-1,
   100,102,158,-1,
   102,159,158,-1,
   156,100,161,-1,
   102,103,163,-1,
   102,163,159,-1,
   164,157,165,-1,
   166,167,163,-1,
   103,164,166,-1,
   103,101,164,-1,
   101,157,164,-1,
   163,103,166,-1,
   105,104,168,-1,
   105,168,169,-1,
   170,171,172,-1,
   173,174,168,-1,
   104,170,173,-1,
   104,106,170,-1,
   106,171,170,-1,
   168,104,173,-1,
   106,107,175,-1,
   106,175,171,-1,
   176,169,177,-1,
   178,179,175,-1,
   107,176,178,-1,
   107,105,176,-1,
   105,169,176,-1,
   175,107,178,-1,
   109,108,180,-1,
   109,180,181,-1,
   182,183,184,-1,
   185,186,180,-1,
   108,182,185,-1,
   108,110,182,-1,
   110,183,182,-1,
   180,108,185,-1,
   110,111,187,-1,
   110,187,183,-1,
   188,181,189,-1,
   190,191,187,-1,
   111,188,190,-1,
   111,109,188,-1,
   109,181,188,-1,
   187,111,190,-1,
   113,112,192,-1,
   113,192,193,-1,
   194,195,196,-1,
   197,198,192,-1,
   112,194,197,-1,
   112,114,194,-1,
   114,195,194,-1,
   192,112,197,-1,
   114,115,199,-1,
   114,199,195,-1,
   200,193,201,-1,
   202,203,199,-1,
   115,200,202,-1,
   115,113,200,-1,
   113,193,200,-1,
   199,115,202,-1,
   117,116,204,-1,
   117,204,205,-1,
   206,207,208,-1,
   209,210,204,-1,
   116,206,209,-1,
   116,118,206,-1,
   118,207,206,-1,
   204,116,209,-1,
   118,119,211,-1,
   118,211,207,-1,
   212,205,213,-1,
   214,215,211,-1,
   119,212,214,-1,
   119,117,212,-1,
   117,205,212,-1,
   211,119,214,-1,
   121,120,216,-1,
   121,216,217,-1,
   218,219,220,-1,
   221,222,216,-1,
   120,218,221,-1,
   120,122,218,-1,
   122,219,218,-1,
   216,120,221,-1,
   122,123,223,-1,
   122,223,219,-1,
   224,217,225,-1,
   226,227,223,-1,
   123,224,226,-1,
   123,121,224,-1,
   121,217,224,-1,
   223,123,226,-1,
   125,124,228,-1,
   125,228,229,-1,
   230,231,232,-1,
   233,234,228,-1,
   124,230,233,-1,
   124,126,230,-1,
   126,231,230,-1,
   228,124,233,-1,
   126,127,235,-1,
   126,235,231,-1,
   236,229,237,-1,
   238,239,235,-1,
   127,236,238,-1,
   127,125,236,-1,
   125,229,236,-1,
   235,127,238,-1,
   128,47,44,-1,
   128,44,130,-1,
   129,130,131,-1,
   128,130,129,-1,
   50,129,131,-1,
   50,131,48,-1,
   132,55,53,-1,
   132,53,134,-1,
   133,134,135,-1,
   132,134,133,-1,
   92,133,135,-1,
   92,135,56,-1,
   136,93,59,-1,
   136,59,138,-1,
   137,138,139,-1,
   136,138,137,-1,
   94,137,139,-1,
   94,139,62,-1,
   140,95,66,-1,
   140,66,142,-1,
   141,142,143,-1,
   140,142,141,-1,
   96,141,143,-1,
   96,143,80,-1,
   144,97,82,-1,
   144,82,146,-1,
   145,146,147,-1,
   144,146,145,-1,
   98,145,147,-1,
   98,147,81,-1,
   148,99,84,-1,
   148,84,150,-1,
   149,150,151,-1,
   148,150,149,-1,
   88,149,151,-1,
   88,151,83,-1,
   152,89,87,-1,
   152,87,154,-1,
   153,154,155,-1,
   152,154,153,-1,
   90,153,155,-1,
   90,155,86,-1,
   162,165,156,-1,
   156,165,157,-1,
   159,163,160,-1,
   160,163,167,-1,
   167,240,160,-1,
   160,240,241,-1,
   242,158,241,-1,
   241,158,160,-1,
   167,166,240,-1,
   240,166,243,-1,
   158,242,161,-1,
   161,242,244,-1,
   245,165,162,-1,
   245,162,246,-1,
   161,244,246,-1,
   161,246,162,-1,
   164,165,245,-1,
   164,245,247,-1,
   243,166,247,-1,
   247,166,164,-1,
   174,177,168,-1,
   168,177,169,-1,
   171,175,172,-1,
   172,175,179,-1,
   172,179,248,-1,
   179,249,248,-1,
   248,170,172,-1,
   248,250,170,-1,
   179,178,249,-1,
   249,178,251,-1,
   170,250,173,-1,
   173,250,252,-1,
   177,174,253,-1,
   254,177,253,-1,
   173,253,174,-1,
   252,253,173,-1,
   176,177,254,-1,
   176,254,255,-1,
   251,178,255,-1,
   255,178,176,-1,
   186,189,180,-1,
   180,189,181,-1,
   183,187,184,-1,
   184,187,191,-1,
   191,256,184,-1,
   184,256,257,-1,
   257,182,184,-1,
   257,258,182,-1,
   191,190,256,-1,
   256,190,259,-1,
   182,258,185,-1,
   185,258,260,-1,
   261,189,186,-1,
   261,186,262,-1,
   185,262,186,-1,
   260,262,185,-1,
   188,189,261,-1,
   188,261,263,-1,
   259,190,263,-1,
   263,190,188,-1,
   198,201,192,-1,
   192,201,193,-1,
   195,199,196,-1,
   196,199,203,-1,
   203,264,196,-1,
   196,264,265,-1,
   265,194,196,-1,
   265,266,194,-1,
   203,202,264,-1,
   264,202,267,-1,
   194,266,197,-1,
   197,266,268,-1,
   269,201,198,-1,
   269,198,270,-1,
   197,270,198,-1,
   268,270,197,-1,
   200,201,269,-1,
   200,269,271,-1,
   267,202,271,-1,
   271,202,200,-1,
   210,213,204,-1,
   204,213,205,-1,
   207,211,208,-1,
   208,211,215,-1,
   215,272,208,-1,
   208,272,273,-1,
   273,206,208,-1,
   273,274,206,-1,
   215,214,272,-1,
   272,214,275,-1,
   206,274,209,-1,
   209,274,276,-1,
   277,213,210,-1,
   277,210,278,-1,
   209,278,210,-1,
   276,278,209,-1,
   212,213,277,-1,
   212,277,279,-1,
   275,214,279,-1,
   279,214,212,-1,
   222,225,216,-1,
   216,225,217,-1,
   219,223,220,-1,
   220,223,227,-1,
   227,280,220,-1,
   220,280,281,-1,
   281,218,220,-1,
   281,282,218,-1,
   227,226,280,-1,
   280,226,283,-1,
   218,282,221,-1,
   221,282,284,-1,
   285,225,222,-1,
   285,222,286,-1,
   221,286,222,-1,
   284,286,221,-1,
   224,225,285,-1,
   224,285,287,-1,
   283,226,287,-1,
   287,226,224,-1,
   234,237,228,-1,
   228,237,229,-1,
   231,235,232,-1,
   232,235,239,-1,
   239,288,232,-1,
   232,288,289,-1,
   289,230,232,-1,
   289,290,230,-1,
   239,238,288,-1,
   288,238,291,-1,
   230,290,233,-1,
   233,290,292,-1,
   293,237,234,-1,
   293,234,294,-1,
   233,294,234,-1,
   292,294,233,-1,
   236,237,293,-1,
   236,293,295,-1,
   291,238,295,-1,
   295,238,236,-1,
   242,241,244,-1,
   244,241,246,-1,
   241,240,246,-1,
   246,240,245,-1,
   240,243,245,-1,
   245,243,247,-1,
   250,248,252,-1,
   252,248,253,-1,
   248,249,253,-1,
   253,249,254,-1,
   249,251,254,-1,
   254,251,255,-1,
   258,257,260,-1,
   260,257,262,-1,
   257,256,262,-1,
   262,256,261,-1,
   256,259,261,-1,
   261,259,263,-1,
   266,265,268,-1,
   268,265,270,-1,
   265,264,270,-1,
   270,264,269,-1,
   264,267,269,-1,
   269,267,271,-1,
   274,273,276,-1,
   276,273,278,-1,
   273,272,278,-1,
   278,272,277,-1,
   272,275,277,-1,
   277,275,279,-1,
   282,281,284,-1,
   284,281,286,-1,
   281,280,286,-1,
   286,280,285,-1,
   280,283,285,-1,
   285,283,287,-1,
   290,289,292,-1,
   292,289,294,-1,
   289,288,294,-1,
   294,288,293,-1,
   288,291,293,-1,
   293,291,295,-1
  ]
 }
}
Shape {
 appearance Appearance { material Material { diffuseColor 0.86 0.74 0.4 specularColor 0.2 0.2 0.2 shininess 0.3 } }
 geometry IndexedFaceSet {
  solid FALSE
  coord Coordinate { point [
   -2.01969 -3.11811 0.46063,
   -1.50000 -2.88189 0.46063,
   -1.50000 -3.11811 0.46063,
   -2.01969 -2.88189 0.46063,
   -1.50000 -3.11811 0.53937,
   -2.01969 -3.11811 0.53937,
   -2.02162 -3.11811 0.46058,
   -2.02548 -3.11811 0.53923,
   -2.02354 -3.11811 0.46044,
   -2.03126 -3.11811 0.53880,
   -2.02546 -3.11811 0.46020,
   -2.03702 -3.11811 0.53809,
   -2.02737 -3.11811 0.45987,
   -2.04273 -3.11811 0.53710,
   -2.02925 -3.11811 0.45945,
   -2.04838 -3.11811 0.53583,
   -2.03111 -3.11811 0.45893,
   -2.05397 -3.11811 0.53428,
   -2.03295 -3.11811 0.45833,
   -2.05948 -3.11811 0.53247,
   -2.03475 -3.11811 0.45763,
   -2.06488 -3.11811 0.53038,
   -2.03652 -3.11811 0.45685,
   -2.07018 -3.11811 0.52803,
   -2.03824 -3.11811 0.45598,
   -2.07536 -3.11811 0.52542,
   -2.03993 -3.11811 0.45503,
   -2.08041 -3.11811 0.52257,
   -2.04156 -3.11811 0.45399,
   -2.08530 -3.11811 0.51946,
   -2.04314 -3.11811 0.45288,
   -2.09004 -3.11811 0.51613,
   -2.04466 -3.11811 0.45169,
   -2.09461 -3.11811 0.51256,
   -2.04612 -3.11811 0.45043,
   -2.09900 -3.11811 0.50877,
   -2.04752 -3.11811 0.44910,
   -2.10320 -3.11811 0.50478,
   -2.10720 -3.11811 0.50058,
   -2.04886 -3.11811 0.44770,
   -2.11099 -3.11811 0.49619,
   -2.05012 -3.11811 0.44624,
   -2.11455 -3.11811 0.49162,
   -2.05131 -3.11811 0.44471,
   -2.11789 -3.11811 0.48688,
   -2.05345 -3.11811 0.44150,
   -2.05242 -3.11811 0.44313,
   -2.12099 -3.11811 0.48198,
   -2.05441 -3.11811 0.43982,
   -2.12385 -3.11811 0.47694,
   -2.12646 -3.11811 0.47176,
   -2.05528 -3.11811 0.43809,
   -2.12880 -3.11811 0.46646,
   -2.05606 -3.11811 0.43633,
   -2.13089 -3.11811 0.46105,
   -2.05675 -3.11811 0.43452,
   -2.13271 -3.11811 0.45555,
   -2.05736 -3.11811 0.43269,
   -2.13426 -3.11811 0.44996,
   -2.05788 -3.11811 0.43083,
   -2.13553 -3.11811 0.44430,
   -2.05830 -3.11811 0.42894,
   -2.13652 -3.11811 0.43859,
   -2.05887 -3.11811 0.42512,
   -2.05863 -3.11811 0.42704,
   -2.13723 -3.11811 0.43284,
   -2.13765 -3.11811 0.42706,
   -2.05906 -3.11811 0.42126,
   -2.05901 -3.11811 0.42319,
   -2.13780 -3.11811 0.42126,
   -2.13780 -3.11811 0.11811,
   -2.05906 -3.11811 0.11811,
   -2.05906 -2.88189 0.42126,
   -2.05901 -2.88189 0.42319,
   -2.05887 -2.88189 0.42512,
   -2.05863 -2.88189 0.42704,
   -2.05830 -2.88189 0.42894,
   -2.05788 -2.88189 0.43083,
   -2.05736 -2.88189 0.43269,
   -2.05675 -2.88189 0.43452,
   -2.05606 -2.88189 0.43633,
   -2.05528 -2.88189 0.43809,
   -2.05441 -2.88189 0.43982,
   -2.05345 -2.88189 0.44150,
   -2.05242 -2.88189 0.44313,
   -2.05131 -2.88189 0.44471,
   -2.05012 -2.88189 0.44624,
   -2.04886 -2.88189 0.44770,
   -2.04752 -2.88189 0.44910,
   -2.04612 -2.88189 0.45043,
   -2.04466 -2.88189 0.45169,
   -2.04314 -2.88189 0.45288,
   -2.04156 -2.88189 0.45399,
   -2.03993 -2.88189 0.45503,
   -2.03824 -2.88189 0.45598,
   -2.03652 -2.88189 0.45685,
   -2.03475 -2.88189 0.45763,
   -2.03295 -2.88189 0.45833,
   -2.03111 -2.88189 0.45893,
   -2.02925 -2.88189 0.45945,
   -2.02737 -2.88189 0.45987,
   -2.02546 -2.88189 0.46020,
   -2.02354 -2.88189 0.46044,
   -2.02162 -2.88189 0.46058,
   -2.10720 -2.88189 0.50058,
   -2.10320 -2.88189 0.50478,
   -2.09900 -2.88189 0.50877,
   -2.09461 -2.88189 0.51256,
   -2.11099 -2.88189 0.49619,
   -2.09004 -2.88189 0.51613,
   -2.11455 -2.88189 0.49162,
   -2.08530 -2.88189 0.51946,
   -2.11789 -2.88189 0.48688,
   -2.12099 -2.88189 0.48198,
   -2.08041 -2.88189 0.52257,
   -2.12385 -2.88189 0.47694,
   -2.07536 -2.88189 0.52542,
   -2.12646 -2.88189 0.47176,
   -2.07018 -2.88189 0.52803,
   -2.12880 -2.88189 0.46646,
   -2.06488 -2.88189 0.53038,
   -2.05948 -2.88189 0.53247,
   -2.13089 -2.88189 0.46105,
   -2.13271 -2.88189 0.45555,
   -2.05397 -2.88189 0.53428,
   -2.04838 -2.88189 0.53583,
   -2.13426 -2.88189 0.44996,
   -2.13553 -2.88189 0.44430,
   -2.04273 -2.88189 0.53710,
   -2.13652 -2.88189 0.43859,
   -2.03702 -2.88189 0.53809,
   -2.13723 -2.88189 0.43284,
   -2.03126 -2.88189 0.53880,
   -2.13765 -2.88189 0.42706,
   -2.02548 -2.88189 0.53923,
   -2.01969 -2.88189 0.53937,
   -2.13780 -2.88189 0.42126,
   -2.05906 -2.88189 0.11811,
   -2.13780 -2.88189 0.11811,
   -1.50000 -2.88189 0.53937,
   -1.88583 -3.12598 0.11811,
   -1.88583 -2.87402 0.11811,
   -2.95276 -2.87402 0.11811,
   -2.95276 -3.12598 0.11811,
   -1.88583 -3.12598 0.00000,
   -1.88583 -2.87402 0.00000,
   -2.95276 -2.87402 0.00000,
   -2.95276 -3.12598 0.00000,
   -2.01969 -2.11811 0.46063,
   -1.50000 -1.88189 0.46063,
   -1.50000 -2.11811 0.46063,
   -2.01969 -1.88189 0.46063,
   -1.50000 -2.11811 0.53937,
   -2.01969 -2.11811 0.53937,
   -2.02162 -2.11811 0.46058,
   -2.02548 -2.11811 0.53923,
   -2.02354 -2.11811 0.46044,
   -2.03126 -2.11811 0.53880,
   -2.02546 -2.11811 0.46020,
   -2.03702 -2.11811 0.53809,
   -2.02737 -2.11811 0.45987,
   -2.04273 -2.11811 0.53710,
   -2.02925 -2.11811 0.45945,
   -2.04838 -2.11811 0.53583,
   -2.03111 -2.11811 0.45893,
   -2.05397 -2.11811 0.53428,
   -2.03295 -2.11811 0.45833,
   -2.05948 -2.11811 0.53247,
   -2.03475 -2.11811 0.45763,
   -2.06488 -2.11811 0.53038,
   -2.03652 -2.11811 0.45685,
   -2.07018 -2.11811 0.52803,
   -2.03824 -2.11811 0.45598,
   -2.07536 -2.11811 0.52542,
   -2.03993 -2.11811 0.45503,
   -2.08041 -2.11811 0.52257,
   -2.04156 -2.11811 0.45399,
   -2.08530 -2.11811 0.51946,
   -2.04314 -2.11811 0.45288,
   -2.09004 -2.11811 0.51613,
   -2.04466 -2.11811 0.45169,
   -2.09461 -2.11811 0.51256,
   -2.04612 -2.11811 0.45043,
   -2.09900 -2.11811 0.50877,
   -2.04752 -2.11811 0.44910,
   -2.10320 -2.11811 0.50478,
   -2.10720 -2.11811 0.50058,
   -2.04886 -2.11811 0.44770,
   -2.11099 -2.11811 0.49619,
   -2.05012 -2.11811 0.44624,
   -2.11455 -2.11811 0.49162,
   -2.05131 -2.11811 0.44471,
   -2.11789 -2.11811 0.48688,
   -2.05345 -2.11811 0.44150,
   -2.05242 -2.11811 0.44313,
   -2.12099 -2.11811 0.48198,
   -2.05441 -2.11811 0.43982,
   -2.12385 -2.11811 0.47694,
   -2.12646 -2.11811 0.47176,
   -2.05528 -2.11811 0.43809,
   -2.12880 -2.11811 0.46646,
   -2.05606 -2.11811 0.43633,
   -2.13089 -2.11811 0.46105,
   -2.05675 -2.11811 0.43452,
   -2.13271 -2.11811 0.45555,
   -2.05736 -2.11811 0.43269,
   -2.13426 -2.11811 0.44996,
   -2.05788 -2.11811 0.43083,
   -2.13553 -2.11811 0.44430,
   -2.05830 -2.11811 0.42894,
   -2.13652 -2.11811 0.43859,
   -2.05887 -2.11811 0.42512,
   -2.05863 -2.11811 0.42704,
   -2.13723 -2.11811 0.43284,
   -2.13765 -2.11811 0.42706,
   -2.05906 -2.11811 0.42126,
   -2.05901 -2.11811 0.42319,
   -2.13780 -2.11811 0.42126,
   -2.13780 -2.11811 0.11811,
   -2.05906 -2.11811 0.11811,
   -2.05906 -1.88189 0.42126,
   -2.05901 -1.88189 0.42319,
   -2.05887 -1.88189 0.42512,
   -2.05863 -1.88189 0.42704,
   -2.05830 -1.88189 0.42894,
   -2.05788 -1.88189 0.43083,
   -2.05736 -1.88189 0.43269,
   -2.05675 -1.88189 0.43452,
   -2.05606 -1.88189 0.43633,
   -2.05528 -1.88189 0.43809,
   -2.05441 -1.88189 0.43982,
   -2.05345 -1.88189 0.44150,
   -2.05242 -1.88189 0.44313,
   -2.05131 -1.88189 0.44471,
   -2.05012 -1.88189 0.44624,
   -2.04886 -1.88189 0.44770,
   -2.04752 -1.88189 0.44910,
   -2.04612 -1.88189 0.45043,
   -2.04466 -1.88189 0.45169,
   -2.04314 -1.88189 0.45288,
   -2.04156 -1.88189 0.45399,
   -2.03993 -1.88189 0.45503,
   -2.03824 -1.88189 0.45598,
   -2.03652 -1.88189 0.45685,
   -2.03475 -1.88189 0.45763,
   -2.03295 -1.88189 0.45833,
   -2.03111 -1.88189 0.45893,
   -2.02925 -1.88189 0.45945,
   -2.02737 -1.88189 0.45987,
   -2.02546 -1.88189 0.46020,
   -2.02354 -1.88189 0.46044,
   -2.02162 -1.88189 0.46058,
   -2.10720 -1.88189 0.50058,
   -2.10320 -1.88189 0.50478,
   -2.09900 -1.88189 0.50877,
   -2.09461 -1.88189 0.51256,
   -2.11099 -1.88189 0.49619,
   -2.09004 -1.88189 0.51613,
   -2.11455 -1.88189 0.49162,
   -2.08530 -1.88189 0.51946,
   -2.11789 -1.88189 0.48688,
   -2.12099 -1.88189 0.48198,
   -2.08041 -1.88189 0.52257,
   -2.12385 -1.88189 0.47694,
   -2.07536 -1.88189 0.52542,
   -2.12646 -1.88189 0.47176,
   -2.07018 -1.88189 0.52803,
   -2.12880 -1.88189 0.46646,
   -2.06488 -1.88189 0.53038,
   -2.05948 -1.88189 0.53247,
   -2.13089 -1.88189 0.46105,
   -2.13271 -1.88189 0.45555,
   -2.05397 -1.88189 0.53428,
   -2.04838 -1.88189 0.53583,
   -2.13426 -1.88189 0.44996,
   -2.13553 -1.88189 0.44430,
   -2.04273 -1.88189 0.53710,
   -2.13652 -1.88189 0.43859,
   -2.03702 -1.88189 0.53809,
   -2.13723 -1.88189 0.43284,
   -2.03126 -1.88189 0.53880,
   -2.13765 -1.88189 0.42706,
   -2.02548 -1.88189 0.53923,
   -2.01969 -1.88189 0.53937,
   -2.13780 -1.88189 0.42126,
   -2.05906 -1.88189 0.11811,
   -2.13780 -1.88189 0.11811,
   -1.50000 -1.88189 0.53937,
   -1.88583 -2.12598 0.11811,
   -1.88583 -1.87402 0.11811,
   -2.95276 -2.12598 0.11811,
   -2.95276 -1.87402 0.11811,
   -1.88583 -2.12598 0.00000,
   -1.88583 -1.87402 0.00000,
   -2.95276 -1.87402 0.00000,
   -2.95276 -2.12598 0.00000,
   -2.01969 -1.11811 0.46063,
   -1.50000 -0.88189 0.46063,
   -1.50000 -1.11811 0.46063,
   -2.01969 -0.88189 0.46063,
   -1.50000 -1.11811 0.53937,
   -2.01969 -1.11811 0.53937,
   -2.02162 -1.11811 0.46058,
   -2.02548 -1.11811 0.53923,
   -2.02354 -1.11811 0.46044,
   -2.03126 -1.11811 0.53880,
   -2.02546 -1.11811 0.46020,
   -2.03702 -1.11811 0.53809,
   -2.02737 -1.11811 0.45987,
   -2.04273 -1.11811 0.53710,
   -2.02925 -1.11811 0.45945,
   -2.04838 -1.11811 0.53583,
   -2.03111 -1.11811 0.45893,
   -2.05397 -1.11811 0.53428,
   -2.03295 -1.11811 0.45833,
   -2.05948 -1.11811 0.53247,
   -2.03475 -1.11811 0.45763,
   -2.06488 -1.11811 0.53038,
   -2.03652 -1.11811 0.45685,
   -2.07018 -1.11811 0.52803,
   -2.03824 -1.11811 0.45598,
   -2.07536 -1.11811 0.52542,
   -2.03993 -1.11811 0.45503,
   -2.08041 -1.11811 0.52257,
   -2.04156 -1.11811 0.45399,
   -2.08530 -1.11811 0.51946,
   -2.04314 -1.11811 0.45288,
   -2.09004 -1.11811 0.51613,
   -2.04466 -1.11811 0.45169,
   -2.09461 -1.11811 0.51256,
   -2.04612 -1.11811 0.45043,
   -2.09900 -1.11811 0.50877,
   -2.04752 -1.11811 0.44910,
   -2.10320 -1.11811 0.50478,
   -2.10720 -1.11811 0.50058,
   -2.04886 -1.11811 0.44770,
   -2.11099 -1.11811 0.49619,
   -2.05012 -1.11811 0.44624,
   -2.11455 -1.11811 0.49162,
   -2.05131 -1.11811 0.44471,
   -2.11789 -1.11811 0.48688,
   -2.05345 -1.11811 0.44150,
   -2.05242 -1.11811 0.44313,
   -2.12099 -1.11811 0.48198,
   -2.05441 -1.11811 0.43982,
   -2.12385 -1.11811 0.47694,
   -2.12646 -1.11811 0.47176,
   -2.05528 -1.11811 0.43809,
   -2.12880 -1.11811 0.46646,
   -2.05606 -1.11811 0.43633,
   -2.13089 -1.11811 0.46105,
   -2.05675 -1.11811 0.43452,
   -2.13271 -1.11811 0.45555,
   -2.05736 -1.11811 0.43269,
   -2.13426 -1.11811 0.44996,
   -2.05788 -1.11811 0.43083,
   -2.13553 -1.11811 0.44430,
   -2.05830 -1.11811 0.42894,
   -2.13652 -1.11811 0.43859,
   -2.05887 -1.11811 0.42512,
   -2.05863 -1.11811 0.42704,
   -2.13723 -1.11811 0.43284,
   -2.13765 -1.11811 0.42706,
   -2.05906 -1.11811 0.42126,
   -2.05901 -1.11811 0.42319,
   -2.13780 -1.11811 0.42126,
   -2.13780 -1.11811 0.11811,
   -2.05906 -1.11811 0.11811,
   -2.05906 -0.88189 0.42126,
   -2.05901 -0.88189 0.42319,
   -2.05887 -0.88189 0.42512,
   -2.05863 -0.88189 0.42704,
   -2.05830 -0.88189 0.42894,
   -2.05788 -0.88189 0.43083,
   -2.05736 -0.88189 0.43269,
   -2.05675 -0.88189 0.43452,
   -2.05606 -0.88189 0.43633,
   -2.05528 -0.88189 0.43809,
   -2.05441 -0.88189 0.43982,
   -2.05345 -0.88189 0.44150,
   -2.05242 -0.88189 0.44313,
   -2.05131 -0.88189 0.44471,
   -2.05012 -0.88189 0.44624,
   -2.04886 -0.88189 0.44770,
   -2.04752 -0.88189 0.44910,
   -2.04612 -0.88189 0.45043,
   -2.04466 -0.88189 0.45169,
   -2.04314 -0.88189 0.45288,
   -2.04156 -0.88189 0.45399,
   -2.03993 -0.88189 0.45503,
   -2.03824 -0.88189 0.45598,
   -2.03652 -0.88189 0.45685,
   -2.03475 -0.88189 0.45763,
   -2.03295 -0.88189 0.45833,
   -2.03111 -0.88189 0.45893,
   -2.02925 -0.88189 0.45945,
   -2.02737 -0.88189 0.45987,
   -2.02546 -0.88189 0.46020,
   -2.02354 -0.88189 0.46044,
   -2.02162 -0.88189 0.46058,
   -2.10720 -0.88189 0.50058,
   -2.10320 -0.88189 0.50478,
   -2.09900 -0.88189 0.50877,
   -2.09461 -0.88189 0.51256,
   -2.11099 -0.88189 0.49619,
   -2.09004 -0.88189 0.51613,
   -2.11455 -0.88189 0.49162,
   -2.08530 -0.88189 0.51946,
   -2.11789 -0.88189 0.48688,
   -2.12099 -0.88189 0.48198,
   -2.08041 -0.88189 0.52257,
   -2.12385 -0.88189 0.47694,
   -2.07536 -0.88189 0.52542,
   -2.12646 -0.88189 0.47176,
   -2.07018 -0.88189 0.52803,
   -2.12880 -0.88189 0.46646,
   -2.06488 -0.88189 0.53038,
   -2.05948 -0.88189 0.53247,
   -2.13089 -0.88189 0.46105,
   -2.13271 -0.88189 0.45555,
   -2.05397 -0.88189 0.53428,
   -2.04838 -0.88189 0.53583,
   -2.13426 -0.88189 0.44996,
   -2.13553 -0.88189 0.44430,
   -2.04273 -0.88189 0.53710,
   -2.13652 -0.88189 0.43859,
   -2.03702 -0.88189 0.53809,
   -2.13723 -0.88189 0.43284,
   -2.03126 -0.88189 0.53880,
   -2.13765 -0.88189 0.42706,
   -2.02548 -0.88189 0.53923,
   -2.01969 -0.88189 0.53937,
   -2.13780 -0.88189 0.42126,
   -2.05906 -0.88189 0.11811,
   -2.13780 -0.88189 0.11811,
   -1.50000 -0.88189 0.53937,
   -1.88583 -1.12598 0.11811,
   -1.88583 -0.87402 0.11811,
   -2.95276 -0.87402 0.11811,
   -2.95276 -1.12598 0.11811,
   -1.88583 -1.12598 0.00000,
   -1.88583 -0.87402 0.00000,
   -2.95276 -0.87402 0.00000,
   -2.95276 -1.12598 0.00000,
   -2.01969 -0.11811 0.46063,
   -1.50000 0.11811 0.46063,
   -1.50000 -0.11811 0.46063,
   -2.01969 0.11811 0.46063,
   -1.50000 -0.11811 0.53937,
   -2.01969 -0.11811 0.53937,
   -2.02162 -0.11811 0.46058,
   -2.02548 -0.11811 0.53923,
   -2.02354 -0.11811 0.46044,
   -2.03126 -0.11811 0.53880,
   -2.02546 -0.11811 0.46020,
   -2.03702 -0.11811 0.53809,
   -2.02737 -0.11811 0.45987,
   -2.04273 -0.11811 0.53710,
   -2.02925 -0.11811 0.45945,
   -2.04838 -0.11811 0.53583,
   -2.03111 -0.11811 0.45893,
   -2.05397 -0.11811 0.53428,
   -2.03295 -0.11811 0.45833,
   -2.05948 -0.11811 0.53247,
   -2.03475 -0.11811 0.45763,
   -2.06488 -0.11811 0.53038,
   -2.03652 -0.11811 0.45685,
   -2.07018 -0.11811 0.52803,
   -2.03824 -0.11811 0.45598,
   -2.07536 -0.11811 0.52542,
   -2.03993 -0.11811 0.45503,
   -2.08041 -0.11811 0.52257,
   -2.04156 -0.11811 0.45399,
   -2.08530 -0.11811 0.51946,
   -2.04314 -0.11811 0.45288,
   -2.09004 -0.11811 0.51613,
   -2.04466 -0.11811 0.45169,
   -2.09461 -0.11811 0.51256,
   -2.04612 -0.11811 0.45043,
   -2.09900 -0.11811 0.50877,
   -2.04752 -0.11811 0.44910,
   -2.10320 -0.11811 0.50478,
   -2.10720 -0.11811 0.50058,
   -2.04886 -0.11811 0.44770,
   -2.11099 -0.11811 0.49619,
   -2.05012 -0.11811 0.44624,
   -2.11455 -0.11811 0.49162,
   -2.05131 -0.11811 0.44471,
   -2.11789 -0.11811 0.48688,
   -2.05345 -0.11811 0.44150,
   -2.05242 -0.11811 0.44313,
   -2.12099 -0.11811 0.48198,
   -2.05441 -0.11811 0.43982,
   -2.12385 -0.11811 0.47694,
   -2.12646 -0.11811 0.47176,
   -2.05528 -0.11811 0.43809,
   -2.12880 -0.11811 0.46646,
   -2.05606 -0.11811 0.43633,
   -2.13089 -0.11811 0.46105,
   -2.05675 -0.11811 0.43452,
   -2.13271 -0.11811 0.45555,
   -2.05736 -0.11811 0.43269,
   -2.13426 -0.11811 0.44996,
   -2.05788 -0.11811 0.43083,
   -2.13553 -0.11811 0.44430,
   -2.05830 -0.11811 0.42894,
   -2.13652 -0.11811 0.43859,
   -2.05887 -0.11811 0.42512,
   -2.05863 -0.11811 0.42704,
   -2.13723 -0.11811 0.43284,
   -2.13765 -0.11811 0.42706,
   -2.05906 -0.11811 0.42126,
   -2.05901 -0.11811 0.42319,
   -2.13780 -0.11811 0.42126,
   -2.13780 -0.11811 0.11811,
   -2.05906 -0.11811 0.11811,
   -2.05906 0.11811 0.42126,
   -2.05901 0.11811 0.42319,
   -2.05887 0.11811 0.42512,
   -2.05863 0.11811 0.42704,
   -2.05830 0.11811 0.42894,
   -2.05788 0.11811 0.43083,
   -2.05736 0.11811 0.43269,
   -2.05675 0.11811 0.43452,
   -2.05606 0.11811 0.43633,
   -2.05528 0.11811 0.43809,
   -2.05441 0.11811 0.43982,
   -2.05345 0.11811 0.44150,
   -2.05242 0.11811 0.44313,
   -2.05131 0.11811 0.44471,
   -2.05012 0.11811 0.44624,
   -2.04886 0.11811 0.44770,
   -2.04752 0.11811 0.44910,
   -2.04612 0.11811 0.45043,
   -2.04466 0.11811 0.45169,
   -2.04314 0.11811 0.45288,
   -2.04156 0.11811 0.45399,
   -2.03993 0.11811 0.45503,
   -2.03824 0.11811 0.45598,
   -2.03652 0.11811 0.45685,
   -2.03475 0.11811 0.45763,
   -2.03295 0.11811 0.45833,
   -2.03111 0.11811 0.45893,
   -2.02925 0.11811 0.45945,
   -2.02737 0.11811 0.45987,
   -2.02546 0.11811 0.46020,
   -2.02354 0.11811 0.46044,
   -2.02162 0.11811 0.46058,
   -2.10720 0.11811 0.50058,
   -2.10320 0.11811 0.50478,
   -2.09900 0.11811 0.50877,
   -2.09461 0.11811 0.51256,
   -2.11099 0.11811 0.49619,
   -2.09004 0.11811 0.51613,
   -2.11455 0.11811 0.49162,
   -2.08530 0.11811 0.51946,
   -2.11789 0.11811 0.48688,
   -2.12099 0.11811 0.48198,
   -2.08041 0.11811 0.52257,
   -2.12385 0.11811 0.47694,
   -2.07536 0.11811 0.52542,
   -2.12646 0.11811 0.47176,
   -2.07018 0.11811 0.52803,
   -2.12880 0.11811 0.46646,
   -2.06488 0.11811 0.53038,
   -2.05948 0.11811 0.53247,
   -2.13089 0.11811 0.46105,
   -2.13271 0.11811 0.45555,
   -2.05397 0.11811 0.53428,
   -2.04838 0.11811 0.53583,
   -2.13426 0.11811 0.44996,
   -2.13553 0.11811 0.44430,
   -2.04273 0.11811 0.53710,
   -2.13652 0.11811 0.43859,
   -2.03702 0.11811 0.53809,
   -2.13723 0.11811 0.43284,
   -2.03126 0.11811 0.53880,
   -2.13765 0.11811 0.42706,
   -2.02548 0.11811 0.53923,
   -2.01969 0.11811 0.53937,
   -2.13780 0.11811 0.42126,
   -2.05906 0.11811 0.11811,
   -2.13780 0.11811 0.11811,
   -1.50000 0.11811 0.53937,
   -1.88583 -0.12598 0.11811,
   -1.88583 0.12598 0.11811,
   -2.95276 0.12598 0.11811,
   -2.95276 -0.12598 0.11811,
   -1.88583 -0.12598 0.00000,
   -1.88583 0.12598 0.00000,
   -2.95276 0.12598 0.00000,
   -2.95276 -0.12598 0.00000,
   -2.01969 0.88189 0.46063,
   -1.50000 1.11811 0.46063,
   -1.50000 0.88189 0.46063,
   -2.01969 1.11811 0.46063,
   -1.50000 0.88189 0.53937,
   -2.01969 0.88189 0.53937,
   -2.02162 0.88189 0.46058,
   -2.02548 0.88189 0.53923,
   -2.02354 0.88189 0.46044,
   -2.03126 0.88189 0.53880,
   -2.02546 0.88189 0.46020,
   -2.03702 0.88189 0.53809,
   -2.02737 0.88189 0.45987,
   -2.04273 0.88189 0.53710,
   -2.02925 0.88189 0.45945,
   -2.04838 0.88189 0.53583,
   -2.03111 0.88189 0.45893,
   -2.05397 0.88189 0.53428,
   -2.03295 0.88189 0.45833,
   -2.05948 0.88189 0.53247,
   -2.03475 0.88189 0.45763,
   -2.06488 0.88189 0.53038,
   -2.03652 0.88189 0.45685,
   -2.07018 0.88189 0.52803,
   -2.03824 0.88189 0.45598,
   -2.07536 0.88189 0.52542,
   -2.03993 0.88189 0.45503,
   -2.08041 0.88189 0.52257,
   -2.04156 0.88189 0.45399,
   -2.08530 0.88189 0.51946,
   -2.04314 0.88189 0.45288,
   -2.09004 0.88189 0.51613,
   -2.04466 0.88189 0.45169,
   -2.09461 0.88189 0.51256,
   -2.04612 0.88189 0.45043,
   -2.09900 0.88189 0.50877,
   -2.04752 0.88189 0.44910,
   -2.10320 0.88189 0.50478,
   -2.10720 0.88189 0.50058,
   -2.04886 0.88189 0.44770,
   -2.11099 0.88189 0.49619,
   -2.05012 0.88189 0.44624,
   -2.11455 0.88189 0.49162,
   -2.05131 0.88189 0.44471,
   -2.11789 0.88189 0.48688,
   -2.05345 0.88189 0.44150,
   -2.05242 0.88189 0.44313,
   -2.12099 0.88189 0.48198,
   -2.05441 0.88189 0.43982,
   -2.12385 0.88189 0.47694,
   -2.12646 0.88189 0.47176,
   -2.05528 0.88189 0.43809,
   -2.12880 0.88189 0.46646,
   -2.05606 0.88189 0.43633,
   -2.13089 0.88189 0.46105,
   -2.05675 0.88189 0.43452,
   -2.13271 0.88189 0.45555,
   -2.05736 0.88189 0.43269,
   -2.13426 0.88189 0.44996,
   -2.05788 0.88189 0.43083,
   -2.13553 0.88189 0.44430,
   -2.05830 0.88189 0.42894,
   -2.13652 0.88189 0.43859,
   -2.05887 0.88189 0.42512,
   -2.05863 0.88189 0.42704,
   -2.13723 0.88189 0.43284,
   -2.13765 0.88189 0.42706,
   -2.05906 0.88189 0.42126,
   -2.05901 0.88189 0.42319,
   -2.13780 0.88189 0.42126,
   -2.13780 0.88189 0.11811,
   -2.05906 0.88189 0.11811,
   -2.05906 1.11811 0.42126,
   -2.05901 1.11811 0.42319,
   -2.05887 1.11811 0.42512,
   -2.05863 1.11811 0.42704,
   -2.05830 1.11811 0.42894,
   -2.05788 1.11811 0.43083,
   -2.05736 1.11811 0.43269,
   -2.05675 1.11811 0.43452,
   -2.05606 1.11811 0.43633,
   -2.05528 1.11811 0.43809,
   -2.05441 1.11811 0.43982,
   -2.05345 1.11811 0.44150,
   -2.05242 1.11811 0.44313,
   -2.05131 1.11811 0.44471,
   -2.05012 1.11811 0.44624,
   -2.04886 1.11811 0.44770,
   -2.04752 1.11811 0.44910,
   -2.04612 1.11811 0.45043,
   -2.04466 1.11811 0.45169,
   -2.04314 1.11811 0.45288,
   -2.04156 1.11811 0.45399,
   -2.03993 1.11811 0.45503,
   -2.03824 1.11811 0.45598,
   -2.03652 1.11811 0.45685,
   -2.03475 1.11811 0.45763,
   -2.03295 1.11811 0.45833,
   -2.03111 1.11811 0.45893,
   -2.02925 1.11811 0.45945,
   -2.02737 1.11811 0.45987,
   -2.02546 1.11811 0.46020,
   -2.02354 1.11811 0.46044,
   -2.02162 1.11811 0.46058,
   -2.10720 1.11811 0.50058,
   -2.10320 1.11811 0.50478,
   -2.09900 1.11811 0.50877,
   -2.09461 1.11811 0.51256,
   -2.11099 1.11811 0.49619,
   -2.09004 1.11811 0.51613,
   -2.11455 1.11811 0.49162,
   -2.08530 1.11811 0.51946,
   -2.11789 1.11811 0.48688,
   -2.12099 1.11811 0.48198,
   -2.08041 1.11811 0.52257,
   -2.12385 1.11811 0.47694,
   -2.07536 1.11811 0.52542,
   -2.12646 1.11811 0.47176,
   -2.07018 1.11811 0.52803,
   -2.12880 1.11811 0.46646,
   -2.06488 1.11811 0.53038,
   -2.05948 1.11811 0.53247,
   -2.13089 1.11811 0.46105,
   -2.13271 1.11811 0.45555,
   -2.05397 1.11811 0.53428,
   -2.04838 1.11811 0.53583,
   -2.13426 1.11811 0.44996,
   -2.13553 1.11811 0.44430,
   -2.04273 1.11811 0.53710,
   -2.13652 1.11811 0.43859,
   -2.03702 1.11811 0.53809,
   -2.13723 1.11811 0.43284,
   -2.03126 1.11811 0.53880,
   -2.13765 1.11811 0.42706,
   -2.02548 1.11811 0.53923,
   -2.01969 1.11811 0.53937,
   -2.13780 1.11811 0.42126,
   -2.05906 1.11811 0.11811,
   -2.13780 1.11811 0.11811,
   -1.50000 1.11811 0.53937,
   -1.88583 0.87402 0.11811,
   -1.88583 1.12598 0.11811,
   -2.95276 1.12598 0.11811,
   -2.95276 0.87402 0.11811,
   -1.88583 0.87402 0.00000,
   -1.88583 1.12598 0.00000,
   -2.95276 1.12598 0.00000,
   -2.95276 0.87402 0.00000,
   -2.01969 1.88189 0.46063,
   -1.50000 2.11811 0.46063,
   -1.50000 1.88189 0.46063,
   -2.01969 2.11811 0.46063,
   -1.50000 1.88189 0.53937,
   -2.01969 1.88189 0.53937,
   -2.02162 1.88189 0.46058,
   -2.02548 1.88189 0.53923,
   -2.02354 1.88189 0.46044,
   -2.03126 1.88189 0.53880,
   -2.02546 1.88189 0.46020,
   -2.03702 1.88189 0.53809,
   -2.02737 1.88189 0.45987,
   -2.04273 1.88189 0.53710,
   -2.02925 1.88189 0.45945,
   -2.04838 1.88189 0.53583,
   -2.03111 1.88189 0.45893,
   -2.05397 1.88189 0.53428,
   -2.03295 1.88189 0.45833,
   -2.05948 1.88189 0.53247,
   -2.03475 1.88189 0.45763,
   -2.06488 1.88189 0.53038,
   -2.03652 1.88189 0.45685,
   -2.07018 1.88189 0.52803,
   -2.03824 1.88189 0.45598,
   -2.07536 1.88189 0.52542,
   -2.03993 1.88189 0.45503,
   -2.08041 1.88189 0.52257,
   -2.04156 1.88189 0.45399,
   -2.08530 1.88189 0.51946,
   -2.04314 1.88189 0.45288,
   -2.09004 1.88189 0.51613,
   -2.04466 1.88189 0.45169,
   -2.09461 1.88189 0.51256,
   -2.04612 1.88189 0.45043,
   -2.09900 1.88189 0.50877,
   -2.04752 1.88189 0.44910,
   -2.10320 1.88189 0.50478,
   -2.10720 1.88189 0.50058,
   -2.04886 1.88189 0.44770,
   -2.11099 1.88189 0.49619,
   -2.05012 1.88189 0.44624,
   -2.11455 1.88189 0.49162,
   -2.05131 1.88189 0.44471,
   -2.11789 1.88189 0.48688,
   -2.05345 1.88189 0.44150,
   -2.05242 1.88189 0.44313,
   -2.12099 1.88189 0.48198,
   -2.05441 1.88189 0.43982,
   -2.12385 1.88189 0.47694,
   -2.12646 1.88189 0.47176,
   -2.05528 1.88189 0.43809,
   -2.12880 1.88189 0.46646,
   -2.05606 1.88189 0.43633,
   -2.13089 1.88189 0.46105,
   -2.05675 1.88189 0.43452,
   -2.13271 1.88189 0.45555,
   -2.05736 1.88189 0.43269,
   -2.13426 1.88189 0.44996,
   -2.05788 1.88189 0.43083,
   -2.13553 1.88189 0.44430,
   -2.05830 1.88189 0.42894,
   -2.13652 1.88189 0.43859,
   -2.05887 1.88189 0.42512,
   -2.05863 1.88189 0.42704,
   -2.13723 1.88189 0.43284,
   -2.13765 1.88189 0.42706,
   -2.05906 1.88189 0.42126,
   -2.05901 1.88189 0.42319,
   -2.13780 1.88189 0.42126,
   -2.13780 1.88189 0.11811,
   -2.05906 1.88189 0.11811,
   -2.05906 2.11811 0.42126,
   -2.05901 2.11811 0.42319,
   -2.05887 2.11811 0.42512,
   -2.05863 2.11811 0.42704,
   -2.05830 2.11811 0.42894,
   -2.05788 2.11811 0.43083,
   -2.05736 2.11811 0.43269,
   -2.05675 2.11811 0.43452,
   -2.05606 2.11811 0.43633,
   -2.05528 2.11811 0.43809,
   -2.05441 2.11811 0.43982,
   -2.05345 2.11811 0.44150,
   -2.05242 2.11811 0.44313,
   -2.05131 2.11811 0.44471,
   -2.05012 2.11811 0.44624,
   -2.04886 2.11811 0.44770,
   -2.04752 2.11811 0.44910,
   -2.04612 2.11811 0.45043,
   -2.04466 2.11811 0.45169,
   -2.04314 2.11811 0.45288,
   -2.04156 2.11811 0.45399,
   -2.03993 2.11811 0.45503,
   -2.03824 2.11811 0.45598,
   -2.03652 2.11811 0.45685,
   -2.03475 2.11811 0.45763,
   -2.03295 2.11811 0.45833,
   -2.03111 2.11811 0.45893,
   -2.02925 2.11811 0.45945,
   -2.02737 2.11811 0.45987,
   -2.02546 2.11811 0.46020,
   -2.02354 2.11811 0.46044,
   -2.02162 2.11811 0.46058,
   -2.10720 2.11811 0.50058,
   -2.10320 2.11811 0.50478,
   -2.09900 2.11811 0.50877,
   -2.09461 2.11811 0.51256,
   -2.11099 2.11811 0.49619,
   -2.09004 2.11811 0.51613,
   -2.11455 2.11811 0.49162,
   -2.08530 2.11811 0.51946,
   -2.11789 2.11811 0.48688,
   -2.12099 2.11811 0.48198,
   -2.08041 2.11811 0.52257,
   -2.12385 2.11811 0.47694,
   -2.07536 2.11811 0.52542,
   -2.12646 2.11811 0.47176,
   -2.07018 2.11811 0.52803,
   -2.12880 2.11811 0.46646,
   -2.06488 2.11811 0.53038,
   -2.05948 2.11811 0.53247,
   -2.13089 2.11811 0.46105,
   -2.13271 2.11811 0.45555,
   -2.05397 2.11811 0.53428,
   -2.04838 2.11811 0.53583,
   -2.13426 2.11811 0.44996,
   -2.13553 2.11811 0.44430,
   -2.04273 2.11811 0.53710,
   -2.13652 2.11811 0.43859,
   -2.03702 2.11811 0.53809,
   -2.13723 2.11811 0.43284,
   -2.03126 2.11811 0.53880,
   -2.13765 2.11811 0.42706,
   -2.02548 2.11811 0.53923,
   -2.01969 2.11811 0.53937,
   -2.13780 2.11811 0.42126,
   -2.05906 2.11811 0.11811,
   -2.13780 2.11811 0.11811,
   -1.50000 2.11811 0.53937,
   -1.88583 1.87402 0.11811,
   -1.88583 2.12598 0.11811,
   -2.95276 2.12598 0.11811,
   -2.95276 1.87402 0.11811,
   -1.88583 1.87402 0.00000,
   -1.88583 2.12598 0.00000,
   -2.95276 2.12598 0.00000,
   -2.95276 1.87402 0.00000,
   -2.01969 2.88189 0.46063,
   -1.50000 3.11811 0.46063,
   -1.50000 2.88189 0.46063,
   -2.01969 3.11811 0.46063,
   -1.50000 2.88189 0.53937,
   -2.01969 2.88189 0.53937,
   -2.02162 2.88189 0.46058,
   -2.02548 2.88189 0.53923,
   -2.02354 2.88189 0.46044,
   -2.03126 2.88189 0.53880,
   -2.02546 2.88189 0.46020,
   -2.03702 2.88189 0.53809,
   -2.02737 2.88189 0.45987,
   -2.04273 2.88189 0.53710,
   -2.02925 2.88189 0.45945,
   -2.04838 2.88189 0.53583,
   -2.03111 2.88189 0.45893,
   -2.05397 2.88189 0.53428,
   -2.03295 2.88189 0.45833,
   -2.05948 2.88189 0.53247,
   -2.03475 2.88189 0.45763,
   -2.06488 2.88189 0.53038,
   -2.03652 2.88189 0.45685,
   -2.07018 2.88189 0.52803,
   -2.03824 2.88189 0.45598,
   -2.07536 2.88189 0.52542,
   -2.03993 2.88189 0.45503,
   -2.08041 2.88189 0.52257,
   -2.04156 2.88189 0.45399,
   -2.08530 2.88189 0.51946,
   -2.04314 2.88189 0.45288,
   -2.09004 2.88189 0.51613,
   -2.04466 2.88189 0.45169,
   -2.09461 2.88189 0.51256,
   -2.04612 2.88189 0.45043,
   -2.09900 2.88189 0.50877,
   -2.04752 2.88189 0.44910,
   -2.10320 2.88189 0.50478,
   -2.10720 2.88189 0.50058,
   -2.04886 2.88189 0.44770,
   -2.11099 2.88189 0.49619,
   -2.05012 2.88189 0.44624,
   -2.11455 2.88189 0.49162,
   -2.05131 2.88189 0.44471,
   -2.11789 2.88189 0.48688,
   -2.05345 2.88189 0.44150,
   -2.05242 2.88189 0.44313,
   -2.12099 2.88189 0.48198,
   -2.05441 2.88189 0.43982,
   -2.12385 2.88189 0.47694,
   -2.12646 2.88189 0.47176,
   -2.05528 2.88189 0.43809,
   -2.12880 2.88189 0.46646,
   -2.05606 2.88189 0.43633,
   -2.13089 2.88189 0.46105,
   -2.05675 2.88189 0.43452,
   -2.13271 2.88189 0.45555,
   -2.05736 2.88189 0.43269,
   -2.13426 2.88189 0.44996,
   -2.05788 2.88189 0.43083,
   -2.13553 2.88189 0.44430,
   -2.05830 2.88189 0.42894,
   -2.13652 2.88189 0.43859,
   -2.05887 2.88189 0.42512,
   -2.05863 2.88189 0.42704,
   -2.13723 2.88189 0.43284,
   -2.13765 2.88189 0.42706,
   -2.05906 2.88189 0.42126,
   -2.05901 2.88189 0.42319,
   -2.13780 2.88189 0.42126,
   -2.13780 2.88189 0.11811,
   -2.05906 2.88189 0.11811,
   -2.05906 3.11811 0.42126,
   -2.05901 3.11811 0.42319,
   -2.05887 3.11811 0.42512,
   -2.05863 3.11811 0.42704,
   -2.05830 3.11811 0.42894,
   -2.05788 3.11811 0.43083,
   -2.05736 3.11811 0.43269,
   -2.05675 3.11811 0.43452,
   -2.05606 3.11811 0.43633,
   -2.05528 3.11811 0.43809,
   -2.05441 3.11811 0.43982,
   -2.05345 3.11811 0.44150,
   -2.05242 3.11811 0.44313,
   -2.05131 3.11811 0.44471,
   -2.05012 3.11811 0.44624,
   -2.04886 3.11811 0.44770,
   -2.04752 3.11811 0.44910,
   -2.04612 3.11811 0.45043,
   -2.04466 3.11811 0.45169,
   -2.04314 3.11811 0.45288,
   -2.04156 3.11811 0.45399,
   -2.03993 3.11811 0.45503,
   -2.03824 3.11811 0.45598,
   -2.03652 3.11811 0.45685,
   -2.03475 3.11811 0.45763,
   -2.03295 3.11811 0.45833,
   -2.03111 3.11811 0.45893,
   -2.02925 3.11811 0.45945,
   -2.02737 3.11811 0.45987,
   -2.02546 3.11811 0.46020,
   -2.02354 3.11811 0.46044,
   -2.02162 3.11811 0.46058,
   -2.10720 3.11811 0.50058,
   -2.10320 3.11811 0.50478,
   -2.09900 3.11811 0.50877,
   -2.09461 3.11811 0.51256,
   -2.11099 3.11811 0.49619,
   -2.09004 3.11811 0.51613,
   -2.11455 3.11811 0.49162,
   -2.08530 3.11811 0.51946,
   -2.11789 3.11811 0.48688,
   -2.12099 3.11811 0.48198,
   -2.08041 3.11811 0.52257,
   -2.12385 3.11811 0.47694,
   -2.07536 3.11811 0.52542,
   -2.12646 3.11811 0.47176,
   -2.07018 3.11811 0.52803,
   -2.12880 3.11811 0.46646,
   -2.06488 3.11811 0.53038,
   -2.05948 3.11811 0.53247,
   -2.13089 3.11811 0.46105,
   -2.13271 3.11811 0.45555,
   -2.05397 3.11811 0.53428,
   -2.04838 3.11811 0.53583,
   -2.13426 3.11811 0.44996,
   -2.13553 3.11811 0.44430,
   -2.04273 3.11811 0.53710,
   -2.13652 3.11811 0.43859,
   -2.03702 3.11811 0.53809,
   -2.13723 3.11811 0.43284,
   -2.03126 3.11811 0.53880,
   -2.13765 3.11811 0.42706,
   -2.02548 3.11811 0.53923,
   -2.01969 3.11811 0.53937,
   -2.13780 3.11811 0.42126,
   -2.05906 3.11811 0.11811,
   -2.13780 3.11811 0.11811,
   -1.50000 3.11811 0.53937,
   -1.88583 2.87402 0.11811,
   -1.88583 3.12598 0.11811,
   -2.95276 3.12598 0.11811,
   -2.95276 2.87402 0.11811,
   -1.88583 2.87402 0.00000,
   -1.88583 3.12598 0.00000,
   -2.95276 3.12598 0.00000,
   -2.95276 2.87402 0.00000
  ] }
  coordIndex [
   0,1,2,-1,
   3,1,0,-1,
   0,2,4,-1,
   0,4,5,-1,
   6,5,7,-1,
   6,0,5,-1,
   8,7,9,-1,
   8,6,7,-1,
   10,8,9,-1,
   10,9,11,-1,
   12,11,13,-1,
   12,10,11,-1,
   14,13,15,-1,
   14,12,13,-1,
   16,15,17,-1,
   16,14,15,-1,
   18,17,19,-1,
   18,16,17,-1,
   20,19,21,-1,
   20,18,19,-1,
   22,21,23,-1,
   22,20,21,-1,
   24,23,25,-1,
   24,22,23,-1,
   26,25,27,-1,
   26,24,25,-1,
   28,27,29,-1,
   28,26,27,-1,
   30,29,31,-1,
   30,28,29,-1,
   32,31,33,-1,
   32,30,31,-1,
   34,33,35,-1,
   34,32,33,-1,
   36,34,35,-1,
   37,36,35,-1,
   38,36,37,-1,
   38,39,36,-1,
   40,39,38,-1,
   40,41,39,-1,
   42,41,40,-1,
   42,43,41,-1,
   44,43,42,-1,
   44,45,46,-1,
   44,46,43,-1,
   47,48,45,-1,
   47,45,44,-1,
   49,48,47,-1,
   50,51,48,-1,
   50,48,49,-1,
   52,53,51,-1,
   52,51,50,-1,
   54,55,53,-1,
   54,53,52,-1,
   56,57,55,-1,
   56,55,54,-1,
   58,59,57,-1,
   58,57,56,-1,
   60,61,59,-1,
   60,59,58,-1,
   62,63,64,-1,
   62,64,61,-1,
   62,61,60,-1,
   65,63,62,-1,
   66,63,65,-1,
   66,67,68,-1,
   66,68,63,-1,
   69,67,66,-1,
   70,67,69,-1,
   70,71,67,-1,
   68,67,72,-1,
   68,72,73,-1,
   63,73,74,-1,
   63,68,73,-1,
   64,74,75,-1,
   64,63,74,-1,
   61,75,76,-1,
   61,64,75,-1,
   59,76,77,-1,
   59,61,76,-1,
   57,77,78,-1,
   57,59,77,-1,
   55,78,79,-1,
   55,57,78,-1,
   53,79,80,-1,
   53,55,79,-1,
   51,53,80,-1,
   51,80,81,-1,
   48,81,82,-1,
   48,51,81,-1,
   48,82,83,-1,
   45,48,83,-1,
   46,83,84,-1,
   46,84,85,-1,
   46,45,83,-1,
   43,46,85,-1,
   41,85,86,-1,
   41,86,87,-1,
   41,43,85,-1,
   39,41,87,-1,
   36,87,88,-1,
   36,88,89,-1,
   36,39,87,-1,
   34,36,89,-1,
   32,89,90,-1,
   32,34,89,-1,
   30,90,91,-1,
   30,32,90,-1,
   28,91,92,-1,
   28,30,91,-1,
   26,92,93,-1,
   26,93,94,-1,
   26,28,92,-1,
   24,26,94,-1,
   22,94,95,-1,
   22,24,94,-1,
   20,95,96,-1,
   20,22,95,-1,
   18,96,97,-1,
   18,97,98,-1,
   18,20,96,-1,
   16,18,98,-1,
   14,98,99,-1,
   14,99,100,-1,
   14,16,98,-1,
   12,14,100,-1,
   10,100,101,-1,
   10,12,100,-1,
   8,101,102,-1,
   8,102,103,-1,
   8,10,101,-1,
   6,8,103,-1,
   0,103,3,-1,
   0,6,103,-1,
   87,104,105,-1,
   87,105,88,-1,
   89,105,106,-1,
   89,88,105,-1,
   90,89,106,-1,
   90,106,107,-1,
   86,104,87,-1,
   86,108,104,-1,
   91,90,107,-1,
   91,107,109,-1,
   85,108,86,-1,
   85,110,108,-1,
   92,109,111,-1,
   92,91,109,-1,
   84,110,85,-1,
   84,112,110,-1,
   83,112,84,-1,
   83,113,112,-1,
   93,111,114,-1,
   93,92,111,-1,
   82,113,83,-1,
   82,115,113,-1,
   94,114,116,-1,
   94,93,114,-1,
   81,115,82,-1,
   81,117,115,-1,
   95,116,118,-1,
   95,94,116,-1,
   80,119,117,-1,
   80,117,81,-1,
   96,118,120,-1,
   96,95,118,-1,
   97,120,121,-1,
   97,96,120,-1,
   79,119,80,-1,
   79,122,119,-1,
   78,122,79,-1,
   78,123,122,-1,
   98,97,121,-1,
   98,121,124,-1,
   99,124,125,-1,
   99,98,124,-1,
   77,126,123,-1,
   77,123,78,-1,
   76,127,126,-1,
   76,126,77,-1,
   100,125,128,-1,
   100,99,125,-1,
   75,129,127,-1,
   75,127,76,-1,
   101,100,128,-1,
   101,128,130,-1,
   74,131,129,-1,
   74,129,75,-1,
   102,130,132,-1,
   102,101,130,-1,
   73,133,131,-1,
   73,131,74,-1,
   103,102,132,-1,
   103,132,134,-1,
   3,103,134,-1,
   3,134,135,-1,
   72,136,133,-1,
   72,133,73,-1,
   137,136,72,-1,
   137,138,136,-1,
   1,135,139,-1,
   1,3,135,-1,
   4,1,139,-1,
   4,2,1,-1,
   137,72,71,-1,
   71,72,67,-1,
   140,141,71,-1,
   71,70,140,-1,
   141,137,71,-1,
   138,142,70,-1,
   70,142,143,-1,
   143,140,70,-1,
   141,142,137,-1,
   137,142,138,-1,
   136,70,69,-1,
   136,138,70,-1,
   69,66,136,-1,
   136,66,133,-1,
   133,65,131,-1,
   66,65,133,-1,
   131,62,129,-1,
   65,62,131,-1,
   129,60,127,-1,
   62,60,129,-1,
   127,58,126,-1,
   60,58,127,-1,
   126,56,123,-1,
   58,56,126,-1,
   123,54,122,-1,
   56,54,123,-1,
   54,52,122,-1,
   122,52,119,-1,
   52,50,119,-1,
   119,50,117,-1,
   50,49,117,-1,
   117,49,115,-1,
   49,47,115,-1,
   115,47,113,-1,
   47,44,113,-1,
   112,44,110,-1,
   113,44,112,-1,
   44,42,110,-1,
   42,40,110,-1,
   110,40,108,-1,
   40,38,108,-1,
   104,38,105,-1,
   108,38,104,-1,
   38,37,105,-1,
   37,35,105,-1,
   105,35,106,-1,
   35,33,106,-1,
   106,33,107,-1,
   107,31,109,-1,
   33,31,107,-1,
   109,29,111,-1,
   31,29,109,-1,
   29,27,111,-1,
   111,27,114,-1,
   114,25,116,-1,
   27,25,114,-1,
   25,23,116,-1,
   118,23,120,-1,
   116,23,118,-1,
   120,21,121,-1,
   23,21,120,-1,
   21,19,121,-1,
   124,17,125,-1,
   121,17,124,-1,
   19,17,121,-1,
   125,15,128,-1,
   17,15,125,-1,
   128,13,130,-1,
   15,13,128,-1,
   13,11,130,-1,
   130,9,132,-1,
   11,9,130,-1,
   132,7,134,-1,
   9,7,132,-1,
   134,5,135,-1,
   7,5,134,-1,
   139,5,4,-1,
   139,135,5,-1,
   140,144,145,-1,
   140,145,141,-1,
   146,142,145,-1,
   145,142,141,-1,
   143,147,144,-1,
   143,144,140,-1,
   147,143,146,-1,
   146,143,142,-1,
   146,144,147,-1,
   146,145,144,-1,
   148,149,150,-1,
   151,149,148,-1,
   148,150,152,-1,
   148,152,153,-1,
   154,153,155,-1,
   154,148,153,-1,
   156,155,157,-1,
   156,154,155,-1,
   158,156,157,-1,
   158,157,159,-1,
   160,159,161,-1,
   160,158,159,-1,
   162,161,163,-1,
   162,160,161,-1,
   164,163,165,-1,
   164,162,163,-1,
   166,165,167,-1,
   166,164,165,-1,
   168,167,169,-1,
   168,166,167,-1,
   170,169,171,-1,
   170,168,169,-1,
   172,171,173,-1,
   172,170,171,-1,
   174,173,175,-1,
   174,172,173,-1,
   176,175,177,-1,
   176,174,175,-1,
   178,177,179,-1,
   178,176,177,-1,
   180,179,181,-1,
   180,178,179,-1,
   182,181,183,-1,
   182,180,181,-1,
   184,182,183,-1,
   185,184,183,-1,
   186,184,185,-1,
   186,187,184,-1,
   188,187,186,-1,
   188,189,187,-1,
   190,189,188,-1,
   190,191,189,-1,
   192,191,190,-1,
   192,193,194,-1,
   192,194,191,-1,
   195,196,193,-1,
   195,193,192,-1,
   197,196,195,-1,
   198,199,196,-1,
   198,196,197,-1,
   200,201,199,-1,
   200,199,198,-1,
   202,203,201,-1,
   202,201,200,-1,
   204,205,203,-1,
   204,203,202,-1,
   206,207,205,-1,
   206,205,204,-1,
   208,209,207,-1,
   208,207,206,-1,
   210,211,212,-1,
   210,212,209,-1,
   210,209,208,-1,
   213,211,210,-1,
   214,211,213,-1,
   214,215,216,-1,
   214,216,211,-1,
   217,215,214,-1,
   218,215,217,-1,
   218,219,215,-1,
   216,215,220,-1,
   216,220,221,-1,
   211,221,222,-1,
   211,216,221,-1,
   212,222,223,-1,
   212,211,222,-1,
   209,223,224,-1,
   209,212,223,-1,
   207,224,225,-1,
   207,209,224,-1,
   205,225,226,-1,
   205,207,225,-1,
   203,226,227,-1,
   203,205,226,-1,
   201,227,228,-1,
   201,203,227,-1,
   199,201,228,-1,
   199,228,229,-1,
   196,229,230,-1,
   196,199,229,-1,
   196,230,231,-1,
   193,196,231,-1,
   194,231,232,-1,
   194,232,233,-1,
   194,193,231,-1,
   191,194,233,-1,
   189,233,234,-1,
   189,234,235,-1,
   189,191,233,-1,
   187,189,235,-1,
   184,235,236,-1,
   184,236,237,-1,
   184,187,235,-1,
   182,184,237,-1,
   180,237,238,-1,
   180,182,237,-1,
   178,238,239,-1,
   178,180,238,-1,
   176,239,240,-1,
   176,178,239,-1,
   174,240,241,-1,
   174,241,242,-1,
   174,176,240,-1,
   172,174,242,-1,
   170,242,243,-1,
   170,172,242,-1,
   168,243,244,-1,
   168,170,243,-1,
   166,244,245,-1,
   166,245,246,-1,
   166,168,244,-1,
   164,166,246,-1,
   162,246,247,-1,
   162,247,248,-1,
   162,164,246,-1,
   160,162,248,-1,
   158,248,249,-1,
   158,160,248,-1,
   156,249,250,-1,
   156,250,251,-1,
   156,158,249,-1,
   154,156,251,-1,
   148,251,151,-1,
   148,154,251,-1,
   235,252,253,-1,
   235,253,236,-1,
   237,253,254,-1,
   237,236,253,-1,
   238,237,254,-1,
   238,254,255,-1,
   234,252,235,-1,
   234,256,252,-1,
   239,238,255,-1,
   239,255,257,-1,
   233,256,234,-1,
   233,258,256,-1,
   240,257,259,-1,
   240,239,257,-1,
   232,258,233,-1,
   232,260,258,-1,
   231,260,232,-1,
   231,261,260,-1,
   241,259,262,-1,
   241,240,259,-1,
   230,261,231,-1,
   230,263,261,-1,
   242,262,264,-1,
   242,241,262,-1,
   229,263,230,-1,
   229,265,263,-1,
   243,264,266,-1,
   243,242,264,-1,
   228,267,265,-1,
   228,265,229,-1,
   244,266,268,-1,
   244,243,266,-1,
   245,268,269,-1,
   245,244,268,-1,
   227,267,228,-1,
   227,270,267,-1,
   226,270,227,-1,
   226,271,270,-1,
   246,245,269,-1,
   246,269,272,-1,
   247,272,273,-1,
   247,246,272,-1,
   225,274,271,-1,
   225,271,226,-1,
   224,275,274,-1,
   224,274,225,-1,
   248,273,276,-1,
   248,247,273,-1,
   223,277,275,-1,
   223,275,224,-1,
   249,248,276,-1,
   249,276,278,-1,
   222,279,277,-1,
   222,277,223,-1,
   250,278,280,-1,
   250,249,278,-1,
   221,281,279,-1,
   221,279,222,-1,
   251,250,280,-1,
   251,280,282,-1,
   151,251,282,-1,
   151,282,283,-1,
   220,284,281,-1,
   220,281,221,-1,
   285,284,220,-1,
   285,286,284,-1,
   149,283,287,-1,
   149,151,283,-1,
   152,149,287,-1,
   152,150,149,-1,
   285,220,219,-1,
   219,220,215,-1,
   219,218,288,-1,
   289,285,288,-1,
   288,285,219,-1,
   286,290,218,-1,
   286,291,290,-1,
   290,288,218,-1,
   289,291,285,-1,
   285,291,286,-1,
   284,218,217,-1,
   284,286,218,-1,
   217,214,284,-1,
   284,214,281,-1,
   281,213,279,-1,
   214,213,281,-1,
   279,210,277,-1,
   213,210,279,-1,
   277,208,275,-1,
   210,208,277,-1,
   275,206,274,-1,
   208,206,275,-1,
   274,204,271,-1,
   206,204,274,-1,
   271,202,270,-1,
   204,202,271,-1,
   202,200,270,-1,
   270,200,267,-1,
   200,198,267,-1,
   267,198,265,-1,
   198,197,265,-1,
   265,197,263,-1,
   197,195,263,-1,
   263,195,261,-1,
   195,192,261,-1,
   260,192,258,-1,
   261,192,260,-1,
   192,190,258,-1,
   190,188,258,-1,
   258,188,256,-1,
   188,186,256,-1,
   252,186,253,-1,
   256,186,252,-1,
   186,185,253,-1,
   185,183,253,-1,
   253,183,254,-1,
   183,181,254,-1,
   254,181,255,-1,
   255,179,257,-1,
   181,179,255,-1,
   257,177,259,-1,
   179,177,257,-1,
   177,175,259,-1,
   259,175,262,-1,
   262,173,264,-1,
   175,173,262,-1,
   173,171,264,-1,
   266,171,268,-1,
   264,171,266,-1,
   268,169,269,-1,
   171,169,268,-1,
   169,167,269,-1,
   272,165,273,-1,
   269,165,272,-1,
   167,165,269,-1,
   273,163,276,-1,
   165,163,273,-1,
   276,161,278,-1,
   163,161,276,-1,
   161,159,278,-1,
   278,157,280,-1,
   159,157,278,-1,
   280,155,282,-1,
   157,155,280,-1,
   282,153,283,-1,
   155,153,282,-1,
   287,153,152,-1,
   287,283,153,-1,
   288,292,293,-1,
   288,293,289,-1,
   294,291,293,-1,
   293,291,289,-1,
   290,295,292,-1,
   290,292,288,-1,
   295,290,294,-1,
   294,290,291,-1,
   294,292,295,-1,
   294,293,292,-1,
   296,297,298,-1,
   299,297,296,-1,
   296,298,300,-1,
   296,300,301,-1,
   302,301,303,-1,
   302,296,301,-1,
   304,303,305,-1,
   304,302,303,-1,
   306,304,305,-1,
   306,305,307,-1,
   308,307,309,-1,
   308,306,307,-1,
   310,309,311,-1,
   310,308,309,-1,
   312,311,313,-1,
   312,310,311,-1,
   314,313,315,-1,
   314,312,313,-1,
   316,315,317,-1,
   316,314,315,-1,
   318,317,319,-1,
   318,316,317,-1,
   320,319,321,-1,
   320,318,319,-1,
   322,321,323,-1,
   322,320,321,-1,
   324,323,325,-1,
   324,322,323,-1,
   326,325,327,-1,
   326,324,325,-1,
   328,327,329,-1,
   328,326,327,-1,
   330,329,331,-1,
   330,328,329,-1,
   332,330,331,-1,
   333,332,331,-1,
   334,332,333,-1,
   334,335,332,-1,
   336,335,334,-1,
   336,337,335,-1,
   338,337,336,-1,
   338,339,337,-1,
   340,339,338,-1,
   340,341,342,-1,
   340,342,339,-1,
   343,344,341,-1,
   343,341,340,-1,
   345,344,343,-1,
   346,347,344,-1,
   346,344,345,-1,
   348,349,347,-1,
   348,347,346,-1,
   350,351,349,-1,
   350,349,348,-1,
   352,353,351,-1,
   352,351,350,-1,
   354,355,353,-1,
   354,353,352,-1,
   356,357,355,-1,
   356,355,354,-1,
   358,359,360,-1,
   358,360,357,-1,
   358,357,356,-1,
   361,359,358,-1,
   362,359,361,-1,
   362,363,364,-1,
   362,364,359,-1,
   365,363,362,-1,
   366,363,365,-1,
   366,367,363,-1,
   364,363,368,-1,
   364,368,369,-1,
   359,369,370,-1,
   359,364,369,-1,
   360,370,371,-1,
   360,359,370,-1,
   357,371,372,-1,
   357,360,371,-1,
   355,372,373,-1,
   355,357,372,-1,
   353,373,374,-1,
   353,355,373,-1,
   351,374,375,-1,
   351,353,374,-1,
   349,375,376,-1,
   349,351,375,-1,
   347,349,376,-1,
   347,376,377,-1,
   344,377,378,-1,
   344,347,377,-1,
   344,378,379,-1,
   341,344,379,-1,
   342,379,380,-1,
   342,341,379,-1,
   339,380,381,-1,
   339,342,380,-1,
   337,381,382,-1,
   337,339,381,-1,
   335,382,383,-1,
   335,337,382,-1,
   332,383,384,-1,
   332,335,383,-1,
   330,384,385,-1,
   330,332,384,-1,
   328,385,386,-1,
   328,330,385,-1,
   326,386,387,-1,
   326,387,388,-1,
   326,328,386,-1,
   324,326,388,-1,
   322,388,389,-1,
   322,324,388,-1,
   320,389,390,-1,
   320,322,389,-1,
   318,390,391,-1,
   318,391,392,-1,
   318,320,390,-1,
   316,392,393,-1,
   316,318,392,-1,
   314,316,393,-1,
   312,393,394,-1,
   312,314,393,-1,
   310,394,395,-1,
   310,312,394,-1,
   308,395,396,-1,
   308,310,395,-1,
   306,396,397,-1,
   306,308,396,-1,
   304,397,398,-1,
   304,306,397,-1,
   302,398,399,-1,
   302,304,398,-1,
   296,399,299,-1,
   296,302,399,-1,
   383,400,401,-1,
   383,401,384,-1,
   385,401,402,-1,
   385,384,401,-1,
   386,385,402,-1,
   386,402,403,-1,
   382,400,383,-1,
   382,404,400,-1,
   387,386,403,-1,
   387,403,405,-1,
   381,404,382,-1,
   381,406,404,-1,
   388,405,407,-1,
   388,387,405,-1,
   380,406,381,-1,
   380,408,406,-1,
   379,408,380,-1,
   379,409,408,-1,
   389,407,410,-1,
   389,388,407,-1,
   378,409,379,-1,
   378,411,409,-1,
   390,410,412,-1,
   390,389,410,-1,
   377,411,378,-1,
   377,413,411,-1,
   391,412,414,-1,
   391,390,412,-1,
   376,415,413,-1,
   376,413,377,-1,
   392,414,416,-1,
   392,391,414,-1,
   393,416,417,-1,
   393,392,416,-1,
   375,415,376,-1,
   375,418,415,-1,
   374,418,375,-1,
   374,419,418,-1,
   394,393,417,-1,
   394,417,420,-1,
   395,420,421,-1,
   395,394,420,-1,
   373,422,419,-1,
   373,419,374,-1,
   372,423,422,-1,
   372,422,373,-1,
   396,421,424,-1,
   396,395,421,-1,
   371,425,423,-1,
   371,423,372,-1,
   397,396,424,-1,
   397,424,426,-1,
   370,427,425,-1,
   370,425,371,-1,
   398,426,428,-1,
   398,397,426,-1,
   369,429,427,-1,
   369,427,370,-1,
   399,398,428,-1,
   399,428,430,-1,
   299,399,430,-1,
   299,430,431,-1,
   368,432,429,-1,
   368,429,369,-1,
   433,432,368,-1,
   433,434,432,-1,
   297,431,435,-1,
   297,299,431,-1,
   300,297,435,-1,
   300,298,297,-1,
   433,368,367,-1,
   367,368,363,-1,
   367,366,436,-1,
   437,433,436,-1,
   436,433,367,-1,
   434,438,366,-1,
   366,438,439,-1,
   439,436,366,-1,
   437,438,433,-1,
   433,438,434,-1,
   432,366,365,-1,
   432,434,366,-1,
   365,362,432,-1,
   432,362,429,-1,
   429,361,427,-1,
   362,361,429,-1,
   427,358,425,-1,
   361,358,427,-1,
   425,356,423,-1,
   358,356,425,-1,
   423,354,422,-1,
   356,354,423,-1,
   422,352,419,-1,
   354,352,422,-1,
   419,350,418,-1,
   352,350,419,-1,
   350,348,418,-1,
   418,348,415,-1,
   348,346,415,-1,
   415,346,413,-1,
   346,345,413,-1,
   413,345,411,-1,
   345,343,411,-1,
   411,343,409,-1,
   343,340,409,-1,
   409,340,408,-1,
   340,338,408,-1,
   406,338,404,-1,
   408,338,406,-1,
   338,336,404,-1,
   404,336,400,-1,
   336,334,400,-1,
   400,334,401,-1,
   334,333,401,-1,
   333,331,401,-1,
   401,331,402,-1,
   331,329,402,-1,
   402,329,403,-1,
   405,327,407,-1,
   403,327,405,-1,
   329,327,403,-1,
   327,325,407,-1,
   407,325,410,-1,
   325,323,410,-1,
   410,321,412,-1,
   323,321,410,-1,
   412,319,414,-1,
   321,319,412,-1,
   414,317,416,-1,
   319,317,414,-1,
   416,315,417,-1,
   317,315,416,-1,
   420,313,421,-1,
   417,313,420,-1,
   315,313,417,-1,
   313,311,421,-1,
   424,309,426,-1,
   421,309,424,-1,
   311,309,421,-1,
   309,307,426,-1,
   426,305,428,-1,
   307,305,426,-1,
   428,303,430,-1,
   305,303,428,-1,
   430,301,431,-1,
   303,301,430,-1,
   435,301,300,-1,
   435,431,301,-1,
   436,440,441,-1,
   436,441,437,-1,
   442,438,441,-1,
   441,438,437,-1,
   439,443,440,-1,
   439,440,436,-1,
   443,439,442,-1,
   442,439,438,-1,
   442,440,443,-1,
   442,441,440,-1,
   444,445,446,-1,
   447,445,444,-1,
   444,446,448,-1,
   444,448,449,-1,
   450,449,451,-1,
   450,444,449,-1,
   452,451,453,-1,
   452,450,451,-1,
   454,452,453,-1,
   454,453,455,-1,
   456,455,457,-1,
   456,454,455,-1,
   458,457,459,-1,
   458,456,457,-1,
   460,459,461,-1,
   460,458,459,-1,
   462,461,463,-1,
   462,460,461,-1,
   464,463,465,-1,
   464,462,463,-1,
   466,465,467,-1,
   466,464,465,-1,
   468,467,469,-1,
   468,466,467,-1,
   470,469,471,-1,
   470,468,469,-1,
   472,471,473,-1,
   472,470,471,-1,
   474,473,475,-1,
   474,472,473,-1,
   476,475,477,-1,
   476,474,475,-1,
   478,477,479,-1,
   478,476,477,-1,
   480,478,479,-1,
   481,480,479,-1,
   482,480,481,-1,
   482,483,480,-1,
   484,483,482,-1,
   484,485,483,-1,
   486,485,484,-1,
   486,487,485,-1,
   488,487,486,-1,
   488,489,490,-1,
   488,490,487,-1,
   491,492,489,-1,
   491,489,488,-1,
   493,492,491,-1,
   494,495,492,-1,
   494,492,493,-1,
   496,497,495,-1,
   496,495,494,-1,
   498,499,497,-1,
   498,497,496,-1,
   500,501,499,-1,
   500,499,498,-1,
   502,503,501,-1,
   502,501,500,-1,
   504,505,503,-1,
   504,503,502,-1,
   506,507,508,-1,
   506,508,505,-1,
   506,505,504,-1,
   509,507,506,-1,
   510,507,509,-1,
   510,511,512,-1,
   510,512,507,-1,
   513,511,510,-1,
   514,511,513,-1,
   514,515,511,-1,
   512,511,516,-1,
   512,516,517,-1,
   507,517,518,-1,
   507,512,517,-1,
   508,518,519,-1,
   508,507,518,-1,
   505,519,520,-1,
   505,508,519,-1,
   503,520,521,-1,
   503,505,520,-1,
   501,521,522,-1,
   501,503,521,-1,
   499,522,523,-1,
   499,501,522,-1,
   497,523,524,-1,
   497,499,523,-1,
   495,497,524,-1,
   495,524,525,-1,
   492,525,526,-1,
   492,495,525,-1,
   492,526,527,-1,
   489,492,527,-1,
   490,527,528,-1,
   490,528,529,-1,
   490,489,527,-1,
   487,490,529,-1,
   485,529,530,-1,
   485,530,531,-1,
   485,487,529,-1,
   483,485,531,-1,
   480,531,532,-1,
   480,532,533,-1,
   480,483,531,-1,
   478,480,533,-1,
   476,533,534,-1,
   476,478,533,-1,
   474,534,535,-1,
   474,476,534,-1,
   472,535,536,-1,
   472,474,535,-1,
   470,536,537,-1,
   470,537,538,-1,
   470,472,536,-1,
   468,470,538,-1,
   466,538,539,-1,
   466,468,538,-1,
   464,539,540,-1,
   464,466,539,-1,
   462,540,541,-1,
   462,541,542,-1,
   462,464,540,-1,
   460,462,542,-1,
   458,542,543,-1,
   458,543,544,-1,
   458,460,542,-1,
   456,458,544,-1,
   454,544,545,-1,
   454,456,544,-1,
   452,545,546,-1,
   452,546,547,-1,
   452,454,545,-1,
   450,547,447,-1,
   450,452,547,-1,
   444,450,447,-1,
   531,548,549,-1,
   531,549,532,-1,
   533,549,550,-1,
   533,532,549,-1,
   534,533,550,-1,
   534,550,551,-1,
   530,548,531,-1,
   530,552,548,-1,
   535,534,551,-1,
   535,551,553,-1,
   529,552,530,-1,
   529,554,552,-1,
   536,553,555,-1,
   536,535,553,-1,
   528,554,529,-1,
   528,556,554,-1,
   527,556,528,-1,
   527,557,556,-1,
   537,555,558,-1,
   537,536,555,-1,
   526,557,527,-1,
   526,559,557,-1,
   538,558,560,-1,
   538,537,558,-1,
   525,559,526,-1,
   525,561,559,-1,
   539,560,562,-1,
   539,538,560,-1,
   524,563,561,-1,
   524,561,525,-1,
   540,562,564,-1,
   540,539,562,-1,
   541,564,565,-1,
   541,540,564,-1,
   523,563,524,-1,
   523,566,563,-1,
   522,566,523,-1,
   522,567,566,-1,
   542,541,565,-1,
   542,565,568,-1,
   543,568,569,-1,
   543,542,568,-1,
   521,570,567,-1,
   521,567,522,-1,
   520,571,570,-1,
   520,570,521,-1,
   544,569,572,-1,
   544,543,569,-1,
   519,573,571,-1,
   519,571,520,-1,
   545,544,572,-1,
   545,572,574,-1,
   518,575,573,-1,
   518,573,519,-1,
   546,574,576,-1,
   546,545,574,-1,
   517,577,575,-1,
   517,575,518,-1,
   547,546,576,-1,
   547,576,578,-1,
   447,547,578,-1,
   447,578,579,-1,
   516,580,577,-1,
   516,577,517,-1,
   581,580,516,-1,
   581,582,580,-1,
   445,579,583,-1,
   445,447,579,-1,
   448,445,583,-1,
   448,446,445,-1,
   581,516,515,-1,
   515,516,511,-1,
   515,514,584,-1,
   585,581,584,-1,
   584,581,515,-1,
   582,586,514,-1,
   514,586,587,-1,
   587,584,514,-1,
   585,586,581,-1,
   581,586,582,-1,
   580,514,513,-1,
   580,582,514,-1,
   513,510,580,-1,
   580,510,577,-1,
   577,509,575,-1,
   510,509,577,-1,
   575,506,573,-1,
   509,506,575,-1,
   573,504,571,-1,
   506,504,573,-1,
   571,502,570,-1,
   504,502,571,-1,
   570,500,567,-1,
   502,500,570,-1,
   567,498,566,-1,
   500,498,567,-1,
   498,496,566,-1,
   566,496,563,-1,
   496,494,563,-1,
   563,494,561,-1,
   494,493,561,-1,
   561,493,559,-1,
   493,491,559,-1,
   559,491,557,-1,
   491,488,557,-1,
   556,488,554,-1,
   557,488,556,-1,
   488,486,554,-1,
   486,484,554,-1,
   554,484,552,-1,
   484,482,552,-1,
   548,482,549,-1,
   552,482,548,-1,
   482,481,549,-1,
   481,479,549,-1,
   549,479,550,-1,
   479,477,550,-1,
   550,477,551,-1,
   551,475,553,-1,
   477,475,551,-1,
   553,473,555,-1,
   475,473,553,-1,
   473,471,555,-1,
   555,471,558,-1,
   558,469,560,-1,
   471,469,558,-1,
   469,467,560,-1,
   562,467,564,-1,
   560,467,562,-1,
   564,465,565,-1,
   467,465,564,-1,
   465,463,565,-1,
   568,461,569,-1,
   565,461,568,-1,
   463,461,565,-1,
   569,459,572,-1,
   461,459,569,-1,
   572,457,574,-1,
   459,457,572,-1,
   457,455,574,-1,
   574,453,576,-1,
   455,453,574,-1,
   576,451,578,-1,
   453,451,576,-1,
   578,449,579,-1,
   451,449,578,-1,
   583,449,448,-1,
   583,579,449,-1,
   584,588,589,-1,
   584,589,585,-1,
   590,586,589,-1,
   589,586,585,-1,
   587,591,588,-1,
   587,588,584,-1,
   591,587,590,-1,
   590,587,586,-1,
   590,588,591,-1,
   590,589,588,-1,
   592,593,594,-1,
   595,593,592,-1,
   592,594,596,-1,
   592,596,597,-1,
   598,597,599,-1,
   598,592,597,-1,
   600,599,601,-1,
   600,598,599,-1,
   602,600,601,-1,
   602,601,603,-1,
   604,603,605,-1,
   604,602,603,-1,
   606,605,607,-1,
   606,604,605,-1,
   608,607,609,-1,
   608,606,607,-1,
   610,609,611,-1,
   610,608,609,-1,
   612,611,613,-1,
   612,610,611,-1,
   614,613,615,-1,
   614,612,613,-1,
   616,615,617,-1,
   616,614,615,-1,
   618,617,619,-1,
   618,616,617,-1,
   620,619,621,-1,
   620,618,619,-1,
   622,621,623,-1,
   622,620,621,-1,
   624,623,625,-1,
   624,622,623,-1,
   626,625,627,-1,
   626,624,625,-1,
   628,626,627,-1,
   629,628,627,-1,
   630,628,629,-1,
   630,631,628,-1,
   632,631,630,-1,
   632,633,631,-1,
   634,633,632,-1,
   634,635,633,-1,
   636,635,634,-1,
   636,637,638,-1,
   636,638,635,-1,
   639,640,637,-1,
   639,637,636,-1,
   641,640,639,-1,
   642,643,640,-1,
   642,640,641,-1,
   644,645,643,-1,
   644,643,642,-1,
   646,647,645,-1,
   646,645,644,-1,
   648,649,647,-1,
   648,647,646,-1,
   650,651,649,-1,
   650,649,648,-1,
   652,653,651,-1,
   652,651,650,-1,
   654,655,656,-1,
   654,656,653,-1,
   654,653,652,-1,
   657,655,654,-1,
   658,655,657,-1,
   658,659,660,-1,
   658,660,655,-1,
   661,659,658,-1,
   662,659,661,-1,
   662,663,659,-1,
   660,659,664,-1,
   660,664,665,-1,
   655,665,666,-1,
   655,660,665,-1,
   656,666,667,-1,
   656,655,666,-1,
   653,667,668,-1,
   653,656,667,-1,
   651,668,669,-1,
   651,653,668,-1,
   649,669,670,-1,
   649,651,669,-1,
   647,670,671,-1,
   647,649,670,-1,
   645,671,672,-1,
   645,647,671,-1,
   643,645,672,-1,
   643,672,673,-1,
   640,673,674,-1,
   640,643,673,-1,
   640,674,675,-1,
   637,640,675,-1,
   638,675,676,-1,
   638,676,677,-1,
   638,637,675,-1,
   635,638,677,-1,
   633,677,678,-1,
   633,678,679,-1,
   633,635,677,-1,
   631,633,679,-1,
   628,679,680,-1,
   628,680,681,-1,
   628,631,679,-1,
   626,628,681,-1,
   624,681,682,-1,
   624,626,681,-1,
   622,682,683,-1,
   622,624,682,-1,
   620,683,684,-1,
   620,622,683,-1,
   618,684,685,-1,
   618,685,686,-1,
   618,620,684,-1,
   616,618,686,-1,
   614,686,687,-1,
   614,616,686,-1,
   612,687,688,-1,
   612,614,687,-1,
   610,688,689,-1,
   610,689,690,-1,
   610,612,688,-1,
   608,610,690,-1,
   606,690,691,-1,
   606,691,692,-1,
   606,608,690,-1,
   604,606,692,-1,
   602,692,693,-1,
   602,604,692,-1,
   600,693,694,-1,
   600,694,695,-1,
   600,602,693,-1,
   598,695,595,-1,
   598,600,695,-1,
   592,598,595,-1,
   679,696,697,-1,
   679,697,680,-1,
   681,697,698,-1,
   681,680,697,-1,
   682,681,698,-1,
   682,698,699,-1,
   678,696,679,-1,
   678,700,696,-1,
   683,682,699,-1,
   683,699,701,-1,
   677,700,678,-1,
   677,702,700,-1,
   684,701,703,-1,
   684,683,701,-1,
   676,702,677,-1,
   676,704,702,-1,
   675,704,676,-1,
   675,705,704,-1,
   685,703,706,-1,
   685,684,703,-1,
   674,705,675,-1,
   674,707,705,-1,
   686,706,708,-1,
   686,685,706,-1,
   673,707,674,-1,
   673,709,707,-1,
   687,708,710,-1,
   687,686,708,-1,
   672,711,709,-1,
   672,709,673,-1,
   688,710,712,-1,
   688,687,710,-1,
   689,712,713,-1,
   689,688,712,-1,
   671,711,672,-1,
   671,714,711,-1,
   670,714,671,-1,
   670,715,714,-1,
   690,689,713,-1,
   690,713,716,-1,
   691,716,717,-1,
   691,690,716,-1,
   669,718,715,-1,
   669,715,670,-1,
   668,719,718,-1,
   668,718,669,-1,
   692,717,720,-1,
   692,691,717,-1,
   667,721,719,-1,
   667,719,668,-1,
   693,692,720,-1,
   693,720,722,-1,
   666,723,721,-1,
   666,721,667,-1,
   694,722,724,-1,
   694,693,722,-1,
   665,725,723,-1,
   665,723,666,-1,
   695,694,724,-1,
   695,724,726,-1,
   595,695,726,-1,
   595,726,727,-1,
   664,728,725,-1,
   664,725,665,-1,
   729,728,664,-1,
   729,730,728,-1,
   593,727,731,-1,
   593,595,727,-1,
   596,593,731,-1,
   596,594,593,-1,
   729,664,663,-1,
   663,664,659,-1,
   663,662,732,-1,
   733,729,732,-1,
   732,729,663,-1,
   730,734,662,-1,
   662,734,735,-1,
   735,732,662,-1,
   733,734,729,-1,
   729,734,730,-1,
   728,662,661,-1,
   728,730,662,-1,
   661,658,728,-1,
   728,658,725,-1,
   725,657,723,-1,
   658,657,725,-1,
   723,654,721,-1,
   657,654,723,-1,
   721,652,719,-1,
   654,652,721,-1,
   719,650,718,-1,
   652,650,719,-1,
   718,648,715,-1,
   650,648,718,-1,
   715,646,714,-1,
   648,646,715,-1,
   646,644,714,-1,
   714,644,711,-1,
   644,642,711,-1,
   711,642,709,-1,
   642,641,709,-1,
   709,641,707,-1,
   641,639,707,-1,
   707,639,705,-1,
   639,636,705,-1,
   704,636,702,-1,
   705,636,704,-1,
   636,634,702,-1,
   634,632,702,-1,
   702,632,700,-1,
   632,630,700,-1,
   696,630,697,-1,
   700,630,696,-1,
   630,629,697,-1,
   629,627,697,-1,
   697,627,698,-1,
   627,625,698,-1,
   698,625,699,-1,
   699,623,701,-1,
   625,623,699,-1,
   701,621,703,-1,
   623,621,701,-1,
   621,619,703,-1,
   703,619,706,-1,
   706,617,708,-1,
   619,617,706,-1,
   617,615,708,-1,
   710,615,712,-1,
   708,615,710,-1,
   712,613,713,-1,
   615,613,712,-1,
   613,611,713,-1,
   716,609,717,-1,
   713,609,716,-1,
   611,609,713,-1,
   717,607,720,-1,
   609,607,717,-1,
   720,605,722,-1,
   607,605,720,-1,
   605,603,722,-1,
   722,601,724,-1,
   603,601,722,-1,
   724,599,726,-1,
   601,599,724,-1,
   726,597,727,-1,
   599,597,726,-1,
   731,597,596,-1,
   731,727,597,-1,
   732,736,737,-1,
   732,737,733,-1,
   738,734,737,-1,
   737,734,733,-1,
   735,739,736,-1,
   735,736,732,-1,
   739,735,738,-1,
   738,735,734,-1,
   738,736,739,-1,
   738,737,736,-1,
   740,741,742,-1,
   743,741,740,-1,
   740,742,744,-1,
   740,744,745,-1,
   746,745,747,-1,
   746,740,745,-1,
   748,747,749,-1,
   748,746,747,-1,
   750,748,749,-1,
   750,749,751,-1,
   752,751,753,-1,
   752,750,751,-1,
   754,753,755,-1,
   754,752,753,-1,
   756,755,757,-1,
   756,754,755,-1,
   758,757,759,-1,
   758,756,757,-1,
   760,759,761,-1,
   760,758,759,-1,
   762,761,763,-1,
   762,760,761,-1,
   764,763,765,-1,
   764,762,763,-1,
   766,765,767,-1,
   766,764,765,-1,
   768,767,769,-1,
   768,766,767,-1,
   770,769,771,-1,
   770,768,769,-1,
   772,771,773,-1,
   772,770,771,-1,
   774,773,775,-1,
   774,772,773,-1,
   776,774,775,-1,
   777,776,775,-1,
   778,776,777,-1,
   778,779,776,-1,
   780,779,778,-1,
   780,781,779,-1,
   782,781,780,-1,
   782,783,781,-1,
   784,783,782,-1,
   784,785,786,-1,
   784,786,783,-1,
   787,788,785,-1,
   787,785,784,-1,
   789,788,787,-1,
   790,791,788,-1,
   790,788,789,-1,
   792,793,791,-1,
   792,791,790,-1,
   794,795,793,-1,
   794,793,792,-1,
   796,797,795,-1,
   796,795,794,-1,
   798,799,797,-1,
   798,797,796,-1,
   800,801,799,-1,
   800,799,798,-1,
   802,803,804,-1,
   802,804,801,-1,
   802,801,800,-1,
   805,803,802,-1,
   806,803,805,-1,
   806,807,808,-1,
   806,808,803,-1,
   809,807,806,-1,
   810,807,809,-1,
   810,811,807,-1,
   808,807,812,-1,
   808,812,813,-1,
   803,813,814,-1,
   803,808,813,-1,
   804,814,815,-1,
   804,803,814,-1,
   801,815,816,-1,
   801,804,815,-1,
   799,816,817,-1,
   799,801,816,-1,
   797,817,818,-1,
   797,799,817,-1,
   795,818,819,-1,
   795,797,818,-1,
   793,819,820,-1,
   793,795,819,-1,
   791,793,820,-1,
   791,820,821,-1,
   788,821,822,-1,
   788,791,821,-1,
   788,822,823,-1,
   785,788,823,-1,
   786,823,824,-1,
   786,824,825,-1,
   786,785,823,-1,
   783,786,825,-1,
   781,825,826,-1,
   781,826,827,-1,
   781,783,825,-1,
   779,781,827,-1,
   776,827,828,-1,
   776,828,829,-1,
   776,779,827,-1,
   774,776,829,-1,
   772,829,830,-1,
   772,774,829,-1,
   770,830,831,-1,
   770,772,830,-1,
   768,831,832,-1,
   768,770,831,-1,
   766,832,833,-1,
   766,833,834,-1,
   766,768,832,-1,
   764,766,834,-1,
   762,834,835,-1,
   762,764,834,-1,
   760,835,836,-1,
   760,762,835,-1,
   758,836,837,-1,
   758,837,838,-1,
   758,760,836,-1,
   756,758,838,-1,
   754,838,839,-1,
   754,839,840,-1,
   754,756,838,-1,
   752,754,840,-1,
   750,840,841,-1,
   750,752,840,-1,
   748,841,842,-1,
   748,842,843,-1,
   748,750,841,-1,
   746,748,843,-1,
   740,843,743,-1,
   740,746,843,-1,
   827,844,845,-1,
   827,845,828,-1,
   829,845,846,-1,
   829,828,845,-1,
   830,829,846,-1,
   830,846,847,-1,
   826,844,827,-1,
   826,848,844,-1,
   831,830,847,-1,
   831,847,849,-1,
   825,848,826,-1,
   825,850,848,-1,
   832,849,851,-1,
   832,831,849,-1,
   824,850,825,-1,
   824,852,850,-1,
   823,852,824,-1,
   823,853,852,-1,
   833,851,854,-1,
   833,832,851,-1,
   822,853,823,-1,
   822,855,853,-1,
   834,854,856,-1,
   834,833,854,-1,
   821,855,822,-1,
   821,857,855,-1,
   835,856,858,-1,
   835,834,856,-1,
   820,859,857,-1,
   820,857,821,-1,
   836,858,860,-1,
   836,835,858,-1,
   837,860,861,-1,
   837,836,860,-1,
   819,859,820,-1,
   819,862,859,-1,
   818,862,819,-1,
   818,863,862,-1,
   838,837,861,-1,
   838,861,864,-1,
   839,864,865,-1,
   839,838,864,-1,
   817,866,863,-1,
   817,863,818,-1,
   816,867,866,-1,
   816,866,817,-1,
   840,865,868,-1,
   840,839,865,-1,
   815,869,867,-1,
   815,867,816,-1,
   841,840,868,-1,
   841,868,870,-1,
   814,871,869,-1,
   814,869,815,-1,
   842,870,872,-1,
   842,841,870,-1,
   813,873,871,-1,
   813,871,814,-1,
   843,842,872,-1,
   843,872,874,-1,
   743,843,874,-1,
   743,874,875,-1,
   812,876,873,-1,
   812,873,813,-1,
   877,876,812,-1,
   877,878,876,-1,
   741,875,879,-1,
   741,743,875,-1,
   744,741,879,-1,
   744,742,741,-1,
   877,812,811,-1,
   811,812,807,-1,
   811,810,880,-1,
   881,877,880,-1,
   880,877,811,-1,
   878,882,810,-1,
   810,882,883,-1,
   883,880,810,-1,
   881,882,877,-1,
   877,882,878,-1,
   876,810,809,-1,
   876,878,810,-1,
   809,806,876,-1,
   876,806,873,-1,
   873,805,871,-1,
   806,805,873,-1,
   871,802,869,-1,
   805,802,871,-1,
   869,800,867,-1,
   802,800,869,-1,
   867,798,866,-1,
   800,798,867,-1,
   866,796,863,-1,
   798,796,866,-1,
   863,794,862,-1,
   796,794,863,-1,
   794,792,862,-1,
   862,792,859,-1,
   792,790,859,-1,
   859,790,857,-1,
   790,789,857,-1,
   857,789,855,-1,
   789,787,855,-1,
   855,787,853,-1,
   787,784,853,-1,
   852,784,850,-1,
   853,784,852,-1,
   784,782,850,-1,
   782,780,850,-1,
   850,780,848,-1,
   780,778,848,-1,
   844,778,845,-1,
   848,778,844,-1,
   778,777,845,-1,
   777,775,845,-1,
   845,775,846,-1,
   775,773,846,-1,
   846,773,847,-1,
   847,771,849,-1,
   773,771,847,-1,
   849,769,851,-1,
   771,769,849,-1,
   769,767,851,-1,
   851,767,854,-1,
   854,765,856,-1,
   767,765,854,-1,
   765,763,856,-1,
   858,763,860,-1,
   856,763,858,-1,
   860,761,861,-1,
   763,761,860,-1,
   761,759,861,-1,
   864,757,865,-1,
   861,757,864,-1,
   759,757,861,-1,
   865,755,868,-1,
   757,755,865,-1,
   868,753,870,-1,
   755,753,868,-1,
   753,751,870,-1,
   870,749,872,-1,
   751,749,870,-1,
   872,747,874,-1,
   749,747,872,-1,
   874,745,875,-1,
   747,745,874,-1,
   879,745,744,-1,
   879,875,745,-1,
   880,884,885,-1,
   880,885,881,-1,
   886,882,885,-1,
   885,882,881,-1,
   883,887,884,-1,
   883,884,880,-1,
   887,883,886,-1,
   886,883,882,-1,
   886,884,887,-1,
   886,885,884,-1,
   888,889,890,-1,
   891,889,888,-1,
   888,890,892,-1,
   888,892,893,-1,
   894,893,895,-1,
   894,888,893,-1,
   896,895,897,-1,
   896,894,895,-1,
   898,896,897,-1,
   898,897,899,-1,
   900,899,901,-1,
   900,898,899,-1,
   902,901,903,-1,
   902,900,901,-1,
   904,903,905,-1,
   904,902,903,-1,
   906,905,907,-1,
   906,904,905,-1,
   908,907,909,-1,
   908,906,907,-1,
   910,909,911,-1,
   910,908,909,-1,
   912,911,913,-1,
   912,910,911,-1,
   914,913,915,-1,
   914,912,913,-1,
   916,915,917,-1,
   916,914,915,-1,
   918,917,919,-1,
   918,916,917,-1,
   920,919,921,-1,
   920,918,919,-1,
   922,921,923,-1,
   922,920,921,-1,
   924,922,923,-1,
   925,924,923,-1,
   926,924,925,-1,
   926,927,924,-1,
   928,927,926,-1,
   928,929,927,-1,
   930,929,928,-1,
   930,931,929,-1,
   932,931,930,-1,
   932,933,934,-1,
   932,934,931,-1,
   935,936,933,-1,
   935,933,932,-1,
   937,936,935,-1,
   938,939,936,-1,
   938,936,937,-1,
   940,941,939,-1,
   940,939,938,-1,
   942,943,941,-1,
   942,941,940,-1,
   944,945,943,-1,
   944,943,942,-1,
   946,947,945,-1,
   946,945,944,-1,
   948,949,947,-1,
   948,947,946,-1,
   950,951,952,-1,
   950,952,949,-1,
   950,949,948,-1,
   953,951,950,-1,
   954,951,953,-1,
   954,955,956,-1,
   954,956,951,-1,
   957,955,954,-1,
   958,955,957,-1,
   958,959,955,-1,
   956,955,960,-1,
   956,960,961,-1,
   951,961,962,-1,
   951,956,961,-1,
   952,962,963,-1,
   952,951,962,-1,
   949,963,964,-1,
   949,952,963,-1,
   947,964,965,-1,
   947,949,964,-1,
   945,965,966,-1,
   945,947,965,-1,
   943,966,967,-1,
   943,945,966,-1,
   941,967,968,-1,
   941,968,969,-1,
   941,943,967,-1,
   939,941,969,-1,
   936,969,970,-1,
   936,939,969,-1,
   933,970,971,-1,
   933,936,970,-1,
   934,971,972,-1,
   934,933,971,-1,
   931,972,973,-1,
   931,934,972,-1,
   929,973,974,-1,
   929,931,973,-1,
   927,974,975,-1,
   927,929,974,-1,
   924,975,976,-1,
   924,927,975,-1,
   922,976,977,-1,
   922,977,978,-1,
   922,924,976,-1,
   920,978,979,-1,
   920,922,978,-1,
   918,920,979,-1,
   916,979,980,-1,
   916,980,981,-1,
   916,918,979,-1,
   914,916,981,-1,
   912,981,982,-1,
   912,914,981,-1,
   910,982,983,-1,
   910,912,982,-1,
   908,983,984,-1,
   908,910,983,-1,
   906,984,985,-1,
   906,985,986,-1,
   906,908,984,-1,
   904,906,986,-1,
   902,986,987,-1,
   902,904,986,-1,
   900,987,988,-1,
   900,902,987,-1,
   898,988,989,-1,
   898,900,988,-1,
   896,989,990,-1,
   896,898,989,-1,
   894,990,991,-1,
   894,896,990,-1,
   888,991,891,-1,
   888,894,991,-1,
   975,992,993,-1,
   975,993,976,-1,
   977,993,994,-1,
   977,976,993,-1,
   978,977,994,-1,
   978,994,995,-1,
   974,992,975,-1,
   974,996,992,-1,
   979,978,995,-1,
   979,995,997,-1,
   973,996,974,-1,
   973,998,996,-1,
   980,997,999,-1,
   980,979,997,-1,
   972,998,973,-1,
   972,1000,998,-1,
   971,1000,972,-1,
   971,1001,1000,-1,
   981,999,1002,-1,
   981,980,999,-1,
   970,1001,971,-1,
   970,1003,1001,-1,
   982,1002,1004,-1,
   982,981,1002,-1,
   969,1003,970,-1,
   969,1005,1003,-1,
   983,1004,1006,-1,
   983,982,1004,-1,
   968,1007,1005,-1,
   968,1005,969,-1,
   984,1006,1008,-1,
   984,983,1006,-1,
   985,1008,1009,-1,
   985,984,1008,-1,
   967,1007,968,-1,
   967,1010,1007,-1,
   966,1010,967,-1,
   966,1011,1010,-1,
   986,985,1009,-1,
   986,1009,1012,-1,
   987,1012,1013,-1,
   987,986,1012,-1,
   965,1014,1011,-1,
   965,1011,966,-1,
   964,1015,1014,-1,
   964,1014,965,-1,
   988,1013,1016,-1,
   988,987,1013,-1,
   963,1017,1015,-1,
   963,1015,964,-1,
   989,988,1016,-1,
   989,1016,1018,-1,
   962,1019,1017,-1,
   962,1017,963,-1,
   990,1018,1020,-1,
   990,989,1018,-1,
   961,1021,1019,-1,
   961,1019,962,-1,
   991,990,1020,-1,
   991,1020,1022,-1,
   891,991,1022,-1,
   891,1022,1023,-1,
   960,1024,1021,-1,
   960,1021,961,-1,
   1025,1024,960,-1,
   1025,1026,1024,-1,
   889,1023,1027,-1,
   889,891,1023,-1,
   892,889,1027,-1,
   892,890,889,-1,
   1025,960,959,-1,
   959,960,955,-1,
   959,958,1028,-1,
   1029,1025,1028,-1,
   1028,1025,959,-1,
   1026,1030,958,-1,
   958,1030,1031,-1,
   1031,1028,958,-1,
   1029,1030,1026,-1,
   1029,1026,1025,-1,
   1024,958,957,-1,
   1024,1026,958,-1,
   957,954,1024,-1,
   1024,954,1021,-1,
   1021,953,1019,-1,
   954,953,1021,-1,
   1019,950,1017,-1,
   953,950,1019,-1,
   1017,948,1015,-1,
   950,948,1017,-1,
   1015,946,1014,-1,
   948,946,1015,-1,
   1014,944,1011,-1,
   946,944,1014,-1,
   1011,942,1010,-1,
   944,942,1011,-1,
   942,940,1010,-1,
   1010,940,1007,-1,
   940,938,1007,-1,
   1007,938,1005,-1,
   938,937,1005,-1,
   1005,937,1003,-1,
   937,935,1003,-1,
   1003,935,1001,-1,
   935,932,1001,-1,
   1000,932,998,-1,
   1001,932,1000,-1,
   932,930,998,-1,
   930,928,998,-1,
   996,928,992,-1,
   998,928,996,-1,
   928,926,992,-1,
   926,925,992,-1,
   992,925,993,-1,
   925,923,993,-1,
   994,923,995,-1,
   993,923,994,-1,
   923,921,995,-1,
   997,919,999,-1,
   995,919,997,-1,
   921,919,995,-1,
   999,917,1002,-1,
   919,917,999,-1,
   1002,915,1004,-1,
   917,915,1002,-1,
   915,913,1004,-1,
   1006,911,1008,-1,
   1004,911,1006,-1,
   913,911,1004,-1,
   911,909,1008,-1,
   1008,909,1009,-1,
   909,907,1009,-1,
   1012,905,1013,-1,
   1009,905,1012,-1,
   907,905,1009,-1,
   1013,903,1016,-1,
   905,903,1013,-1,
   903,901,1016,-1,
   1016,899,1018,-1,
   901,899,1016,-1,
   1018,897,1020,-1,
   899,897,1018,-1,
   1020,895,1022,-1,
   897,895,1020,-1,
   1022,893,1023,-1,
   895,893,1022,-1,
   1027,893,892,-1,
   1027,1023,893,-1,
   1028,1032,1033,-1,
   1028,1033,1029,-1,
   1034,1030,1033,-1,
   1033,1030,1029,-1,
   1031,1035,1032,-1,
   1031,1032,1028,-1,
   1035,1031,1034,-1,
   1034,1031,1030,-1,
   1034,1032,1035,-1,
   1034,1033,1032,-1
  ]
 }
}
