#VRML V2.0 utf8
Shape {
 appearance Appearance { material Material { diffuseColor 0.1 0.1 0.1 specularColor 0.2 0.2 0.2 shininess 0.3 } }
 geometry IndexedFaceSet {
  solid FALSE
  coord Coordinate { point [
   1.53937 -2.50000 1.00000,
   1.53937 2.50000 1.00000,
   -1.81102 -2.50000 1.00000,
   -1.81102 2.50000 1.00000,
   1.53937 -2.50000 0.00000,
   1.46063 -2.50000 0.16667,
   -1.81102 -2.50000 0.00000,
   1.53937 -2.50000 0.16667,
   1.46063 -2.50000 0.83333,
   1.53937 -2.50000 0.83333,
   -1.81102 -1.76378 0.73622,
   -1.81102 -2.23622 0.73622,
   -1.81102 -2.23622 0.26378,
   -1.81102 -1.76378 0.26378,
   -1.81102 -1.23622 0.73622,
   -1.81102 -1.23622 0.26378,
   -1.81102 -0.76378 0.73622,
   -1.81102 -0.23622 0.73622,
   -1.81102 -0.76378 0.26378,
   -1.81102 -0.23622 0.26378,
   -1.81102 0.76378 0.26378,
   -1.81102 0.23622 0.26378,
   -1.81102 0.23622 0.73622,
   -1.81102 0.76378 0.73622,
   -1.81102 1.23622 0.73622,
   -1.81102 1.76378 0.73622,
   -1.81102 1.76378 0.26378,
   -1.81102 1.23622 0.26378,
   -1.81102 2.23622 0.73622,
   -1.81102 2.23622 0.26378,
   -1.81102 2.50000 0.00000,
   1.46063 2.50000 0.83333,
   1.53937 2.50000 0.83333,
   1.46063 2.50000 0.16667,
   1.53937 2.50000 0.16667,
   1.53937 2.50000 0.00000,
   1.46063 -2.17717 0.53937,
   1.46063 -2.11811 0.53937,
   1.46063 -2.17717 0.46063,
   1.46063 -2.11811 0.46063,
   1.46063 -1.88189 0.53937,
   1.46063 -1.82283 0.53937,
   1.46063 -1.88189 0.46063,
   1.46063 -1.82283 0.46063,
   1.46063 -1.17717 0.53937,
   1.46063 -1.11811 0.53937,
   1.46063 -1.17717 0.46063,
   1.46063 -0.88189 0.53937,
   1.46063 -0.82283 0.53937,
   1.46063 -0.17717 0.53937,
   1.46063 -0.11811 0.53937,
   1.46063 -0.82283 0.46063,
   1.46063 -0.17717 0.46063,
   1.46063 0.17717 0.46063,
   1.46063 0.82283 0.53937,
   1.46063 0.17717 0.53937,
   1.46063 0.82283 0.46063,
   1.46063 1.17717 0.46063,
   1.46063 1.82283 0.53937,
   1.46063 1.17717 0.53937,
   1.46063 1.82283 0.46063,
   1.46063 0.11811 0.53937,
   1.46063 1.11811 0.53937,
   1.46063 0.88189 0.53937,
   1.46063 2.17717 0.53937,
   1.46063 2.11811 0.53937,
   1.46063 1.88189 0.53937,
   1.46063 2.17717 0.46063,
   1.46063 1.88189 0.46063,
   1.46063 2.11811 0.46063,
   1.46063 -1.11811 0.46063,
   1.46063 -0.88189 0.46063,
   1.46063 -0.11811 0.46063,
   1.46063 0.11811 0.46063,
   1.46063 0.88189 0.46063,
   1.46063 1.11811 0.46063,
   -1.69291 -1.88189 0.61811,
   -1.69291 -2.11811 0.61811,
   -1.69291 -2.11811 0.38189,
   -1.69291 -1.88189 0.38189,
   -1.69291 -1.11811 0.61811,
   -1.69291 -0.88189 0.61811,
   -1.69291 -1.11811 0.38189,
   -1.69291 -0.88189 0.38189,
   -1.69291 0.11811 0.61811,
   -1.69291 -0.11811 0.61811,
   -1.69291 -0.11811 0.38189,
   -1.69291 0.11811 0.38189,
   -1.69291 1.11811 0.61811,
   -1.69291 0.88189 0.61811,
   -1.69291 0.88189 0.38189,
   -1.69291 1.11811 0.38189,
   -1.69291 2.11811 0.61811,
   -1.69291 1.88189 0.61811,
   -1.69291 1.88189 0.38189,
   -1.69291 2.11811 0.38189,
   1.53937 -2.11811 0.46063,
   1.53937 -1.88189 0.46063,
   1.53937 -2.11811 0.53937,
   1.53937 -1.88189 0.53937,
   1.53937 -1.11811 0.46063,
   1.53937 -0.88189 0.46063,
   1.53937 -1.11811 0.53937,
   1.53937 -0.88189 0.53937,
   1.53937 -0.11811 0.46063,
   1.53937 0.11811 0.46063,
   1.53937 -0.11811 0.53937,
   1.53937 0.11811 0.53937,
   1.53937 0.88189 0.46063,
   1.53937 1.11811 0.46063,
   1.53937 0.88189 0.53937,
   1.53937 1.11811 0.53937,
   1.53937 2.11811 0.46063,
   1.53937 1.88189 0.46063,
   1.53937 1.88189 0.53937,
   1.53937 2.11811 0.53937,
   1.18504 -2.11811 0.61811,
   1.18504 -1.88189 0.61811,
   1.18504 -2.11811 0.38189,
   -1.37795 -2.11811 0.46063,
   1.18504 -2.11811 0.46063,
   1.18504 -2.11811 0.53937,
   -1.37795 -2.11811 0.53937,
   1.18504 -1.88189 0.38189,
   -1.37795 -1.88189 0.53937,
   1.18504 -1.88189 0.53937,
   1.18504 -1.88189 0.46063,
   -1.37795 -1.88189 0.46063,
   1.18504 -1.11811 0.61811,
   1.18504 -0.88189 0.61811,
   1.18504 -1.11811 0.38189,
   -1.37795 -1.11811 0.46063,
   1.18504 -1.11811 0.46063,
   1.18504 -1.11811 0.53937,
   -1.37795 -1.11811 0.53937,
   1.18504 -0.88189 0.38189,
   -1.37795 -0.88189 0.53937,
   1.18504 -0.88189 0.53937,
   1.18504 -0.88189 0.46063,
   -1.37795 -0.88189 0.46063,
   1.18504 -0.11811 0.61811,
   1.18504 0.11811 0.61811,
   1.18504 -0.11811 0.38189,
   -1.37795 -0.11811 0.46063,
   1.18504 -0.11811 0.46063,
   1.18504 -0.11811 0.53937,
   -1.37795 -0.11811 0.53937,
   1.18504 0.11811 0.38189,
   -1.37795 0.11811 0.53937,
   1.18504 0.11811 0.53937,
   1.18504 0.11811 0.46063,
   -1.37795 0.11811 0.46063,
   1.18504 0.88189 0.61811,
   1.18504 1.11811 0.61811,
   1.18504 0.88189 0.38189,
   -1.37795 0.88189 0.46063,
   1.18504 0.88189 0.46063,
   1.18504 0.88189 0.53937,
   -1.37795 0.88189 0.53937,
   1.18504 1.11811 0.38189,
   -1.37795 1.11811 0.53937,
   1.18504 1.11811 0.53937,
   1.18504 1.11811 0.46063,
   -1.37795 1.11811 0.46063,
   1.18504 1.88189 0.61811,
   1.18504 2.11811 0.61811,
   1.18504 1.88189 0.38189,
   -1.37795 1.88189 0.46063,
   1.18504 1.88189 0.46063,
   1.18504 1.88189 0.53937,
   -1.37795 1.88189 0.53937,
   1.18504 2.11811 0.38189,
   -1.37795 2.11811 0.53937,
   1.18504 2.11811 0.53937,
   1.18504 2.11811 0.46063,
   -1.37795 2.11811 0.46063,
   1.04724 -1.90157 0.46063,
   1.04724 -2.09843 0.46063,
   -1.35827 -2.09843 0.46063,
   -1.35827 -1.90157 0.46063,
   -1.35827 -2.09843 0.53937,
   1.04724 -1.90157 0.53937,
   1.04724 -2.09843 0.53937,
   -1.35827 -1.90157 0.53937,
   1.04724 -0.90157 0.46063,
   1.04724 -1.09843 0.46063,
   -1.35827 -1.09843 0.46063,
   -1.35827 -0.90157 0.46063,
   -1.35827 -1.09843 0.53937,
   1.04724 -0.90157 0.53937,
   1.04724 -1.09843 0.53937,
   -1.35827 -0.90157 0.53937,
   1.04724 0.09843 0.46063,
   1.04724 -0.09843 0.46063,
   -1.35827 -0.09843 0.46063,
   -1.35827 0.09843 0.46063,
   -1.35827 -0.09843 0.53937,
   1.04724 0.09843 0.53937,
   1.04724 -0.09843 0.53937,
   -1.35827 0.09843 0.53937,
   1.04724 1.09843 0.46063,
   1.04724 0.90157 0.46063,
   -1.35827 0.90157 0.46063,
   -1.35827 1.09843 0.46063,
   -1.35827 0.90157 0.53937,
   1.04724 1.09843 0.53937,
   1.04724 0.90157 0.53937,
   -1.35827 1.09843 0.53937,
   1.04724 2.09843 0.46063,
   1.04724 1.90157 0.46063,
   -1.35827 1.90157 0.46063,
   -1.35827 2.09843 0.46063,
   -1.35827 1.90157 0.53937,
   1.04724 2.09843 0.53937,
   1.04724 1.90157 0.53937,
   -1.35827 2.09843 0.53937
  ] }
  coordIndex [
   0,1,2,-1,
   2,1,3,-1,
   4,5,6,-1,
   4,7,5,-1,
   6,8,2,-1,
   5,8,6,-1,
   9,0,8,-1,
   8,0,2,-1,
   10,11,2,-1,
   12,6,2,-1,
   12,2,11,-1,
   13,6,12,-1,
   14,13,10,-1,
   14,10,2,-1,
   15,13,14,-1,
   15,6,13,-1,
   16,14,2,-1,
   17,18,16,-1,
   17,16,2,-1,
   19,18,17,-1,
   20,21,22,-1,
   20,22,23,-1,
   3,22,17,-1,
   3,24,23,-1,
   3,23,22,-1,
   3,17,2,-1,
   3,25,24,-1,
   26,27,24,-1,
   26,24,25,-1,
   28,25,3,-1,
   29,28,3,-1,
   30,26,29,-1,
   30,27,26,-1,
   30,29,3,-1,
   30,6,15,-1,
   30,15,18,-1,
   30,18,19,-1,
   30,19,21,-1,
   30,21,20,-1,
   30,20,27,-1,
   1,31,3,-1,
   1,32,31,-1,
   3,33,30,-1,
   31,33,3,-1,
   34,35,33,-1,
   33,35,30,-1,
   9,1,0,-1,
   9,32,1,-1,
   4,34,7,-1,
   4,35,34,-1,
   35,4,30,-1,
   30,4,6,-1,
   32,9,8,-1,
   32,8,31,-1,
   36,37,8,-1,
   5,38,8,-1,
   8,38,36,-1,
   5,39,38,-1,
   37,40,8,-1,
   40,41,8,-1,
   5,42,39,-1,
   5,43,42,-1,
   41,44,8,-1,
   44,45,8,-1,
   43,46,41,-1,
   41,46,44,-1,
   5,46,43,-1,
   45,47,8,-1,
   47,48,8,-1,
   48,49,8,-1,
   49,50,8,-1,
   51,52,48,-1,
   48,52,49,-1,
   53,54,55,-1,
   53,56,54,-1,
   57,58,59,-1,
   57,60,58,-1,
   58,31,59,-1,
   55,31,61,-1,
   61,31,50,-1,
   59,31,62,-1,
   62,31,63,-1,
   63,31,54,-1,
   64,31,65,-1,
   65,31,66,-1,
   66,31,58,-1,
   54,31,55,-1,
   50,31,8,-1,
   64,67,31,-1,
   57,33,60,-1,
   67,33,31,-1,
   60,33,68,-1,
   68,33,69,-1,
   69,33,67,-1,
   5,33,46,-1,
   46,33,70,-1,
   70,33,71,-1,
   71,33,51,-1,
   51,33,52,-1,
   52,33,72,-1,
   72,33,73,-1,
   73,33,53,-1,
   53,33,56,-1,
   56,33,74,-1,
   74,33,75,-1,
   75,33,57,-1,
   7,34,33,-1,
   7,33,5,-1,
   76,77,11,-1,
   76,11,10,-1,
   77,78,12,-1,
   77,12,11,-1,
   78,79,13,-1,
   78,13,12,-1,
   79,76,10,-1,
   79,10,13,-1,
   16,80,14,-1,
   81,80,16,-1,
   80,82,15,-1,
   80,15,14,-1,
   82,83,18,-1,
   82,18,15,-1,
   83,81,16,-1,
   83,16,18,-1,
   84,85,17,-1,
   84,17,22,-1,
   85,86,19,-1,
   85,19,17,-1,
   86,87,21,-1,
   86,21,19,-1,
   87,84,22,-1,
   87,22,21,-1,
   88,89,23,-1,
   88,23,24,-1,
   89,90,20,-1,
   89,20,23,-1,
   90,91,27,-1,
   90,27,20,-1,
   91,88,24,-1,
   91,24,27,-1,
   92,93,25,-1,
   92,25,28,-1,
   93,94,26,-1,
   93,26,25,-1,
   94,95,29,-1,
   94,29,26,-1,
   95,92,28,-1,
   95,28,29,-1,
   38,39,37,-1,
   38,37,36,-1,
   42,96,39,-1,
   42,97,96,-1,
   42,43,41,-1,
   42,41,40,-1,
   98,40,37,-1,
   99,40,98,-1,
   46,70,45,-1,
   46,45,44,-1,
   71,100,70,-1,
   71,101,100,-1,
   71,51,48,-1,
   71,48,47,-1,
   102,47,45,-1,
   103,47,102,-1,
   52,72,50,-1,
   52,50,49,-1,
   73,104,72,-1,
   73,105,104,-1,
   73,53,55,-1,
   73,55,61,-1,
   106,61,50,-1,
   107,61,106,-1,
   56,74,63,-1,
   56,63,54,-1,
   75,108,74,-1,
   75,109,108,-1,
   75,57,59,-1,
   75,59,62,-1,
   110,62,63,-1,
   111,62,110,-1,
   60,68,66,-1,
   60,66,58,-1,
   112,113,68,-1,
   69,112,68,-1,
   69,67,64,-1,
   69,64,65,-1,
   114,115,66,-1,
   115,65,66,-1,
   77,76,116,-1,
   116,76,117,-1,
   118,119,120,-1,
   121,122,116,-1,
   119,77,122,-1,
   78,77,119,-1,
   118,78,119,-1,
   77,116,122,-1,
   79,78,123,-1,
   123,78,118,-1,
   117,124,125,-1,
   126,127,123,-1,
   124,79,127,-1,
   76,79,124,-1,
   117,76,124,-1,
   79,123,127,-1,
   80,81,128,-1,
   128,81,129,-1,
   130,131,132,-1,
   133,134,128,-1,
   131,80,134,-1,
   82,80,131,-1,
   130,82,131,-1,
   80,128,134,-1,
   83,82,135,-1,
   135,82,130,-1,
   129,136,137,-1,
   138,139,135,-1,
   136,83,139,-1,
   81,83,136,-1,
   129,81,136,-1,
   83,135,139,-1,
   85,84,140,-1,
   140,84,141,-1,
   142,143,144,-1,
   145,146,140,-1,
   143,85,146,-1,
   86,85,143,-1,
   142,86,143,-1,
   85,140,146,-1,
   87,86,147,-1,
   147,86,142,-1,
   141,148,149,-1,
   150,151,147,-1,
   148,87,151,-1,
   84,87,148,-1,
   141,84,148,-1,
   87,147,151,-1,
   89,88,152,-1,
   152,88,153,-1,
   154,155,156,-1,
   157,158,152,-1,
   155,89,158,-1,
   90,89,155,-1,
   154,90,155,-1,
   89,152,158,-1,
   91,90,159,-1,
   159,90,154,-1,
   153,160,161,-1,
   162,163,159,-1,
   160,91,163,-1,
   88,91,160,-1,
   153,88,160,-1,
   91,159,163,-1,
   93,92,164,-1,
   164,92,165,-1,
   166,167,168,-1,
   169,170,164,-1,
   167,93,170,-1,
   94,93,167,-1,
   166,94,167,-1,
   93,164,170,-1,
   95,94,171,-1,
   171,94,166,-1,
   165,172,173,-1,
   174,175,171,-1,
   172,95,175,-1,
   92,95,172,-1,
   165,92,172,-1,
   95,171,175,-1,
   39,96,37,-1,
   37,96,98,-1,
   98,97,99,-1,
   98,96,97,-1,
   97,42,99,-1,
   99,42,40,-1,
   70,100,45,-1,
   45,100,102,-1,
   102,101,103,-1,
   102,100,101,-1,
   101,71,103,-1,
   103,71,47,-1,
   72,104,50,-1,
   50,104,106,-1,
   106,105,107,-1,
   106,104,105,-1,
   105,73,107,-1,
   107,73,61,-1,
   74,108,63,-1,
   63,108,110,-1,
   110,109,111,-1,
   110,108,109,-1,
   109,75,111,-1,
   111,75,62,-1,
   68,113,66,-1,
   66,113,114,-1,
   113,112,115,-1,
   114,113,115,-1,
   112,69,115,-1,
   115,69,65,-1,
   125,121,116,-1,
   125,116,117,-1,
   123,118,120,-1,
   123,120,126,-1,
   176,126,120,-1,
   176,120,177,-1,
   119,177,120,-1,
   178,177,119,-1,
   127,126,176,-1,
   127,176,179,-1,
   178,119,122,-1,
   178,122,180,-1,
   125,181,121,-1,
   121,181,182,-1,
   182,122,121,-1,
   182,180,122,-1,
   125,124,181,-1,
   181,124,183,-1,
   127,179,183,-1,
   127,183,124,-1,
   137,133,128,-1,
   137,128,129,-1,
   135,130,132,-1,
   135,132,138,-1,
   184,138,132,-1,
   184,132,185,-1,
   131,185,132,-1,
   186,185,131,-1,
   139,138,184,-1,
   139,184,187,-1,
   186,131,134,-1,
   186,134,188,-1,
   137,189,133,-1,
   133,189,190,-1,
   190,134,133,-1,
   190,188,134,-1,
   137,136,189,-1,
   189,136,191,-1,
   139,187,191,-1,
   139,191,136,-1,
   149,145,140,-1,
   149,140,141,-1,
   147,142,144,-1,
   147,144,150,-1,
   192,150,144,-1,
   192,144,193,-1,
   143,193,144,-1,
   194,193,143,-1,
   151,150,192,-1,
   151,192,195,-1,
   194,143,146,-1,
   194,146,196,-1,
   149,197,145,-1,
   145,197,198,-1,
   198,146,145,-1,
   198,196,146,-1,
   149,148,197,-1,
   197,148,199,-1,
   151,195,199,-1,
   151,199,148,-1,
   161,157,152,-1,
   161,152,153,-1,
   159,154,156,-1,
   159,156,162,-1,
   200,162,156,-1,
   200,156,201,-1,
   155,201,156,-1,
   202,201,155,-1,
   163,162,200,-1,
   163,200,203,-1,
   202,155,158,-1,
   202,158,204,-1,
   161,205,157,-1,
   157,205,206,-1,
   206,158,157,-1,
   206,204,158,-1,
   161,160,205,-1,
   205,160,207,-1,
   163,203,207,-1,
   163,207,160,-1,
   173,169,164,-1,
   173,164,165,-1,
   171,166,168,-1,
   171,168,174,-1,
   208,174,168,-1,
   208,168,209,-1,
   167,209,168,-1,
   210,209,167,-1,
   175,174,208,-1,
   175,208,211,-1,
   210,167,170,-1,
   210,170,212,-1,
   173,213,169,-1,
   169,213,214,-1,
   214,170,169,-1,
   214,212,170,-1,
   173,172,213,-1,
   213,172,215,-1,
   175,211,215,-1,
   175,215,172,-1,
   177,178,180,-1,
   177,180,182,-1,
   176,177,182,-1,
   176,182,181,-1,
   179,176,181,-1,
   179,181,183,-1,
   185,186,188,-1,
   185,188,190,-1,
   184,185,190,-1,
   184,190,189,-1,
   187,184,189,-1,
   187,189,191,-1,
   193,194,196,-1,
   193,196,198,-1,
   192,193,198,-1,
   192,198,197,-1,
   195,192,197,-1,
   195,197,199,-1,
   201,202,204,-1,
   201,204,206,-1,
   200,201,206,-1,
   200,206,205,-1,
   203,200,205,-1,
   203,205,207,-1,
   209,210,212,-1,
   209,212,214,-1,
   208,209,214,-1,
   208,214,213,-1,
   211,208,213,-1,
   211,213,215,-1
  ]
 }
}
Shape {
 appearance Appearance { material Material { diffuseColor 0.86 0.74 0.4 specularColor 0.2 0.2 0.2 shininess 0.3 } }
 geometry IndexedFaceSet {
  solid FALSE
  coord Coordinate { point [
   1.53937 -1.88189 0.46063,
   2.05906 -2.11811 0.46063,
   1.53937 -2.11811 0.46063,
   2.05906 -1.88189 0.46063,
   1.53937 -2.11811 0.53937,
   2.05906 -2.11811 0.53937,
   2.06099 -2.11811 0.46058,
   2.06485 -2.11811 0.53923,
   2.06291 -2.11811 0.46044,
   2.07063 -2.11811 0.53880,
   2.06483 -2.11811 0.46020,
   2.07639 -2.11811 0.53809,
   2.06674 -2.11811 0.45987,
   2.08210 -2.11811 0.53710,
   2.06862 -2.11811 0.45945,
   2.08775 -2.11811 0.53583,
   2.07048 -2.11811 0.45893,
   2.09334 -2.11811 0.53428,
   2.07232 -2.11811 0.45833,
   2.09885 -2.11811 0.53247,
   2.07412 -2.11811 0.45763,
   2.10425 -2.11811 0.53038,
   2.07589 -2.11811 0.45685,
   2.10955 -2.11811 0.52803,
   2.07761 -2.11811 0.45598,
   2.11473 -2.11811 0.52542,
   2.07930 -2.11811 0.45503,
   2.11978 -2.11811 0.52257,
   2.08093 -2.11811 0.45399,
   2.12467 -2.11811 0.51946,
   2.08251 -2.11811 0.45288,
   2.12941 -2.11811 0.51613,
   2.08403 -2.11811 0.45169,
   2.13398 -2.11811 0.51256,
   2.08549 -2.11811 0.45043,
   2.13837 -2.11811 0.50877,
   2.08689 -2.11811 0.44910,
   2.14257 -2.11811 0.50478,
   2.14657 -2.11811 0.50058,
   2.08823 -2.11811 0.44770,
   2.15036 -2.11811 0.49619,
   2.08949 -2.11811 0.44624,
   2.15392 -2.11811 0.49162,
   2.09068 -2.11811 0.44471,
   2.15726 -2.11811 0.48688,
   2.09282 -2.11811 0.44150,
   2.09179 -2.11811 0.44313,
   2.09378 -2.11811 0.43982,
   2.16036 -2.11811 0.48198,
   2.16322 -2.11811 0.47694,
   2.09465 -2.11811 0.43809,
   2.16583 -2.11811 0.47176,
   2.09543 -2.11811 0.43633,
   2.16817 -2.11811 0.46646,
   2.09612 -2.11811 0.43452,
   2.17026 -2.11811 0.46105,
   2.09673 -2.11811 0.43269,
   2.17208 -2.11811 0.45555,
   2.09725 -2.11811 0.43083,
   2.17363 -2.11811 0.44996,
   2.09767 -2.11811 0.42894,
   2.17490 -2.11811 0.44430,
   2.09824 -2.11811 0.42512,
   2.17589 -2.11811 0.43859,
   2.09800 -2.11811 0.42704,
   2.17660 -2.11811 0.43284,
   2.17702 -2.11811 0.42706,
   2.09843 -2.11811 0.42126,
   2.09838 -2.11811 0.42319,
   2.17717 -2.11811 0.42126,
   2.17717 -2.11811 0.11811,
   2.09843 -2.11811 0.11811,
   2.09843 -1.88189 0.42126,
   2.09838 -1.88189 0.42319,
   2.09824 -1.88189 0.42512,
   2.09800 -1.88189 0.42704,
   2.09767 -1.88189 0.42894,
   2.09725 -1.88189 0.43083,
   2.09673 -1.88189 0.43269,
   2.09612 -1.88189 0.43452,
   2.09543 -1.88189 0.43633,
   2.09465 -1.88189 0.43809,
   2.09378 -1.88189 0.43982,
   2.09282 -1.88189 0.44150,
   2.09179 -1.88189 0.44313,
   2.09068 -1.88189 0.44471,
   2.08949 -1.88189 0.44624,
   2.08823 -1.88189 0.44770,
   2.08689 -1.88189 0.44910,
   2.08549 -1.88189 0.45043,
   2.08403 -1.88189 0.45169,
   2.08251 -1.88189 0.45288,
   2.08093 -1.88189 0.45399,
   2.07930 -1.88189 0.45503,
   2.07761 -1.88189 0.45598,
   2.07589 -1.88189 0.45685,
   2.07412 -1.88189 0.45763,
   2.07232 -1.88189 0.45833,
   2.07048 -1.88189 0.45893,
   2.06862 -1.88189 0.45945,
   2.06674 -1.88189 0.45987,
   2.06483 -1.88189 0.46020,
   2.06291 -1.88189 0.46044,
   2.06099 -1.88189 0.46058,
   2.14657 -1.88189 0.50058,
   2.14257 -1.88189 0.50478,
   2.13837 -1.88189 0.50877,
   2.13398 -1.88189 0.51256,
   2.15036 -1.88189 0.49619,
   2.12941 -1.88189 0.51613,
   2.15392 -1.88189 0.49162,
   2.12467 -1.88189 0.51946,
   2.15726 -1.88189 0.48688,
   2.16036 -1.88189 0.48198,
   2.11978 -1.88189 0.52257,
   2.16322 -1.88189 0.47694,
   2.11473 -1.88189 0.52542,
   2.16583 -1.88189 0.47176,
   2.10955 -1.88189 0.52803,
   2.16817 -1.88189 0.46646,
   2.10425 -1.88189 0.53038,
   2.09885 -1.88189 0.53247,
   2.17026 -1.88189 0.46105,
   2.17208 -1.88189 0.45555,
   2.09334 -1.88189 0.53428,
   2.08775 -1.88189 0.53583,
   2.17363 -1.88189 0.44996,
   2.17490 -1.88189 0.44430,
   2.08210 -1.88189 0.53710,
   2.17589 -1.88189 0.43859,
   2.07639 -1.88189 0.53809,
   2.17660 -1.88189 0.43284,
   2.07063 -1.88189 0.53880,
   2.17702 -1.88189 0.42706,
   2.06485 -1.88189 0.53923,
   2.05906 -1.88189 0.53937,
   2.17717 -1.88189 0.42126,
   2.09843 -1.88189 0.11811,
   2.17717 -1.88189 0.11811,
   1.53937 -1.88189 0.53937,
   1.92520 -2.12598 0.11811,
   1.92520 -1.87402 0.11811,
   2.99213 -1.87402 0.11811,
   2.99213 -2.12598 0.11811,
   1.92520 -2.12598 0.00000,
   1.92520 -1.87402 0.00000,
   2.99213 -1.87402 0.00000,
   2.99213 -2.12598 0.00000,
   1.53937 -0.88189 0.46063,
   2.05906 -1.11811 0.46063,
   1.53937 -1.11811 0.46063,
   2.05906 -0.88189 0.46063,
   1.53937 -1.11811 0.53937,
   2.05906 -1.11811 0.53937,
   2.06099 -1.11811 0.46058,
   2.06485 -1.11811 0.53923,
   2.06291 -1.11811 0.46044,
   2.07063 -1.11811 0.53880,
   2.06483 -1.11811 0.46020,
   2.07639 -1.11811 0.53809,
   2.06674 -1.11811 0.45987,
   2.08210 -1.11811 0.53710,
   2.06862 -1.11811 0.45945,
   2.08775 -1.11811 0.53583,
   2.07048 -1.11811 0.45893,
   2.09334 -1.11811 0.53428,
   2.07232 -1.11811 0.45833,
   2.09885 -1.11811 0.53247,
   2.07412 -1.11811 0.45763,
   2.10425 -1.11811 0.53038,
   2.07589 -1.11811 0.45685,
   2.10955 -1.11811 0.52803,
   2.07761 -1.11811 0.45598,
   2.11473 -1.11811 0.52542,
   2.07930 -1.11811 0.45503,
   2.11978 -1.11811 0.52257,
   2.08093 -1.11811 0.45399,
   2.12467 -1.11811 0.51946,
   2.08251 -1.11811 0.45288,
   2.12941 -1.11811 0.51613,
   2.08403 -1.11811 0.45169,
   2.13398 -1.11811 0.51256,
   2.08549 -1.11811 0.45043,
   2.13837 -1.11811 0.50877,
   2.08689 -1.11811 0.44910,
   2.14257 -1.11811 0.50478,
   2.14657 -1.11811 0.50058,
   2.08823 -1.11811 0.44770,
   2.15036 -1.11811 0.49619,
   2.08949 -1.11811 0.44624,
   2.15392 -1.11811 0.49162,
   2.09068 -1.11811 0.44471,
   2.15726 -1.11811 0.48688,
   2.09282 -1.11811 0.44150,
   2.09179 -1.11811 0.44313,
   2.09378 -1.11811 0.43982,
   2.16036 -1.11811 0.48198,
   2.16322 -1.11811 0.47694,
   2.09465 -1.11811 0.43809,
   2.16583 -1.11811 0.47176,
   2.09543 -1.11811 0.43633,
   2.16817 -1.11811 0.46646,
   2.09612 -1.11811 0.43452,
   2.17026 -1.11811 0.46105,
   2.09673 -1.11811 0.43269,
   2.17208 -1.11811 0.45555,
   2.09725 -1.11811 0.43083,
   2.17363 -1.11811 0.44996,
   2.09767 -1.11811 0.42894,
   2.17490 -1.11811 0.44430,
   2.09824 -1.11811 0.42512,
   2.17589 -1.11811 0.43859,
   2.09800 -1.11811 0.42704,
   2.17660 -1.11811 0.43284,
   2.17702 -1.11811 0.42706,
   2.09843 -1.11811 0.42126,
   2.09838 -1.11811 0.42319,
   2.17717 -1.11811 0.42126,
   2.17717 -1.11811 0.11811,
   2.09843 -1.11811 0.11811,
   2.09843 -0.88189 0.42126,
   2.09838 -0.88189 0.42319,
   2.09824 -0.88189 0.42512,
   2.09800 -0.88189 0.42704,
   2.09767 -0.88189 0.42894,
   2.09725 -0.88189 0.43083,
   2.09673 -0.88189 0.43269,
   2.09612 -0.88189 0.43452,
   2.09543 -0.88189 0.43633,
   2.09465 -0.88189 0.43809,
   2.09378 -0.88189 0.43982,
   2.09282 -0.88189 0.44150,
   2.09179 -0.88189 0.44313,
   2.09068 -0.88189 0.44471,
   2.08949 -0.88189 0.44624,
   2.08823 -0.88189 0.44770,
   2.08689 -0.88189 0.44910,
   2.08549 -0.88189 0.45043,
   2.08403 -0.88189 0.45169,
   2.08251 -0.88189 0.45288,
   2.08093 -0.88189 0.45399,
   2.07930 -0.88189 0.45503,
   2.07761 -0.88189 0.45598,
   2.07589 -0.88189 0.45685,
   2.07412 -0.88189 0.45763,
   2.07232 -0.88189 0.45833,
   2.07048 -0.88189 0.45893,
   2.06862 -0.88189 0.45945,
   2.06674 -0.88189 0.45987,
   2.06483 -0.88189 0.46020,
   2.06291 -0.88189 0.46044,
   2.06099 -0.88189 0.46058,
   2.14657 -0.88189 0.50058,
   2.14257 -0.88189 0.50478,
   2.13837 -0.88189 0.50877,
   2.13398 -0.88189 0.51256,
   2.15036 -0.88189 0.49619,
   2.12941 -0.88189 0.51613,
   2.15392 -0.88189 0.49162,
   2.12467 -0.88189 0.51946,
   2.15726 -0.88189 0.48688,
   2.16036 -0.88189 0.48198,
   2.11978 -0.88189 0.52257,
   2.16322 -0.88189 0.47694,
   2.11473 -0.88189 0.52542,
   2.16583 -0.88189 0.47176,
   2.10955 -0.88189 0.52803,
   2.16817 -0.88189 0.46646,
   2.10425 -0.88189 0.53038,
   2.09885 -0.88189 0.53247,
   2.17026 -0.88189 0.46105,
   2.17208 -0.88189 0.45555,
   2.09334 -0.88189 0.53428,
   2.08775 -0.88189 0.53583,
   2.17363 -0.88189 0.44996,
   2.17490 -0.88189 0.44430,
   2.08210 -0.88189 0.53710,
   2.17589 -0.88189 0.43859,
   2.07639 -0.88189 0.53809,
   2.17660 -0.88189 0.43284,
   2.07063 -0.88189 0.53880,
   2.17702 -0.88189 0.42706,
   2.06485 -0.88189 0.53923,
   2.05906 -0.88189 0.53937,
   2.17717 -0.88189 0.42126,
   2.09843 -0.88189 0.11811,
   2.17717 -0.88189 0.11811,
   1.53937 -0.88189 0.53937,
   1.92520 -1.12598 0.11811,
   1.92520 -0.87402 0.11811,
   2.99213 -0.87402 0.11811,
   2.99213 -1.12598 0.11811,
   1.92520 -1.12598 0.00000,
   1.92520 -0.87402 0.00000,
   2.99213 -0.87402 0.00000,
   2.99213 -1.12598 0.00000,
   1.53937 0.11811 0.46063,
   2.05906 -0.11811 0.46063,
   1.53937 -0.11811 0.46063,
   2.05906 0.11811 0.46063,
   1.53937 -0.11811 0.53937,
   2.05906 -0.11811 0.53937,
   2.06099 -0.11811 0.46058,
   2.06485 -0.11811 0.53923,
   2.06291 -0.11811 0.46044,
   2.07063 -0.11811 0.53880,
   2.06483 -0.11811 0.46020,
   2.07639 -0.11811 0.53809,
   2.06674 -0.11811 0.45987,
   2.08210 -0.11811 0.53710,
   2.06862 -0.11811 0.45945,
   2.08775 -0.11811 0.53583,
   2.07048 -0.11811 0.45893,
   2.09334 -0.11811 0.53428,
   2.07232 -0.11811 0.45833,
   2.09885 -0.11811 0.53247,
   2.07412 -0.11811 0.45763,
   2.10425 -0.11811 0.53038,
   2.07589 -0.11811 0.45685,
   2.10955 -0.11811 0.52803,
   2.07761 -0.11811 0.45598,
   2.11473 -0.11811 0.52542,
   2.07930 -0.11811 0.45503,
   2.11978 -0.11811 0.52257,
   2.08093 -0.11811 0.45399,
   2.12467 -0.11811 0.51946,
   2.08251 -0.11811 0.45288,
   2.12941 -0.11811 0.51613,
   2.08403 -0.11811 0.45169,
   2.13398 -0.11811 0.51256,
   2.08549 -0.11811 0.45043,
   2.13837 -0.11811 0.50877,
   2.08689 -0.11811 0.44910,
   2.14257 -0.11811 0.50478,
   2.14657 -0.11811 0.50058,
   2.08823 -0.11811 0.44770,
   2.15036 -0.11811 0.49619,
   2.08949 -0.11811 0.44624,
   2.15392 -0.11811 0.49162,
   2.09068 -0.11811 0.44471,
   2.15726 -0.11811 0.48688,
   2.09282 -0.11811 0.44150,
   2.09179 -0.11811 0.44313,
   2.09378 -0.11811 0.43982,
   2.16036 -0.11811 0.48198,
   2.16322 -0.11811 0.47694,
   2.09465 -0.11811 0.43809,
   2.16583 -0.11811 0.47176,
   2.09543 -0.11811 0.43633,
   2.16817 -0.11811 0.46646,
   2.09612 -0.11811 0.43452,
   2.17026 -0.11811 0.46105,
   2.09673 -0.11811 0.43269,
   2.17208 -0.11811 0.45555,
   2.09725 -0.11811 0.43083,
   2.17363 -0.11811 0.44996,
   2.09767 -0.11811 0.42894,
   2.17490 -0.11811 0.44430,
   2.09824 -0.11811 0.42512,
   2.17589 -0.11811 0.43859,
   2.09800 -0.11811 0.42704,
   2.17660 -0.11811 0.43284,
   2.17702 -0.11811 0.42706,
   2.09843 -0.11811 0.42126,
   2.09838 -0.11811 0.42319,
   2.17717 -0.11811 0.42126,
   2.17717 -0.11811 0.11811,
   2.09843 -0.11811 0.11811,
   2.09843 0.11811 0.42126,
   2.09838 0.11811 0.42319,
   2.09824 0.11811 0.42512,
   2.09800 0.11811 0.42704,
   2.09767 0.11811 0.42894,
   2.09725 0.11811 0.43083,
   2.09673 0.11811 0.43269,
   2.09612 0.11811 0.43452,
   2.09543 0.11811 0.43633,
   2.09465 0.11811 0.43809,
   2.09378 0.11811 0.43982,
   2.09282 0.11811 0.44150,
   2.09179 0.11811 0.44313,
   2.09068 0.11811 0.44471,
   2.08949 0.11811 0.44624,
   2.08823 0.11811 0.44770,
   2.08689 0.11811 0.44910,
   2.08549 0.11811 0.45043,
   2.08403 0.11811 0.45169,
   2.08251 0.11811 0.45288,
   2.08093 0.11811 0.45399,
   2.07930 0.11811 0.45503,
   2.07761 0.11811 0.45598,
   2.07589 0.11811 0.45685,
   2.07412 0.11811 0.45763,
   2.07232 0.11811 0.45833,
   2.07048 0.11811 0.45893,
   2.06862 0.11811 0.45945,
   2.06674 0.11811 0.45987,
   2.06483 0.11811 0.46020,
   2.06291 0.11811 0.46044,
   2.06099 0.11811 0.46058,
   2.14657 0.11811 0.50058,
   2.14257 0.11811 0.50478,
   2.13837 0.11811 0.50877,
   2.13398 0.11811 0.51256,
   2.15036 0.11811 0.49619,
   2.12941 0.11811 0.51613,
   2.15392 0.11811 0.49162,
   2.12467 0.11811 0.51946,
   2.15726 0.11811 0.48688,
   2.16036 0.11811 0.48198,
   2.11978 0.11811 0.52257,
   2.16322 0.11811 0.47694,
   2.11473 0.11811 0.52542,
   2.16583 0.11811 0.47176,
   2.10955 0.11811 0.52803,
   2.16817 0.11811 0.46646,
   2.10425 0.11811 0.53038,
   2.09885 0.11811 0.53247,
   2.17026 0.11811 0.46105,
   2.17208 0.11811 0.45555,
   2.09334 0.11811 0.53428,
   2.08775 0.11811 0.53583,
   2.17363 0.11811 0.44996,
   2.17490 0.11811 0.44430,
   2.08210 0.11811 0.53710,
   2.17589 0.11811 0.43859,
   2.07639 0.11811 0.53809,
   2.17660 0.11811 0.43284,
   2.07063 0.11811 0.53880,
   2.17702 0.11811 0.42706,
   2.06485 0.11811 0.53923,
   2.05906 0.11811 0.53937,
   2.17717 0.11811 0.42126,
   2.09843 0.11811 0.11811,
   2.17717 0.11811 0.11811,
   1.53937 0.11811 0.53937,
   1.92520 -0.12598 0.11811,
   1.92520 0.12598 0.11811,
   2.99213 0.12598 0.11811,
   2.99213 -0.12598 0.11811,
   1.92520 -0.12598 0.00000,
   1.92520 0.12598 0.00000,
   2.99213 0.12598 0.00000,
   2.99213 -0.12598 0.00000,
   1.53937 1.11811 0.46063,
   2.05906 0.88189 0.46063,
   1.53937 0.88189 0.46063,
   2.05906 1.11811 0.46063,
   1.53937 0.88189 0.53937,
   2.05906 0.88189 0.53937,
   2.06099 0.88189 0.46058,
   2.06485 0.88189 0.53923,
   2.06291 0.88189 0.46044,
   2.07063 0.88189 0.53880,
   2.06483 0.88189 0.46020,
   2.07639 0.88189 0.53809,
   2.06674 0.88189 0.45987,
   2.08210 0.88189 0.53710,
   2.06862 0.88189 0.45945,
   2.08775 0.88189 0.53583,
   2.07048 0.88189 0.45893,
   2.09334 0.88189 0.53428,
   2.07232 0.88189 0.45833,
   2.09885 0.88189 0.53247,
   2.07412 0.88189 0.45763,
   2.10425 0.88189 0.53038,
   2.07589 0.88189 0.45685,
   2.10955 0.88189 0.52803,
   2.07761 0.88189 0.45598,
   2.11473 0.88189 0.52542,
   2.07930 0.88189 0.45503,
   2.11978 0.88189 0.52257,
   2.08093 0.88189 0.45399,
   2.12467 0.88189 0.51946,
   2.08251 0.88189 0.45288,
   2.12941 0.88189 0.51613,
   2.08403 0.88189 0.45169,
   2.13398 0.88189 0.51256,
   2.08549 0.88189 0.45043,
   2.13837 0.88189 0.50877,
   2.08689 0.88189 0.44910,
   2.14257 0.88189 0.50478,
   2.14657 0.88189 0.50058,
   2.08823 0.88189 0.44770,
   2.15036 0.88189 0.49619,
   2.08949 0.88189 0.44624,
   2.15392 0.88189 0.49162,
   2.09068 0.88189 0.44471,
   2.15726 0.88189 0.48688,
   2.09282 0.88189 0.44150,
   2.09179 0.88189 0.44313,
   2.09378 0.88189 0.43982,
   2.16036 0.88189 0.48198,
   2.16322 0.88189 0.47694,
   2.09465 0.88189 0.43809,
   2.16583 0.88189 0.47176,
   2.09543 0.88189 0.43633,
   2.16817 0.88189 0.46646,
   2.09612 0.88189 0.43452,
   2.17026 0.88189 0.46105,
   2.09673 0.88189 0.43269,
   2.17208 0.88189 0.45555,
   2.09725 0.88189 0.43083,
   2.17363 0.88189 0.44996,
   2.09767 0.88189 0.42894,
   2.17490 0.88189 0.44430,
   2.09824 0.88189 0.42512,
   2.17589 0.88189 0.43859,
   2.09800 0.88189 0.42704,
   2.17660 0.88189 0.43284,
   2.17702 0.88189 0.42706,
   2.09843 0.88189 0.42126,
   2.09838 0.88189 0.42319,
   2.17717 0.88189 0.42126,
   2.17717 0.88189 0.11811,
   2.09843 0.88189 0.11811,
   2.09843 1.11811 0.42126,
   2.09838 1.11811 0.42319,
   2.09824 1.11811 0.42512,
   2.09800 1.11811 0.42704,
   2.09767 1.11811 0.42894,
   2.09725 1.11811 0.43083,
   2.09673 1.11811 0.43269,
   2.09612 1.11811 0.43452,
   2.09543 1.11811 0.43633,
   2.09465 1.11811 0.43809,
   2.09378 1.11811 0.43982,
   2.09282 1.11811 0.44150,
   2.09179 1.11811 0.44313,
   2.09068 1.11811 0.44471,
   2.08949 1.11811 0.44624,
   2.08823 1.11811 0.44770,
   2.08689 1.11811 0.44910,
   2.08549 1.11811 0.45043,
   2.08403 1.11811 0.45169,
   2.08251 1.11811 0.45288,
   2.08093 1.11811 0.45399,
   2.07930 1.11811 0.45503,
   2.07761 1.11811 0.45598,
   2.07589 1.11811 0.45685,
   2.07412 1.11811 0.45763,
   2.07232 1.11811 0.45833,
   2.07048 1.11811 0.45893,
   2.06862 1.11811 0.45945,
   2.06674 1.11811 0.45987,
   2.06483 1.11811 0.46020,
   2.06291 1.11811 0.46044,
   2.06099 1.11811 0.46058,
   2.14657 1.11811 0.50058,
   2.14257 1.11811 0.50478,
   2.13837 1.11811 0.50877,
   2.13398 1.11811 0.51256,
   2.15036 1.11811 0.49619,
   2.12941 1.11811 0.51613,
   2.15392 1.11811 0.49162,
   2.12467 1.11811 0.51946,
   2.15726 1.11811 0.48688,
   2.16036 1.11811 0.48198,
   2.11978 1.11811 0.52257,
   2.16322 1.11811 0.47694,
   2.11473 1.11811 0.52542,
   2.16583 1.11811 0.47176,
   2.10955 1.11811 0.52803,
   2.16817 1.11811 0.46646,
   2.10425 1.11811 0.53038,
   2.09885 1.11811 0.53247,
   2.17026 1.11811 0.46105,
   2.17208 1.11811 0.45555,
   2.09334 1.11811 0.53428,
   2.08775 1.11811 0.53583,
   2.17363 1.11811 0.44996,
   2.17490 1.11811 0.44430,
   2.08210 1.11811 0.53710,
   2.17589 1.11811 0.43859,
   2.07639 1.11811 0.53809,
   2.17660 1.11811 0.43284,
   2.07063 1.11811 0.53880,
   2.17702 1.11811 0.42706,
   2.06485 1.11811 0.53923,
   2.05906 1.11811 0.53937,
   2.17717 1.11811 0.42126,
   2.09843 1.11811 0.11811,
   2.17717 1.11811 0.11811,
   1.53937 1.11811 0.53937,
   1.92520 0.87402 0.11811,
   1.92520 1.12598 0.11811,
   2.99213 1.12598 0.11811,
   2.99213 0.87402 0.11811,
   1.92520 0.87402 0.00000,
   1.92520 1.12598 0.00000,
   2.99213 1.12598 0.00000,
   2.99213 0.87402 0.00000,
   1.53937 2.11811 0.46063,
   2.05906 1.88189 0.46063,
   1.53937 1.88189 0.46063,
   2.05906 2.11811 0.46063,
   1.53937 1.88189 0.53937,
   2.05906 1.88189 0.53937,
   2.06099 1.88189 0.46058,
   2.06485 1.88189 0.53923,
   2.06291 1.88189 0.46044,
   2.07063 1.88189 0.53880,
   2.06483 1.88189 0.46020,
   2.07639 1.88189 0.53809,
   2.06674 1.88189 0.45987,
   2.08210 1.88189 0.53710,
   2.06862 1.88189 0.45945,
   2.08775 1.88189 0.53583,
   2.07048 1.88189 0.45893,
   2.09334 1.88189 0.53428,
   2.07232 1.88189 0.45833,
   2.09885 1.88189 0.53247,
   2.07412 1.88189 0.45763,
   2.10425 1.88189 0.53038,
   2.07589 1.88189 0.45685,
   2.10955 1.88189 0.52803,
   2.07761 1.88189 0.45598,
   2.11473 1.88189 0.52542,
   2.07930 1.88189 0.45503,
   2.11978 1.88189 0.52257,
   2.08093 1.88189 0.45399,
   2.12467 1.88189 0.51946,
   2.08251 1.88189 0.45288,
   2.12941 1.88189 0.51613,
   2.08403 1.88189 0.45169,
   2.13398 1.88189 0.51256,
   2.08549 1.88189 0.45043,
   2.13837 1.88189 0.50877,
   2.08689 1.88189 0.44910,
   2.14257 1.88189 0.50478,
   2.14657 1.88189 0.50058,
   2.08823 1.88189 0.44770,
   2.15036 1.88189 0.49619,
   2.08949 1.88189 0.44624,
   2.15392 1.88189 0.49162,
   2.09068 1.88189 0.44471,
   2.15726 1.88189 0.48688,
   2.09282 1.88189 0.44150,
   2.09179 1.88189 0.44313,
   2.09378 1.88189 0.43982,
   2.16036 1.88189 0.48198,
   2.16322 1.88189 0.47694,
   2.09465 1.88189 0.43809,
   2.16583 1.88189 0.47176,
   2.09543 1.88189 0.43633,
   2.16817 1.88189 0.46646,
   2.09612 1.88189 0.43452,
   2.17026 1.88189 0.46105,
   2.09673 1.88189 0.43269,
   2.17208 1.88189 0.45555,
   2.09725 1.88189 0.43083,
   2.17363 1.88189 0.44996,
   2.09767 1.88189 0.42894,
   2.17490 1.88189 0.44430,
   2.09824 1.88189 0.42512,
   2.17589 1.88189 0.43859,
   2.09800 1.88189 0.42704,
   2.17660 1.88189 0.43284,
   2.17702 1.88189 0.42706,
   2.09843 1.88189 0.42126,
   2.09838 1.88189 0.42319,
   2.17717 1.88189 0.42126,
   2.17717 1.88189 0.11811,
   2.09843 1.88189 0.11811,
   2.09843 2.11811 0.42126,
   2.09838 2.11811 0.42319,
   2.09824 2.11811 0.42512,
   2.09800 2.11811 0.42704,
   2.09767 2.11811 0.42894,
   2.09725 2.11811 0.43083,
   2.09673 2.11811 0.43269,
   2.09612 2.11811 0.43452,
   2.09543 2.11811 0.43633,
   2.09465 2.11811 0.43809,
   2.09378 2.11811 0.43982,
   2.09282 2.11811 0.44150,
   2.09179 2.11811 0.44313,
   2.09068 2.11811 0.44471,
   2.08949 2.11811 0.44624,
   2.08823 2.11811 0.44770,
   2.08689 2.11811 0.44910,
   2.08549 2.11811 0.45043,
   2.08403 2.11811 0.45169,
   2.08251 2.11811 0.45288,
   2.08093 2.11811 0.45399,
   2.07930 2.11811 0.45503,
   2.07761 2.11811 0.45598,
   2.07589 2.11811 0.45685,
   2.07412 2.11811 0.45763,
   2.07232 2.11811 0.45833,
   2.07048 2.11811 0.45893,
   2.06862 2.11811 0.45945,
   2.06674 2.11811 0.45987,
   2.06483 2.11811 0.46020,
   2.06291 2.11811 0.46044,
   2.06099 2.11811 0.46058,
   2.14657 2.11811 0.50058,
   2.14257 2.11811 0.50478,
   2.13837 2.11811 0.50877,
   2.13398 2.11811 0.51256,
   2.15036 2.11811 0.49619,
   2.12941 2.11811 0.51613,
   2.15392 2.11811 0.49162,
   2.12467 2.11811 0.51946,
   2.15726 2.11811 0.48688,
   2.16036 2.11811 0.48198,
   2.11978 2.11811 0.52257,
   2.16322 2.11811 0.47694,
   2.11473 2.11811 0.52542,
   2.16583 2.11811 0.47176,
   2.10955 2.11811 0.52803,
   2.16817 2.11811 0.46646,
   2.10425 2.11811 0.53038,
   2.09885 2.11811 0.53247,
   2.17026 2.11811 0.46105,
   2.17208 2.11811 0.45555,
   2.09334 2.11811 0.53428,
   2.08775 2.11811 0.53583,
   2.17363 2.11811 0.44996,
   2.17490 2.11811 0.44430,
   2.08210 2.11811 0.53710,
   2.17589 2.11811 0.43859,
   2.07639 2.11811 0.53809,
   2.17660 2.11811 0.43284,
   2.07063 2.11811 0.53880,
   2.17702 2.11811 0.42706,
   2.06485 2.11811 0.53923,
   2.05906 2.11811 0.53937,
   2.17717 2.11811 0.42126,
   2.09843 2.11811 0.11811,
   2.17717 2.11811 0.11811,
   1.53937 2.11811 0.53937,
   1.92520 1.87402 0.11811,
   1.92520 2.12598 0.11811,
   2.99213 2.12598 0.11811,
   2.99213 1.87402 0.11811,
   1.92520 1.87402 0.00000,
   1.92520 2.12598 0.00000,
   2.99213 2.12598 0.00000,
   2.99213 1.87402 0.00000
  ] }
  coordIndex [
   0,1,2,-1,
   0,3,1,-1,
   2,1,4,-1,
   4,1,5,-1,
   5,6,7,-1,
   1,6,5,-1,
   7,8,9,-1,
   6,8,7,-1,
   8,10,9,-1,
   9,10,11,-1,
   11,12,13,-1,
   10,12,11,-1,
   13,14,15,-1,
   12,14,13,-1,
   15,16,17,-1,
   14,16,15,-1,
   17,18,19,-1,
   16,18,17,-1,
   19,20,21,-1,
   18,20,19,-1,
   21,22,23,-1,
   20,22,21,-1,
   23,24,25,-1,
   22,24,23,-1,
   25,26,27,-1,
   24,26,25,-1,
   27,28,29,-1,
   26,28,27,-1,
   29,30,31,-1,
   28,30,29,-1,
   31,32,33,-1,
   30,32,31,-1,
   33,34,35,-1,
   32,34,33,-1,
   34,36,35,-1,
   36,37,35,-1,
   36,38,37,-1,
   39,38,36,-1,
   39,40,38,-1,
   41,40,39,-1,
   41,42,40,-1,
   43,42,41,-1,
   43,44,42,-1,
   45,44,46,-1,
   46,44,43,-1,
   47,48,45,-1,
   45,48,44,-1,
   47,49,48,-1,
   50,51,47,-1,
   47,51,49,-1,
   52,53,50,-1,
   50,53,51,-1,
   54,55,52,-1,
   52,55,53,-1,
   56,57,54,-1,
   54,57,55,-1,
   58,59,56,-1,
   56,59,57,-1,
   60,61,58,-1,
   58,61,59,-1,
   62,63,64,-1,
   64,63,60,-1,
   60,63,61,-1,
   62,65,63,-1,
   62,66,65,-1,
   67,66,68,-1,
   68,66,62,-1,
   67,69,66,-1,
   67,70,69,-1,
   71,70,67,-1,
   67,68,72,-1,
   72,68,73,-1,
   73,62,74,-1,
   68,62,73,-1,
   74,64,75,-1,
   62,64,74,-1,
   75,60,76,-1,
   64,60,75,-1,
   76,58,77,-1,
   60,58,76,-1,
   77,56,78,-1,
   58,56,77,-1,
   78,54,79,-1,
   56,54,78,-1,
   79,52,80,-1,
   54,52,79,-1,
   52,50,80,-1,
   80,50,81,-1,
   81,47,82,-1,
   50,47,81,-1,
   82,47,83,-1,
   47,45,83,-1,
   83,46,84,-1,
   45,46,83,-1,
   84,43,85,-1,
   46,43,84,-1,
   85,41,86,-1,
   43,41,85,-1,
   86,39,87,-1,
   41,39,86,-1,
   87,36,88,-1,
   39,36,87,-1,
   88,34,89,-1,
   36,34,88,-1,
   89,32,90,-1,
   34,32,89,-1,
   90,30,91,-1,
   91,30,92,-1,
   32,30,90,-1,
   30,28,92,-1,
   92,26,93,-1,
   28,26,92,-1,
   93,24,94,-1,
   26,24,93,-1,
   94,22,95,-1,
   95,22,96,-1,
   24,22,94,-1,
   96,20,97,-1,
   22,20,96,-1,
   20,18,97,-1,
   97,16,98,-1,
   18,16,97,-1,
   98,14,99,-1,
   16,14,98,-1,
   99,12,100,-1,
   14,12,99,-1,
   100,10,101,-1,
   12,10,100,-1,
   101,8,102,-1,
   10,8,101,-1,
   102,6,103,-1,
   8,6,102,-1,
   103,1,3,-1,
   6,1,103,-1,
   104,87,105,-1,
   105,87,88,-1,
   105,89,106,-1,
   88,89,105,-1,
   89,90,106,-1,
   106,90,107,-1,
   104,86,87,-1,
   108,86,104,-1,
   90,91,107,-1,
   107,91,109,-1,
   108,85,86,-1,
   110,85,108,-1,
   109,92,111,-1,
   91,92,109,-1,
   110,84,85,-1,
   112,84,110,-1,
   112,83,84,-1,
   113,83,112,-1,
   111,93,114,-1,
   92,93,111,-1,
   113,82,83,-1,
   115,82,113,-1,
   114,94,116,-1,
   93,94,114,-1,
   115,81,82,-1,
   117,81,115,-1,
   116,95,118,-1,
   94,95,116,-1,
   119,80,117,-1,
   117,80,81,-1,
   118,96,120,-1,
   95,96,118,-1,
   120,97,121,-1,
   96,97,120,-1,
   119,79,80,-1,
   122,79,119,-1,
   122,78,79,-1,
   123,78,122,-1,
   97,98,121,-1,
   121,98,124,-1,
   124,99,125,-1,
   98,99,124,-1,
   126,77,123,-1,
   123,77,78,-1,
   127,76,126,-1,
   126,76,77,-1,
   125,100,128,-1,
   99,100,125,-1,
   129,75,127,-1,
   127,75,76,-1,
   100,101,128,-1,
   128,101,130,-1,
   131,74,129,-1,
   129,74,75,-1,
   130,102,132,-1,
   101,102,130,-1,
   133,73,131,-1,
   131,73,74,-1,
   102,103,132,-1,
   132,103,134,-1,
   103,3,134,-1,
   134,3,135,-1,
   136,72,133,-1,
   133,72,73,-1,
   136,137,72,-1,
   138,137,136,-1,
   135,0,139,-1,
   3,0,135,-1,
   0,4,139,-1,
   2,4,0,-1,
   72,137,71,-1,
   72,71,67,-1,
   70,71,140,-1,
   137,141,140,-1,
   137,140,71,-1,
   142,138,70,-1,
   142,70,143,-1,
   140,143,70,-1,
   142,141,137,-1,
   142,137,138,-1,
   70,136,69,-1,
   138,136,70,-1,
   66,69,136,-1,
   66,136,133,-1,
   65,133,131,-1,
   65,66,133,-1,
   63,131,129,-1,
   63,65,131,-1,
   61,129,127,-1,
   61,63,129,-1,
   59,127,126,-1,
   59,61,127,-1,
   57,126,123,-1,
   57,59,126,-1,
   55,123,122,-1,
   55,57,123,-1,
   53,55,122,-1,
   53,122,119,-1,
   51,53,119,-1,
   51,119,117,-1,
   49,51,117,-1,
   49,117,115,-1,
   48,49,115,-1,
   48,115,113,-1,
   44,48,113,-1,
   44,113,112,-1,
   42,44,112,-1,
   42,110,108,-1,
   42,112,110,-1,
   40,42,108,-1,
   40,108,104,-1,
   38,40,104,-1,
   38,104,105,-1,
   37,38,105,-1,
   35,37,105,-1,
   35,105,106,-1,
   33,35,106,-1,
   33,106,107,-1,
   31,109,111,-1,
   31,107,109,-1,
   31,33,107,-1,
   29,31,111,-1,
   29,111,114,-1,
   27,29,114,-1,
   25,114,116,-1,
   25,27,114,-1,
   23,116,118,-1,
   23,25,116,-1,
   21,118,120,-1,
   21,23,118,-1,
   19,120,121,-1,
   19,21,120,-1,
   17,124,125,-1,
   17,121,124,-1,
   17,19,121,-1,
   15,17,125,-1,
   13,128,130,-1,
   13,125,128,-1,
   13,15,125,-1,
   11,13,130,-1,
   9,130,132,-1,
   9,11,130,-1,
   7,132,134,-1,
   7,9,132,-1,
   5,134,135,-1,
   5,7,134,-1,
   5,139,4,-1,
   135,139,5,-1,
   144,140,145,-1,
   145,140,141,-1,
   142,146,145,-1,
   142,145,141,-1,
   147,143,144,-1,
   144,143,140,-1,
   143,147,146,-1,
   143,146,142,-1,
   144,146,147,-1,
   145,146,144,-1,
   148,149,150,-1,
   148,151,149,-1,
   150,149,152,-1,
   152,149,153,-1,
   153,154,155,-1,
   149,154,153,-1,
   155,156,157,-1,
   154,156,155,-1,
   156,158,157,-1,
   157,158,159,-1,
   159,160,161,-1,
   158,160,159,-1,
   161,162,163,-1,
   160,162,161,-1,
   163,164,165,-1,
   162,164,163,-1,
   165,166,167,-1,
   164,166,165,-1,
   167,168,169,-1,
   166,168,167,-1,
   169,170,171,-1,
   168,170,169,-1,
   171,172,173,-1,
   170,172,171,-1,
   173,174,175,-1,
   172,174,173,-1,
   175,176,177,-1,
   174,176,175,-1,
   177,178,179,-1,
   176,178,177,-1,
   179,180,181,-1,
   178,180,179,-1,
   181,182,183,-1,
   180,182,181,-1,
   182,184,183,-1,
   184,185,183,-1,
   184,186,185,-1,
   187,186,184,-1,
   187,188,186,-1,
   189,188,187,-1,
   189,190,188,-1,
   191,190,189,-1,
   191,192,190,-1,
   193,192,194,-1,
   194,192,191,-1,
   195,196,193,-1,
   193,196,192,-1,
   195,197,196,-1,
   198,199,195,-1,
   195,199,197,-1,
   200,201,198,-1,
   198,201,199,-1,
   202,203,200,-1,
   200,203,201,-1,
   204,205,202,-1,
   202,205,203,-1,
   206,207,204,-1,
   204,207,205,-1,
   208,209,206,-1,
   206,209,207,-1,
   210,211,212,-1,
   212,211,208,-1,
   208,211,209,-1,
   210,213,211,-1,
   210,214,213,-1,
   215,214,216,-1,
   216,214,210,-1,
   215,217,214,-1,
   215,218,217,-1,
   219,218,215,-1,
   215,216,220,-1,
   220,216,221,-1,
   221,210,222,-1,
   216,210,221,-1,
   222,212,223,-1,
   210,212,222,-1,
   223,208,224,-1,
   212,208,223,-1,
   224,206,225,-1,
   208,206,224,-1,
   225,204,226,-1,
   206,204,225,-1,
   226,202,227,-1,
   204,202,226,-1,
   227,200,228,-1,
   202,200,227,-1,
   200,198,228,-1,
   228,198,229,-1,
   229,195,230,-1,
   198,195,229,-1,
   230,195,231,-1,
   195,193,231,-1,
   231,194,232,-1,
   232,194,233,-1,
   193,194,231,-1,
   194,191,233,-1,
   233,189,234,-1,
   234,189,235,-1,
   191,189,233,-1,
   189,187,235,-1,
   235,184,236,-1,
   236,184,237,-1,
   187,184,235,-1,
   184,182,237,-1,
   237,180,238,-1,
   182,180,237,-1,
   238,178,239,-1,
   180,178,238,-1,
   239,176,240,-1,
   178,176,239,-1,
   240,174,241,-1,
   241,174,242,-1,
   176,174,240,-1,
   174,172,242,-1,
   242,170,243,-1,
   172,170,242,-1,
   243,168,244,-1,
   170,168,243,-1,
   244,166,245,-1,
   245,166,246,-1,
   168,166,244,-1,
   166,164,246,-1,
   246,162,247,-1,
   247,162,248,-1,
   164,162,246,-1,
   162,160,248,-1,
   248,158,249,-1,
   160,158,248,-1,
   249,156,250,-1,
   250,156,251,-1,
   158,156,249,-1,
   251,154,151,-1,
   156,154,251,-1,
   154,149,151,-1,
   252,235,253,-1,
   253,235,236,-1,
   253,237,254,-1,
   236,237,253,-1,
   237,238,254,-1,
   254,238,255,-1,
   252,234,235,-1,
   256,234,252,-1,
   238,239,255,-1,
   255,239,257,-1,
   256,233,234,-1,
   258,233,256,-1,
   257,240,259,-1,
   239,240,257,-1,
   258,232,233,-1,
   260,232,258,-1,
   260,231,232,-1,
   261,231,260,-1,
   259,241,262,-1,
   240,241,259,-1,
   261,230,231,-1,
   263,230,261,-1,
   262,242,264,-1,
   241,242,262,-1,
   263,229,230,-1,
   265,229,263,-1,
   264,243,266,-1,
   242,243,264,-1,
   267,228,265,-1,
   265,228,229,-1,
   266,244,268,-1,
   243,244,266,-1,
   268,245,269,-1,
   244,245,268,-1,
   267,227,228,-1,
   270,227,267,-1,
   270,226,227,-1,
   271,226,270,-1,
   245,246,269,-1,
   269,246,272,-1,
   272,247,273,-1,
   246,247,272,-1,
   274,225,271,-1,
   271,225,226,-1,
   275,224,274,-1,
   274,224,225,-1,
   273,248,276,-1,
   247,248,273,-1,
   277,223,275,-1,
   275,223,224,-1,
   248,249,276,-1,
   276,249,278,-1,
   279,222,277,-1,
   277,222,223,-1,
   278,250,280,-1,
   249,250,278,-1,
   281,221,279,-1,
   279,221,222,-1,
   250,251,280,-1,
   280,251,282,-1,
   251,151,282,-1,
   282,151,283,-1,
   284,220,281,-1,
   281,220,221,-1,
   284,285,220,-1,
   286,285,284,-1,
   283,148,287,-1,
   151,148,283,-1,
   148,152,287,-1,
   150,152,148,-1,
   220,285,219,-1,
   220,219,215,-1,
   218,219,288,-1,
   285,289,288,-1,
   285,288,219,-1,
   290,286,218,-1,
   290,218,291,-1,
   288,291,218,-1,
   290,289,285,-1,
   290,285,286,-1,
   218,284,217,-1,
   286,284,218,-1,
   214,217,284,-1,
   214,284,281,-1,
   213,281,279,-1,
   213,214,281,-1,
   211,279,277,-1,
   211,213,279,-1,
   209,277,275,-1,
   209,211,277,-1,
   207,275,274,-1,
   207,209,275,-1,
   205,274,271,-1,
   205,207,274,-1,
   203,271,270,-1,
   203,205,271,-1,
   201,203,270,-1,
   201,270,267,-1,
   199,201,267,-1,
   199,267,265,-1,
   197,199,265,-1,
   197,265,263,-1,
   196,197,263,-1,
   196,263,261,-1,
   192,196,261,-1,
   192,260,258,-1,
   192,261,260,-1,
   190,192,258,-1,
   188,190,258,-1,
   188,258,256,-1,
   186,188,256,-1,
   186,252,253,-1,
   186,256,252,-1,
   185,186,253,-1,
   183,185,253,-1,
   183,253,254,-1,
   181,183,254,-1,
   181,254,255,-1,
   179,255,257,-1,
   179,181,255,-1,
   177,257,259,-1,
   177,179,257,-1,
   175,177,259,-1,
   175,259,262,-1,
   173,262,264,-1,
   173,175,262,-1,
   171,173,264,-1,
   171,266,268,-1,
   171,264,266,-1,
   169,268,269,-1,
   169,171,268,-1,
   167,169,269,-1,
   165,272,273,-1,
   165,269,272,-1,
   165,167,269,-1,
   163,273,276,-1,
   163,165,273,-1,
   161,276,278,-1,
   161,163,276,-1,
   159,161,278,-1,
   157,278,280,-1,
   157,159,278,-1,
   155,280,282,-1,
   155,157,280,-1,
   153,282,283,-1,
   153,155,282,-1,
   153,287,152,-1,
   283,287,153,-1,
   292,288,293,-1,
   293,288,289,-1,
   290,294,293,-1,
   290,293,289,-1,
   295,291,292,-1,
   292,291,288,-1,
   291,295,294,-1,
   291,294,290,-1,
   292,294,295,-1,
   293,294,292,-1,
   296,297,298,-1,
   296,299,297,-1,
   298,297,300,-1,
   300,297,301,-1,
   301,302,303,-1,
   297,302,301,-1,
   303,304,305,-1,
   302,304,303,-1,
   304,306,305,-1,
   305,306,307,-1,
   307,308,309,-1,
   306,308,307,-1,
   309,310,311,-1,
   308,310,309,-1,
   311,312,313,-1,
   310,312,311,-1,
   313,314,315,-1,
   312,314,313,-1,
   315,316,317,-1,
   314,316,315,-1,
   317,318,319,-1,
   316,318,317,-1,
   319,320,321,-1,
   318,320,319,-1,
   321,322,323,-1,
   320,322,321,-1,
   323,324,325,-1,
   322,324,323,-1,
   325,326,327,-1,
   324,326,325,-1,
   327,328,329,-1,
   326,328,327,-1,
   329,330,331,-1,
   328,330,329,-1,
   330,332,331,-1,
   332,333,331,-1,
   332,334,333,-1,
   335,334,332,-1,
   335,336,334,-1,
   337,336,335,-1,
   337,338,336,-1,
   339,338,337,-1,
   339,340,338,-1,
   341,340,342,-1,
   342,340,339,-1,
   343,344,341,-1,
   341,344,340,-1,
   343,345,344,-1,
   346,347,343,-1,
   343,347,345,-1,
   348,349,346,-1,
   346,349,347,-1,
   350,351,348,-1,
   348,351,349,-1,
   352,353,350,-1,
   350,353,351,-1,
   354,355,352,-1,
   352,355,353,-1,
   356,357,354,-1,
   354,357,355,-1,
   358,359,360,-1,
   360,359,356,-1,
   356,359,357,-1,
   358,361,359,-1,
   358,362,361,-1,
   363,362,364,-1,
   364,362,358,-1,
   363,365,362,-1,
   363,366,365,-1,
   367,366,363,-1,
   363,364,368,-1,
   368,364,369,-1,
   369,358,370,-1,
   364,358,369,-1,
   370,360,371,-1,
   358,360,370,-1,
   371,356,372,-1,
   360,356,371,-1,
   372,354,373,-1,
   356,354,372,-1,
   373,352,374,-1,
   354,352,373,-1,
   374,350,375,-1,
   352,350,374,-1,
   375,348,376,-1,
   350,348,375,-1,
   348,346,376,-1,
   376,346,377,-1,
   377,343,378,-1,
   346,343,377,-1,
   378,343,379,-1,
   343,341,379,-1,
   379,342,380,-1,
   380,342,381,-1,
   341,342,379,-1,
   342,339,381,-1,
   381,337,382,-1,
   382,337,383,-1,
   339,337,381,-1,
   337,335,383,-1,
   383,332,384,-1,
   384,332,385,-1,
   335,332,383,-1,
   332,330,385,-1,
   385,328,386,-1,
   330,328,385,-1,
   386,326,387,-1,
   328,326,386,-1,
   387,324,388,-1,
   326,324,387,-1,
   388,322,389,-1,
   389,322,390,-1,
   324,322,388,-1,
   322,320,390,-1,
   390,318,391,-1,
   320,318,390,-1,
   391,316,392,-1,
   318,316,391,-1,
   392,314,393,-1,
   393,314,394,-1,
   316,314,392,-1,
   314,312,394,-1,
   394,310,395,-1,
   395,310,396,-1,
   312,310,394,-1,
   310,308,396,-1,
   396,306,397,-1,
   308,306,396,-1,
   397,304,398,-1,
   398,304,399,-1,
   306,304,397,-1,
   399,302,299,-1,
   304,302,399,-1,
   302,297,299,-1,
   400,383,401,-1,
   401,383,384,-1,
   401,385,402,-1,
   384,385,401,-1,
   385,386,402,-1,
   402,386,403,-1,
   400,382,383,-1,
   404,382,400,-1,
   386,387,403,-1,
   403,387,405,-1,
   404,381,382,-1,
   406,381,404,-1,
   405,388,407,-1,
   387,388,405,-1,
   406,380,381,-1,
   408,380,406,-1,
   408,379,380,-1,
   409,379,408,-1,
   407,389,410,-1,
   388,389,407,-1,
   409,378,379,-1,
   411,378,409,-1,
   410,390,412,-1,
   389,390,410,-1,
   411,377,378,-1,
   413,377,411,-1,
   412,391,414,-1,
   390,391,412,-1,
   415,376,413,-1,
   413,376,377,-1,
   414,392,416,-1,
   391,392,414,-1,
   416,393,417,-1,
   392,393,416,-1,
   415,375,376,-1,
   418,375,415,-1,
   418,374,375,-1,
   419,374,418,-1,
   393,394,417,-1,
   417,394,420,-1,
   420,395,421,-1,
   394,395,420,-1,
   422,373,419,-1,
   419,373,374,-1,
   423,372,422,-1,
   422,372,373,-1,
   421,396,424,-1,
   395,396,421,-1,
   425,371,423,-1,
   423,371,372,-1,
   396,397,424,-1,
   424,397,426,-1,
   427,370,425,-1,
   425,370,371,-1,
   426,398,428,-1,
   397,398,426,-1,
   429,369,427,-1,
   427,369,370,-1,
   398,399,428,-1,
   428,399,430,-1,
   399,299,430,-1,
   430,299,431,-1,
   432,368,429,-1,
   429,368,369,-1,
   432,433,368,-1,
   434,433,432,-1,
   431,296,435,-1,
   299,296,431,-1,
   296,300,435,-1,
   298,300,296,-1,
   368,433,367,-1,
   368,367,363,-1,
   366,367,436,-1,
   433,437,436,-1,
   433,436,367,-1,
   438,434,366,-1,
   438,366,439,-1,
   436,439,366,-1,
   438,437,433,-1,
   438,433,434,-1,
   366,432,365,-1,
   434,432,366,-1,
   362,365,432,-1,
   362,432,429,-1,
   361,429,427,-1,
   361,362,429,-1,
   359,427,425,-1,
   359,361,427,-1,
   357,425,423,-1,
   357,359,425,-1,
   355,423,422,-1,
   355,357,423,-1,
   353,422,419,-1,
   353,355,422,-1,
   351,419,418,-1,
   351,353,419,-1,
   349,351,418,-1,
   349,418,415,-1,
   347,349,415,-1,
   347,415,413,-1,
   345,347,413,-1,
   345,413,411,-1,
   344,345,411,-1,
   344,411,409,-1,
   340,344,409,-1,
   340,408,406,-1,
   340,409,408,-1,
   338,340,406,-1,
   336,338,406,-1,
   336,406,404,-1,
   334,336,404,-1,
   334,400,401,-1,
   334,404,400,-1,
   333,334,401,-1,
   331,333,401,-1,
   331,401,402,-1,
   329,331,402,-1,
   329,402,403,-1,
   327,403,405,-1,
   327,329,403,-1,
   325,405,407,-1,
   325,327,405,-1,
   323,325,407,-1,
   323,407,410,-1,
   321,410,412,-1,
   321,323,410,-1,
   319,321,412,-1,
   319,414,416,-1,
   319,412,414,-1,
   317,416,417,-1,
   317,319,416,-1,
   315,317,417,-1,
   313,420,421,-1,
   313,417,420,-1,
   313,315,417,-1,
   311,421,424,-1,
   311,313,421,-1,
   309,424,426,-1,
   309,311,424,-1,
   307,309,426,-1,
   305,426,428,-1,
   305,307,426,-1,
   303,428,430,-1,
   303,305,428,-1,
   301,430,431,-1,
   301,303,430,-1,
   301,435,300,-1,
   431,435,301,-1,
   440,436,441,-1,
   441,436,437,-1,
   438,442,441,-1,
   438,441,437,-1,
   443,439,440,-1,
   440,439,436,-1,
   439,443,442,-1,
   439,442,438,-1,
   440,442,443,-1,
   441,442,440,-1,
   444,445,446,-1,
   444,447,445,-1,
   446,445,448,-1,
   448,445,449,-1,
   449,450,451,-1,
   445,450,449,-1,
   451,452,453,-1,
   450,452,451,-1,
   452,454,453,-1,
   453,454,455,-1,
   455,456,457,-1,
   454,456,455,-1,
   457,458,459,-1,
   456,458,457,-1,
   459,460,461,-1,
   458,460,459,-1,
   461,462,463,-1,
   460,462,461,-1,
   463,464,465,-1,
   462,464,463,-1,
   465,466,467,-1,
   464,466,465,-1,
   467,468,469,-1,
   466,468,467,-1,
   469,470,471,-1,
   468,470,469,-1,
   471,472,473,-1,
   470,472,471,-1,
   473,474,475,-1,
   472,474,473,-1,
   475,476,477,-1,
   474,476,475,-1,
   477,478,479,-1,
   476,478,477,-1,
   478,480,479,-1,
   480,481,479,-1,
   480,482,481,-1,
   483,482,480,-1,
   483,484,482,-1,
   485,484,483,-1,
   485,486,484,-1,
   487,486,485,-1,
   487,488,486,-1,
   489,488,490,-1,
   490,488,487,-1,
   491,492,489,-1,
   489,492,488,-1,
   491,493,492,-1,
   494,495,491,-1,
   491,495,493,-1,
   496,497,494,-1,
   494,497,495,-1,
   498,499,496,-1,
   496,499,497,-1,
   500,501,498,-1,
   498,501,499,-1,
   502,503,500,-1,
   500,503,501,-1,
   504,505,502,-1,
   502,505,503,-1,
   506,507,508,-1,
   508,507,504,-1,
   504,507,505,-1,
   506,509,507,-1,
   506,510,509,-1,
   511,510,512,-1,
   512,510,506,-1,
   511,513,510,-1,
   511,514,513,-1,
   515,514,511,-1,
   511,512,516,-1,
   516,512,517,-1,
   517,506,518,-1,
   512,506,517,-1,
   518,508,519,-1,
   506,508,518,-1,
   519,504,520,-1,
   508,504,519,-1,
   520,502,521,-1,
   504,502,520,-1,
   521,500,522,-1,
   502,500,521,-1,
   522,498,523,-1,
   500,498,522,-1,
   523,496,524,-1,
   498,496,523,-1,
   496,494,524,-1,
   524,494,525,-1,
   525,491,526,-1,
   494,491,525,-1,
   526,491,527,-1,
   491,489,527,-1,
   527,490,528,-1,
   528,490,529,-1,
   489,490,527,-1,
   490,487,529,-1,
   529,485,530,-1,
   530,485,531,-1,
   487,485,529,-1,
   485,483,531,-1,
   531,480,532,-1,
   532,480,533,-1,
   483,480,531,-1,
   480,478,533,-1,
   533,476,534,-1,
   478,476,533,-1,
   534,474,535,-1,
   476,474,534,-1,
   535,472,536,-1,
   474,472,535,-1,
   536,470,537,-1,
   537,470,538,-1,
   472,470,536,-1,
   470,468,538,-1,
   538,466,539,-1,
   468,466,538,-1,
   539,464,540,-1,
   466,464,539,-1,
   540,462,541,-1,
   541,462,542,-1,
   464,462,540,-1,
   462,460,542,-1,
   542,458,543,-1,
   543,458,544,-1,
   460,458,542,-1,
   458,456,544,-1,
   544,454,545,-1,
   456,454,544,-1,
   545,452,546,-1,
   546,452,547,-1,
   454,452,545,-1,
   452,450,547,-1,
   547,445,447,-1,
   450,445,547,-1,
   548,531,549,-1,
   549,531,532,-1,
   549,533,550,-1,
   532,533,549,-1,
   533,534,550,-1,
   550,534,551,-1,
   548,530,531,-1,
   552,530,548,-1,
   534,535,551,-1,
   551,535,553,-1,
   552,529,530,-1,
   554,529,552,-1,
   553,536,555,-1,
   535,536,553,-1,
   554,528,529,-1,
   556,528,554,-1,
   556,527,528,-1,
   557,527,556,-1,
   555,537,558,-1,
   536,537,555,-1,
   557,526,527,-1,
   559,526,557,-1,
   558,538,560,-1,
   537,538,558,-1,
   559,525,526,-1,
   561,525,559,-1,
   560,539,562,-1,
   538,539,560,-1,
   563,524,561,-1,
   561,524,525,-1,
   562,540,564,-1,
   539,540,562,-1,
   564,541,565,-1,
   540,541,564,-1,
   563,523,524,-1,
   566,523,563,-1,
   566,522,523,-1,
   567,522,566,-1,
   541,542,565,-1,
   565,542,568,-1,
   568,543,569,-1,
   542,543,568,-1,
   570,521,567,-1,
   567,521,522,-1,
   571,520,570,-1,
   570,520,521,-1,
   569,544,572,-1,
   543,544,569,-1,
   573,519,571,-1,
   571,519,520,-1,
   544,545,572,-1,
   572,545,574,-1,
   575,518,573,-1,
   573,518,519,-1,
   574,546,576,-1,
   545,546,574,-1,
   577,517,575,-1,
   575,517,518,-1,
   546,547,576,-1,
   576,547,578,-1,
   547,447,578,-1,
   578,447,579,-1,
   580,516,577,-1,
   577,516,517,-1,
   580,581,516,-1,
   582,581,580,-1,
   579,444,583,-1,
   447,444,579,-1,
   444,448,583,-1,
   446,448,444,-1,
   516,581,515,-1,
   516,515,511,-1,
   514,515,584,-1,
   581,585,584,-1,
   581,584,515,-1,
   586,582,514,-1,
   586,514,587,-1,
   584,587,514,-1,
   586,585,581,-1,
   586,581,582,-1,
   514,580,513,-1,
   582,580,514,-1,
   510,513,580,-1,
   510,580,577,-1,
   509,577,575,-1,
   509,510,577,-1,
   507,575,573,-1,
   507,509,575,-1,
   505,573,571,-1,
   505,507,573,-1,
   503,571,570,-1,
   503,505,571,-1,
   501,570,567,-1,
   501,503,570,-1,
   499,567,566,-1,
   499,501,567,-1,
   497,499,566,-1,
   497,566,563,-1,
   495,497,563,-1,
   495,563,561,-1,
   493,495,561,-1,
   493,561,559,-1,
   492,493,559,-1,
   492,559,557,-1,
   488,492,557,-1,
   488,556,554,-1,
   488,557,556,-1,
   486,488,554,-1,
   484,486,554,-1,
   484,554,552,-1,
   482,484,552,-1,
   482,548,549,-1,
   482,552,548,-1,
   481,482,549,-1,
   479,481,549,-1,
   479,549,550,-1,
   477,479,550,-1,
   477,550,551,-1,
   475,551,553,-1,
   475,477,551,-1,
   473,553,555,-1,
   473,475,553,-1,
   471,473,555,-1,
   471,555,558,-1,
   469,558,560,-1,
   469,471,558,-1,
   467,469,560,-1,
   467,562,564,-1,
   467,560,562,-1,
   465,564,565,-1,
   465,467,564,-1,
   463,465,565,-1,
   461,568,569,-1,
   461,565,568,-1,
   461,463,565,-1,
   459,569,572,-1,
   459,461,569,-1,
   457,572,574,-1,
   457,459,572,-1,
   455,457,574,-1,
   453,574,576,-1,
   453,455,574,-1,
   451,576,578,-1,
   451,453,576,-1,
   449,578,579,-1,
   449,451,578,-1,
   449,583,448,-1,
   579,583,449,-1,
   588,584,589,-1,
   589,584,585,-1,
   586,590,589,-1,
   586,589,585,-1,
   591,587,588,-1,
   588,587,584,-1,
   587,591,590,-1,
   587,590,586,-1,
   588,590,591,-1,
   589,590,588,-1,
   592,593,594,-1,
   592,595,593,-1,
   594,593,596,-1,
   596,593,597,-1,
   597,598,599,-1,
   593,598,597,-1,
   599,600,601,-1,
   598,600,599,-1,
   600,602,601,-1,
   601,602,603,-1,
   603,604,605,-1,
   602,604,603,-1,
   605,606,607,-1,
   604,606,605,-1,
   607,608,609,-1,
   606,608,607,-1,
   609,610,611,-1,
   608,610,609,-1,
   611,612,613,-1,
   610,612,611,-1,
   613,614,615,-1,
   612,614,613,-1,
   615,616,617,-1,
   614,616,615,-1,
   617,618,619,-1,
   616,618,617,-1,
   619,620,621,-1,
   618,620,619,-1,
   621,622,623,-1,
   620,622,621,-1,
   623,624,625,-1,
   622,624,623,-1,
   625,626,627,-1,
   624,626,625,-1,
   626,628,627,-1,
   628,629,627,-1,
   628,630,629,-1,
   631,630,628,-1,
   631,632,630,-1,
   633,632,631,-1,
   633,634,632,-1,
   635,634,633,-1,
   635,636,634,-1,
   637,636,638,-1,
   638,636,635,-1,
   639,640,637,-1,
   637,640,636,-1,
   639,641,640,-1,
   642,643,639,-1,
   639,643,641,-1,
   644,645,642,-1,
   642,645,643,-1,
   646,647,644,-1,
   644,647,645,-1,
   648,649,646,-1,
   646,649,647,-1,
   650,651,648,-1,
   648,651,649,-1,
   652,653,650,-1,
   650,653,651,-1,
   654,655,656,-1,
   656,655,652,-1,
   652,655,653,-1,
   654,657,655,-1,
   654,658,657,-1,
   659,658,660,-1,
   660,658,654,-1,
   659,661,658,-1,
   659,662,661,-1,
   663,662,659,-1,
   659,660,664,-1,
   664,660,665,-1,
   665,654,666,-1,
   660,654,665,-1,
   666,656,667,-1,
   654,656,666,-1,
   667,652,668,-1,
   656,652,667,-1,
   668,650,669,-1,
   652,650,668,-1,
   669,648,670,-1,
   650,648,669,-1,
   670,646,671,-1,
   648,646,670,-1,
   671,644,672,-1,
   646,644,671,-1,
   644,642,672,-1,
   672,642,673,-1,
   673,639,674,-1,
   642,639,673,-1,
   674,637,675,-1,
   639,637,674,-1,
   675,637,676,-1,
   676,638,677,-1,
   637,638,676,-1,
   638,635,677,-1,
   677,633,678,-1,
   635,633,677,-1,
   678,631,679,-1,
   633,631,678,-1,
   679,628,680,-1,
   680,628,681,-1,
   631,628,679,-1,
   628,626,681,-1,
   681,624,682,-1,
   626,624,681,-1,
   682,622,683,-1,
   624,622,682,-1,
   683,620,684,-1,
   622,620,683,-1,
   684,618,685,-1,
   685,618,686,-1,
   620,618,684,-1,
   618,616,686,-1,
   686,614,687,-1,
   687,614,688,-1,
   616,614,686,-1,
   614,612,688,-1,
   688,610,689,-1,
   689,610,690,-1,
   612,610,688,-1,
   690,608,691,-1,
   610,608,690,-1,
   691,606,692,-1,
   608,606,691,-1,
   606,604,692,-1,
   692,602,693,-1,
   604,602,692,-1,
   693,600,694,-1,
   602,600,693,-1,
   694,598,695,-1,
   695,598,595,-1,
   600,598,694,-1,
   598,593,595,-1,
   696,679,697,-1,
   697,679,680,-1,
   697,681,698,-1,
   680,681,697,-1,
   681,682,698,-1,
   698,682,699,-1,
   696,678,679,-1,
   700,678,696,-1,
   682,683,699,-1,
   699,683,701,-1,
   700,677,678,-1,
   702,677,700,-1,
   701,684,703,-1,
   683,684,701,-1,
   702,676,677,-1,
   704,676,702,-1,
   704,675,676,-1,
   705,675,704,-1,
   703,685,706,-1,
   684,685,703,-1,
   705,674,675,-1,
   707,674,705,-1,
   706,686,708,-1,
   685,686,706,-1,
   707,673,674,-1,
   709,673,707,-1,
   708,687,710,-1,
   686,687,708,-1,
   711,672,709,-1,
   709,672,673,-1,
   710,688,712,-1,
   687,688,710,-1,
   712,689,713,-1,
   688,689,712,-1,
   711,671,672,-1,
   714,671,711,-1,
   714,670,671,-1,
   715,670,714,-1,
   689,690,713,-1,
   713,690,716,-1,
   716,691,717,-1,
   690,691,716,-1,
   718,669,715,-1,
   715,669,670,-1,
   719,668,718,-1,
   718,668,669,-1,
   717,692,720,-1,
   691,692,717,-1,
   721,667,719,-1,
   719,667,668,-1,
   692,693,720,-1,
   720,693,722,-1,
   723,666,721,-1,
   721,666,667,-1,
   722,694,724,-1,
   693,694,722,-1,
   725,665,723,-1,
   723,665,666,-1,
   694,695,724,-1,
   724,695,726,-1,
   695,595,726,-1,
   726,595,727,-1,
   728,664,725,-1,
   725,664,665,-1,
   728,729,664,-1,
   730,729,728,-1,
   727,592,731,-1,
   595,592,727,-1,
   592,594,731,-1,
   594,596,731,-1,
   664,729,663,-1,
   664,663,659,-1,
   662,663,732,-1,
   729,733,732,-1,
   729,732,663,-1,
   734,730,662,-1,
   734,662,735,-1,
   732,735,662,-1,
   734,733,729,-1,
   734,729,730,-1,
   662,728,661,-1,
   730,728,662,-1,
   658,661,728,-1,
   658,728,725,-1,
   657,725,723,-1,
   657,658,725,-1,
   655,723,721,-1,
   655,657,723,-1,
   653,721,719,-1,
   653,655,721,-1,
   651,719,718,-1,
   651,653,719,-1,
   649,718,715,-1,
   649,651,718,-1,
   647,715,714,-1,
   647,649,715,-1,
   645,647,714,-1,
   645,714,711,-1,
   643,645,711,-1,
   643,709,707,-1,
   643,711,709,-1,
   641,643,707,-1,
   640,641,707,-1,
   640,707,705,-1,
   636,640,705,-1,
   636,704,702,-1,
   636,705,704,-1,
   634,636,702,-1,
   632,634,702,-1,
   632,702,700,-1,
   630,632,700,-1,
   630,700,696,-1,
   629,630,696,-1,
   629,696,697,-1,
   627,629,697,-1,
   627,697,698,-1,
   625,627,698,-1,
   625,698,699,-1,
   623,701,703,-1,
   623,699,701,-1,
   623,625,699,-1,
   621,623,703,-1,
   619,703,706,-1,
   619,621,703,-1,
   617,619,706,-1,
   617,708,710,-1,
   617,706,708,-1,
   615,617,710,-1,
   613,710,712,-1,
   613,615,710,-1,
   611,712,713,-1,
   611,613,712,-1,
   609,716,717,-1,
   609,713,716,-1,
   609,611,713,-1,
   607,717,720,-1,
   607,609,717,-1,
   605,607,720,-1,
   603,722,724,-1,
   603,720,722,-1,
   603,605,720,-1,
   601,603,724,-1,
   599,724,726,-1,
   599,601,724,-1,
   597,726,727,-1,
   597,599,726,-1,
   597,731,596,-1,
   727,731,597,-1,
   736,732,737,-1,
   737,732,733,-1,
   734,738,737,-1,
   734,737,733,-1,
   739,735,736,-1,
   736,735,732,-1,
   735,739,738,-1,
   735,738,734,-1,
   736,738,739,-1,
   737,738,736,-1
  ]
 }
}
